<svg id="Ebene_1" data-name="Ebene 1" xmlns="http://www.w3.org/2000/svg" width="24" height="24" viewBox="0 0 1920 1080">
  <defs>
    <style>
      .cls-1{fill:#fff}.cls-2{fill:none}.cls-3{opacity:.8}
    </style>
  </defs>
  <path class="cls-1" d="M763.73 105.88h-29.64c0 .11.32.22.48.34zM792.73 101.72h-9.34a12.69 12.69 0 011.81.28zM734.57 106.23c2.26 1.27 14.59 2.53-.48 3.8h-65.61c-16.39.7 0 1.39 0 2.08h-22.53l-7.42.1a12.47 12.47 0 00-2.82.2c-10.72.91 7 1.51 38.78 1.73 70.61-3.84 250.51-5.22 60.08-7.91zM865.38 103.45h-86.29c-9 .79-21.13 1.59-12.4 2.39 44.68-.59 71.95-1.26 98.69-2.39zM477.35 270.25c-.06-.08.14-.41 1.67-2s4.37-4.54 9.6-9.79c-3.95 4.15-7.57 7.95-11.27 11.82 0 .29.86-.19-4.16 5.26 39.18-41.63 85-90.2 129.74-137.2 5.55-6.37 10.9-12.53 15.77-18.13L451.1 296.37l-80.26-83.25c-24.9-25.71-48.93-50.38-71.8-73.68l75.85 79.11 76.21 79.29zM625.82 109.71l11.27-11.83c-5.19 5.21-8 8.1-9.56 9.73s-1.75 1.98-1.71 2.1zM636.22 277.15l4.67-4.91c.13 32.66.26 64.34.39 95.3.21 23 .42 45.54.63 67.71.55 44.34 1.08 87.34 1.62 130.57-.41-100.12-.84-201.48-1.24-297.08L532 385.28l-42.07 44.66-20 21.24-9.58 10.21-5.34 5.77zM653.61 963.58l-5.4-.1c0-1.63 0-3.24.06-4.84v-59.47c-.09-26.14-.19-51.35-.28-75.87-.29-49-.77-95.29-1.32-140.52q.43 140.82.88 280l.09 1.2zM645.94 866.94c0-112.24-1.17-207.22-2.41-301.12.56 105.53 1.29 208.81 2.41 301.12zM121.08 666.5c-1-73.8-1.44-118.56-1.56-144-.44-11.27-1-26.17-1.82-46.36v13.14q.84 114.27 1.72 231.63c.43 32 .91 62.42 1.48 88 .1-47.52.1-95.24.18-142.41z"/>
  <path class="cls-1" d="M119.52 522.51c4.14 96.11-.43-99.35 0 0zM156.1 979.3h10.59l32.85-.24zM345.59 384.27l-65.71-68.33c.13 21.61.25 42.83.38 63.9-.08-21.21-.16-42.46-.23-63.55l80.37 83.5 44.32 45.95 10.77 11.15c3.57 3.7 7.06 7.4 10.87 10.84q13.23 12.5 26.08 24.6l27.82-29.57-27.83 28.77-13-12.49-11-10.1-5.22-4.81c-1.78-1.65-3.44-3.44-5.21-5.2L395.6 436c-15.78-16.12-32.96-33.87-50.01-51.73z"/>
  <path class="cls-1" d="M138.05 488q.7 126.38 1.39 250.27.84 122.24 1.64 241.2l25.61-.2 103-.07c-.22-117.9-.44-233.93-.65-347.17-.55-119-1.08-235.07-1.6-347.25l74.53 77.09L405.2 427l24.91 25.6c2.1 2.25 4.41 4.21 6.63 6.35l6.06 5.68 9.2 8.57 35.93-38.2 43.69-46.29 108.54-114.65c.26 64.46.52 130.67.79 196.74.34 58.49.68 116.85 1 173.39.81 113.1 2 218.94 3.75 304.09q.12-42.33.22-81.34.39 28.88.76 56.07.22 13.59.43 26.73c0 2.19.07 4.37.11 6.54v2.39l.05.87c.08 1.1.16 2.18.24 3.26v1.28l101.51-.36c-.45-249.74-.9-497.75-1.36-750.53l238.85-.19c0 74.44 0 151.35.06 228.74 0 14.56.09 28.3.13 41.58.1 19.72.2 38.76.3 57.62l-67.29.41-51.75.2h-13.21c0 32.36.09 64.15.13 95.73h9.84c.25-.07-.57-.15-2.37-.23l125.87-.18c.25 107.15.49 214.15.75 322.8 1.91 0-3.29-.06 12.52-.09l33.62-.1 33.84-.11h12.07l.75-.05c-.3-75-.61-152.28-.93-230.72-.34-131.26 0-262.68 0-393.81 0-49.23 1.39-49.23 1.74-82.07.37-27.94.71-54.4 1.05-80.16.17-12.88.33-25.58.49-38.21l.12-9.46V118.26l.22-3.27-2.11-.14-1.13-.07h-3.86l-25.76-.28-53-.49-116.9-.76v-1c-22.64.12-43 .11-59.58 0 70.56-3.89 250.38-5.27 60-8l29.12-.34h3.19-.2c44.72-.59 71.83-1.26 98.66-2.39h-86.16c5.44-.48 9-1 6-1.46l7.59-.27h23.5c4.17-.27 7.25-.54 9.34-.8l66.29-1.07 63.23-.92c.26 15.53.53 28.76.8 36.34s.58 10 .92 4.67c.15-3.77.25-9.27.3-16.24v-26.8l-95.48.66-12.53-.35c82-.34 0-2.42 49.19-2.77l61.35-.07q.13 72 .28 144c.1 131.7.19 253.2.29 374.05.34 122.78.68 244.9 1 376.07h-13.26l-37.7.12-96.05.25c-.05-49.83-.1-98.8-.15-147.67.06-46.78.11-93.48.16-140.82.22 8 .44 16.26.67 24.78l.12-60.65H829.77q-.16-53.73-.34-107.47-.09-19.41-.19-38.88l132.16-.74c-.46-91.08-.93-182.72-1.39-275.82l-185.28.63q.09 43.17.18 87.11c.18 109.78.36 217.94.54 326.24.32 111.76.64 223.66 1 337.51l-156.29.52c0-13.82-.09-27.9-.13-42q.11 21 .21 41.93l155.76-.94c-.22-62.56-.45-125.54-.68-189.39V645.56v155.71c0 62.93-.06 126.36-.1 188.61l-153.67.21q-.17-39.2-.31-77.07-.27-33.13-.51-64.82c-.37-42.2-.94-82.2-1.73-119.2.29-16.87.63-16.87.63-33.21 0-114.91.35-229.7-1-328.12a14.24 14.24 0 01-.11-2.08c0-1.32-.06-3.18-.1-5.36s-.06-4.69-.09-7.29c0-1.26-.06-2.56-.09-3.81-.13-4.3-.3-7.33-.65-3.8 0-4.69-.07-9.48-.11-14.56C564.11 387 505.07 449.3 452.73 504.52l-17.39-16.47-15.44-14.6c-4.1-3.7-7.66-7.58-11.42-11.4l-22.39-22.89-45-45.58c-13.12-13.59-26.22-27.18-39.55-41l-3.07-3.15-1.27-1.28-2.5-2.52-4.91-4.92.22 10 .05 2.38.06 7.59q.06 10.36.11 20.75.22 41.53.44 83.26.44 83.49.88 168.29c.56 119.88 1.14 242.39 1.74 369.86l-176.28.67c-.22-50.08-.47-107.92-.72-166.4-.33-94.27-.34-203-.34-298.47q.78 105.33 1.6 213.59.68 112.61 1.37 227.5v21.89l173.25.08q-.06-43-.12-84.6-.15-32.1-.29-62.89c-.25-41-.64-80.08-1.22-116.61-.31-26.16-.62-52.16-.93-78.33.55 115.1 1.1 229.6 1.64 341.51l-172.24.75c0-7.48 0-14.64-.07-21.8.14-87.15.27-176.4.4-263.92 0 1.72 0 3.28.08 5.07q.61 99.47 1.26 200.56c0 26.39-.06 52.61-.09 78.51l169.77-.06q-.08-29.67-.14-58.58-.11-20.29-.21-40c-.23-26.26-.46-51.7-.68-76.19-.18-13-.35-26-.52-38.32-.31-26.06-.62-52.22-.93-78.31.46 97.36.92 194.3 1.37 290.29l-29.74.09-138.51.68c-.11-26.22-.23-52.18-.34-78.07.07-37.24.14-75 .22-112.59.09 4 .18 8.19.26 11.8.35 33 4.42 124.82 5.46 75.64-.27-126.28-.6-278-.86-398.23-.19-60.1-.35-112.3-.47-149.48 0-18.59-.08-33.42-.1-43.61v-11.68-3-1c1.39-16.3 3.21 416.54 3.56 400.19.13-24.24.26-48.53.4-72.73.31 23 .61 45.54.9 66.26.34 49.19 0 114.83.69 147.72.43 24 .75 48.8 1 74.14q.15 19 .31 38.43.1 22.29.22 45l145.86-.57q-.15-25.19-.28-50.52-.21-22.69-.41-45.45c-1.12-82.15-2.47-180.47-3.81-278.89-.69 0-.35-49.34-1-32.88 0-46.3 0-96.23-.26-139.55-.12-21.66-.31-41.66-.6-58.73-.14-8.54-.3-16.34-.5-23.25q-.17-5.43-.31-10.13c-.13-3.33-.25-6.39-.35-9.15 0-2.51 0-5-.06-7.47 0-7.22-.12-17.62-.27-29.05v-10.69c18.44 19.3 36 37.69 52.94 55.41l45.13 46.84 43.14 44.47 10.63 10.92c3.55 3.62 7 7.34 10.76 10.7l19.24 17.91c28.33-30.36 57.13-61.22 88.37-94.68L637 282V281.9l-42 43.83-17.76 18.63L562.56 360l-22.07 23.55-88.4 93.56-17.47-16.43c-1.73-1.65-3.49-3.26-5.19-4.92l-5-5.17-10-10.31-39.63-41-81.3-84.09-23.46-23.73c.05 2.95.12 7.11.19 11.2 0 9.57-.05 19.08-.08 28.73.13 2.38.26 5 .41 7.79.37 57.09.78 117.91 1.17 176.63.34 58.25.69 114.41 1.2 162.67.32 49.44.51 99.76.61 150.56 0 51.06.06 102.6.1 154.2l-136.18-.14c0-41.47.11-82.75.16-123.62.28 41.51.55 82.77.81 122.64l133.13-1c0-4.91-.07-9.59-.11-14.26 0 5 .06 10 .09 14.23l-132.88.76c-.36-60.15-.68-115.38-1-169.72V666.5q-.19 46-.37 91.28-.65-91.83-1.28-181.29-.51-118.14-1-237.87-.36-121.49-.71-243.89l102.53-.19h33.19a.75.75 0 01.16.15l.63.66 1.26 1.31 2.52 2.63 9 9.44 34.15 35.7L451.1 284l85.9-89.78c-4.19 5-9.06 10.71-14.5 17l-71.41 75-123.56-128.74-30-31-14.7-15.2-7.31-7.54-3.88-4-1.93-2-.48-.5L269 97c-.09-.07-.22 0-.33 0h-1.37l-80.3.84 65-.1h15.45c1.48-.43 2.13 1.07 3.08 1.88l2.68 2.78 5.22 5.43 20.29 21.09 84.38 87.87c-.19.09.19.9-5.05-4.4L451.1 288c18.31-19.31 37.09-39.12 55.65-58.68l-44.83 50.88-10.82 11.69c-5.77-5.92-12.05-12.36-18.71-19.21-6.3-6.51-13-13.39-19.86-20.54l-43.34-44.91L272.13 106l-2.67-2.8-1.34-1.39-.67-.7-.17-.17H206.94l-66.22.09c.25 113.8.5 226.63.76 342.24-.07 179.87-.14 359.56-.21 535.95h14.83l-14.92.09c-1.11-174.39-2.13-334.95-3.13-491.31zM1094 225.34c.17 16.83.33 34.23.5 51.59.09-2.7.17-5.28.24-7.78-.04-15.88-.36-31.61-.74-43.81zm-.33 383.8c.6-112.65-.2-260.95-.74-404.28a3.41 3.41 0 00-.26-1.31c-.36 120.24.48 268.12.96 405.59zM1024.33 964l2.7.12c-.07-.06-.24-.11-.24-.16zm-263.89-6.66C758.71 826 758.71 661.9 758 497.85c0-49.23-1.39-98.34-1.39-164-.26-44.11-.48-79.56-.67-112.44l104.47-.71-49.3-.69c30.69.09 57.87 0 83.42-.14l85.73-.59c.13 25 .27 50.12.41 77 .07 22.64.06 46.71-.1 73.45a12.47 12.47 0 01.31 2.81c.11 1.79.23 4.35.34 7.43.22 6.15.39 14.35.39 22.56 0 20.26.07 40.52.1 60.55 0 24.6 0 48.9-.05 72.59h-70.93c-18.44 0-36.09.12-52.68.3l-8.87.08q.06 10.5.11 20.89 0 17.3.1 34.27c0 11.3.07 22.47.1 33.44q0 6.23.07 12.33 0 2.85.06 5.64l6.74-.1 16.28-.11 34.72-.3c6.44 0 15.36-.16 25.82-.37l8.11-.17 4.24-.09 7.11-.09 31.46-.39c.1 11.93.2 24.21.3 36.51q.17 60.35.33 120.8c.1-1.8.19-3.44.27-4.91 0-32.6 0-65.69-.25-98.74-.08-17.08-.16-34.51-.25-54.06l-81.85.43-33.58.2h-8.43l-4.73.05-5.13.1-.09-5.18-.09-13.77q-.09-17.18-.17-34.14t-.15-33.55c0-6-.09-12-.13-17.79h2.07l130.37-.43c-.47-108.67-.92-214.27-1.36-318.25L754 219.47q.26 49.08.51 97.89c.46 49.18.93 98.49 1.39 147.64 1.38 147.72 1 328.24 3.46 426.56.39 16.44.39 49.27 1.08 65.73zm-138.83-2.14c.07 11.47.14 23 .21 34.67l152.54-.9c-.24-65.67-.48-131.93-.71-196.68V612.72c0-43.16-.23-112.83-.67-184.55-.29-35.85-.58-72.22-.84-106-.2-16.91-.38-33.18-.55-48.44-.11-7.46-.21-14.68-.31-21.6-.11-5.49-.22-10.75-.32-15.74l30.82-.74c10.09-.27 18.2-.55 23.9-.85 11.4-.59 13.17-1.24 1.91-1.95-7.35.34-16.26.65-26.58.93l-31.89.77q.23 14.07.5 30.19c.14 11.83.28 24.37.42 37.52.19 26.31.4 55.07.62 85.61.31 61.08.47 129.25.55 199 .13 141.51.26 289.48.36 399.29l-83.51.37-63.5.65c-.15-10.75-.32-19.88-.52-27.14 0-1.52-.1-2.94-.15-4.24s-.11-2.27-.16-3.26c-.1-2-.22-3.54-.34-4.7-.52-4.64-1.09-2.57-1.78 7.36zM288.8 491.48c-.33-50.52-.65-99.53-1-155.84l4.63 4.84-4.55-4.62.24 15.82.23 43.33zm333.49-183l-81.49 87.04-88.42 93.88-26.3-24.84c-2-1.83-3.88-3.77-5.74-5.72l-5.62-5.84-11.23-11.64-44.94-46.62L278 311.27c.28 46.46.56 92.36.83 137.45 1 164.14-.69 344.58 1.74 492.22h1l-.35-16.35c.2-57.62.76-104 1.05-152.3 0 2.74.06 5.7.09 8.44 0-4.83 0-9.66-.06-14.58.18-32.23.23-65.64 0-104.18-.16-17.66-.32-35.63-.48-53.69-.16-51.54-.32-103.5-.48-155.31q-.14-38.87-.28-77.54-.17-28.81-.33-57.35l77.95 80.55q22.55 23.25 44.6 46 5.52 5.67 11 11.32c3.7 3.73 7.19 7.59 11.12 11.12l27 25.37 27.81-29.69L558 379.48l70.21-75.6c.19 14.53.4 29.22.6 44.17.17 17.11.35 34.51.53 52.31 0-14.63.08-32.59.12-50.83 0-16.93.07-34.32 0-48.7z"/>
  <path class="cls-1" d="M137.24 790.83q-.59-106.33-1.18-214.34c-.46-55.58-.92-110.78-1.38-165.94-.27-49.49-.54-100.55-.81-152.71-.15-53.69-.3-108.52-.44-164l102.8-.15h34.07c.18 0 .24.18.36.26l1.3 1.36 2.61 2.69 9.24 9.66 34.24 35.79L451.1 282.48l97.54-102.65c5-6.74 5-8.17-2.86-1.54L451.1 277 321.2 141l-34.13-35.67-9.63-10.06-3-3.11-1.44-1.6-.74-.78c-.1-.19-.32-.09-.49-.12h-34.91l-107.34.16.24 198.84-.09 190.18c0 2.38.07 4.83.11 7.21 1 64.08 1.37 147.67 1.67 235.49.15 43.91.32 88.88.48 133 .29 46 .58 91 .85 133.25l15.32-.12 128.76-1.33q-1.59-186.79-3.17-373.53c.1 125.86.21 248.42.31 370.67l-137 .06c.07-63.84.16-127.96.24-192.71z"/>
  <path class="cls-1" d="M646.71 682.78q-.32-96.39-.64-194c-.35-79.24-.68-155.19-1-227l-69.46 73.34-44.56 47.29-44 46.71-21.86 23.22-8.49 9.07-4.87 5.27-4.52-4.18-6.64-6.19-4.92-4.63c-1.65-1.53-3.21-3.25-4.81-4.88l-9.55-9.8 9.45 9.88c1.59 1.62 3.14 3.34 4.76 4.89l4.89 4.65 11.37 10.8 191.39-200.86v77.39q.11 24.45.2 48 .16 22.16.31 43.62c.29 28.67.58 56.55.86 84 .7 55.04 1.38 108.45 2.09 163.41z"/>
  <path class="cls-1" d="M328.69 341.35l92.7 95.65-159.95-167c.26 120.57.52 240 .77 359.34q.84 172.07 1.68 344.21l-117.42.65q-1.08-188.77-2.14-377.52-.24-49.64-.47-98.57c-.07 160.54-.15 320.93-.22 478.92h123.69c-.18-116.61-.36-231.57-.54-344-.48-120.7-1-238.71-1.41-353.12l55.51 57.58 41.92 43.29L404 423.13l20.39 21 5.07 5.23c1.7 1.72 3.36 3.52 5.13 5.11l9.44 8.82 7.87 7.26 3.12-3.38-3.12 3.29-16.48-15.67c-1.95-1.79-3.81-3.76-5.67-5.72l-5.6-5.85-11.15-11.7-44.65-46.65-104.64-109.29c.3 137.41.59 273 .88 408.38q-1-205.73-2-411.28zM137.65 859.47v-47.3c-.12-18.35-.24-36.37-.35-54.39 0 11.06-.07 22.12-.1 33.05.18 22.98.32 45.91.45 68.64z"/>
  <path class="cls-1" d="M282.32 772.29v-6.14c-.17-51.85-.34-104.64-.52-157.87-.51-73.39-1-150.1-1.57-228.44.42 141.99.83 282.45 2.09 392.45zM290.63 346.58v-3.83l6.51 6.82 1.15 1c-.1-.14 1.13 1.1 1.94 1.92l2.63 2.64 10.53 10.58-18.6-19.58-4.43-4zM619 729c-.36-75.41-.72-149.6-1.07-221.89q-.27-54.21-.53-106.92-.15-25-.28-49.65-.14-9.24-.27-18.32l-8.35 9-4 4.33-9.29 9.84-45.09 47.72L452.76 506l-38.24-36.3-24.9-25.81-48.51-50.31-27.72-27.89 63 66.06 31.44 32.9c2.66 2.72 5.13 5.49 7.94 8.17l8.4 8 28.65 27.29 102.1-107.57 44.21-46.84 5.48-5.81 1.45-1.61 3-3.29 6.29-6.95q.2 6.34.4 12.53l.1 3.33q.06 5.29.12 10.56.12 10.8.24 21.51c.34 32.77 1.38 82.08 1.38 114.84C617.9 654.15 619 802 620 949.55c-.31-70.52-.63-141.74-1-214.51V729zM1568.37 546.78l4.73-3.63a1.46 1.46 0 00-.28-.21zM1566.28 553.63l1.49-1.15a1 1 0 01-.46 0c-.31.37-.64.73-1.03 1.15zM1572.81 542.93c-1.13-.73-3.87-.23-2.24-3.08l10.47-8c2.19-2.55-.84-1.09-1.26-1.65 2.61-2 5.22-4 5-4.28 1.16-2-2-.34-7.24 3.37-8.89 11.71-36.74 34.8-4.73 13.64zM1553.63 561.14l13.77-10.56c.95-1.73 2.4-3.85.53-3.41a134.14 134.14 0 00-14.3 13.97z"/>
  <path class="cls-1" d="M1553.7 514c.13-.16.44-.07 2.61 2l-2.61-2c-.16.13-.18.48-1.44-.33 9.36 6.68 20.24 14.56 30.66 22.41 1.57.74 3.1 1.44 4.51 2-25.74-19.47-51.35-39.11-73.44-53.72 14.83 11.44 25.39 18.77 39.71 29.64zM1590.69 538l2.62 2c-2.16-2-2.47-2.13-2.62-2zM1249.46 397.93c.3 19.93 1.5 37.4 2.66 55.07-1-37.52-1.48-76-2.8-104.62q.08 24.67.14 49.55zM1256.69 540.91c.65-24.66-.22-45-1.39-64.39q.43 29.6.87 58.87c.17 1.82.35 3.76.52 5.52zM1254.53 513.55c0-22.57-1.17-41.67-2.41-60.55.55 21.22 1.28 42 2.41 60.55zM1408.53 374.45c12.39 8.24 19.79 13.36 23.92 16.39 2.09 1 4.83 2.34 8.51 4.22l-2.1-1.61-38-27c-5.36-3.56-10.51-6.91-14.94-9.59 7.54 5.89 15.08 11.77 22.61 17.59zM1432.45 390.84c-17.86-8.48 16.12 11.81 0 0zM1343.06 349.7l-1.8-1.38-5.39-3.83zM1233.09 317.45c-.1-7.91-.19-15.84-.29-23.73q-.21-13.1-.43-26.06c.09 8.86.19 17.73.28 26.53.12 8 .23 15.86.35 23.6.26 12.73.61 24.92 1.13 36 0-3.29.34-6.6.34-9.9-.69-6.62-1.38-16.5-1.38-26.44z"/>
  <path class="cls-1" d="M1426.67 409.76c-29-21.13-57.6-41.67-85.41-61.44q-26.82-20.49-53-40.17l-13-9.74-11-8.11c-7-5.1-13.61-9.93-19.85-14.39.28 9.53.61 18.55 1 26.89q.66 14.88 1.31 29.17c2.77 52.78 2.08 145.14 7.62 197.93.15-5.67.21-11.12.22-16.35.47 7.74 1 15 1.64 21.84.6 43.57 1.09 86.74 1.43 130.15.17 34.78.34 69.75.52 105.42a3.34 3.34 0 00.32 1.66 38.68 38.68 0 013-3.19l1.91-1.58 14-10.85c0-.09-.19 0-.52.11 42.86-33.42 84.86-66.51 128.83-101.66 20.73-16.34 41.91-32.14 62.83-48.19 7.86-6 8.7-4.92 14.15-8.66 22-14.69 38.54-25.63 62.51-43.14l.63.82c3.54-2.86 6.79-5.34 9.51-7.29-8.89 11.72-36.74 34.82-4.73 13.66l-4.44 3.83-.51.39h.06a132.91 132.91 0 00-14.29 14l13.77-10.56c-.57 1.05-.84 1.87-.07 1.89l-1 1.15-3.75 2.87a8.52 8.52 0 00-1 1.78c-11.1 10.39-29.56 25.53-25 23.88 3.24-1.56 11.63-8.81 21.33-16.8.68-.36 1.44-.79 2.21-1.26-12.88 10.31 1.47 1.92-6.16 8.22l-31.19 24.35c-42.62 32.69-78.33 60.52-119.57 93.45l-5.44 4.33c-20 15.91-39.16 30.67-59.2 45.7 1.13-1.17 2.32-2.36 3.55-3.57q-12.11 9.06-24.11 18.28l-11.94 9.29-13.84 10.88-37.09 29.69c-.44-23.4-.88-46.94-1.34-70.84-.37-19.23-.65-38.75-.78-58.75-.28-55.3-1-108.55-2.16-164.69.77 22.94 1.47 45.85 1.71 69.39 0 10.56-.06 21.08 0 31.3.12-10.59.09-21 0-31.3.14-40.66.55-82.42-2.7-113.74.29-3.4.64-3.4.64-6.68 0-23.11.34-46.19-1-66-.35 0-.35-9.91-1-6.61-.35-19.79-.35-42.9-1-62.68-.23-8.57-.89-17.11-1.71-25.67l-.16-6.33c-.06-3.59-.11-7.18-.17-10.78q-.16-11.25-.33-22.62c-.22-15.56-.44-31.39-.66-47.77l57.3 42.62 7.45 5.55 4.12 3 8.22 6 16.57 12.06 68.45 49.91c15.25 11.27 32.61 24.57 47.83 36.24-23.11-16.26-46.77-33.2-70.74-50.5-22.59-17.64-44.36-34.34-63.38-46.68l-6.54-4.41-3.26-2.21-1.63-1.11-.82-.56-1.37-1 39 28.42 38 27.54c13.34 10.42 26.94 21.15 40.42 31.51l-.85-.57-32.77-23.54c-20.08-15.69-39.51-30.62-56.95-42.41-2.17-1.47-4.34-2.92-6.43-4.28l-13.06-8.84 47.19 34.45 29.11 21.07 17.83 13.95-2-1.23c-5.47-3.76-22.61-11.77-15.39-4.92 20.17 15.41 44.65 33.64 64.06 48l24.13 17.91 7 5.26 1.87 1.43a3 3 0 01.61.53c1.76 3.09-68.4-48.43-66-46.15l11.36 9.21c-3.84-2.59-7.61-5.12-11.11-7.39-8.06-5.74-18.33-14.05-24-17.53-19.58-12.39-40.11-29-61.89-44l-47.09-31.3c-.18.73-8-5.74-5.42-2.85-7.29-5.59-15.25-11.7-21.76-16.37.26 9 .76 16.83 1.77 21.5l.06 1.27c0 1.17.11 3 .27 4.84v9.86c0 3.19.1 6.53.14 9.66.16 6.82.4 13.31.71 19.7.67 12.78 1.33 25.21 2.08 39.26.18 9.65.29 19.48.29 29.59 0-6.6.35-16.49 0-23.11q-.15-3.28-.29-6.48c-.23-12.52-.58-24.74-1-36.81-.39-11.52-.78-22.9-1.17-34.26-.21-1.74-.54-4.63-.77-7.41 0-1.49.05-3 .07-4.47-.14-.51-.27-1.06-.4-1.64-.28-6.14-.52-12.68-.73-19.39 12 8.54 25 18 36.46 25.89 29.76 21.34 60.38 45.55 89.89 68.43L1323 332.08l52.21 37.73 7.51 5.78 15.72 12.06-14.34-11.47 29.7 21.18c53.48 39 108.16 79.84 161 121-1.29-.46-2.74-1-4.32-1.73-25.74-19.48-51.34-39.11-73.42-53.71 14.78 11.33 25.37 18.69 39.68 29.57-.13.15-.17.48-1.44-.33 9.36 6.69 20.25 14.56 30.67 22.42-3.86-1.83-8.12-4-12.37-6.12-5.67-3.47-13.51-9.49-21.59-15.24-34.41-25.58-66.32-50.22-100.29-75.22-29.72-23-59.4-45.89-88.66-68.25 29.61 21.43 56.94 41.1 83.61 60.01zm67.22 194.52L1486 611l1.38-.76a53.9 53.9 0 006.51-5.96zM1432.45 651c18.33-13.31 41.51-32.09 64-50.05.07-.18.1-.31 0-.37-19.28 14.42-42.36 33.2-64 50.42zm-76.18 49.36l.5-.25s-.1-.05-.13-.09zm-111.06-132.19c1.74 26.39 1.74 59.4 2.43 92.38 0 9.9 1.39 19.78 1.39 33 .34 16.51 1 26.39 1.38 39.6l.69-9.91c-.17 11.55.26 20.63.65 29.7.09 2.27.19 4.54.28 6.84.06 2.08.13 4.18.19 6.36a58.7 58.7 0 01-.08 7c.35-.23 1 .54 1 1.79.15 2.67.11 5.48.06 8.29a74.24 74.24 0 007.73-6.29l3.62-3 1.73-1.44.42-.34 1-.81 2.31-1.83c6.14-4.87 11.92-9.53 17-13.82 2.63-2 7.22-6.84 12.25-11.14l19-15-1 .38c-5.21 4-10.47 8.06-15.6 12.29L1277.41 762l-11.6 9.42-3.81 3.38-7.87 6.63c-.21-3.32-.42-6.59-.63-9.83-.12-1.82-.24-3.63-.35-5.43q-.19-6.67-.38-13.29c-.55-18.86-1.09-37.45-1.63-56-.34-9.89-1-19.8-1.38-29.68-1.39-29.7-1-66-3.47-85.77-.38-3.35-.38-9.95-1.08-13.26zm-15-36.88c1.48 34.78 2.15 73.33 1.86 106.17 0 26.41 2.08 102.26 6.23 89.06-7.57-32.67-.17-218.15-8.11-195.23zm7.7-286.29l-13.67-10c.36 18.29.64 36 .64 55.64l-.79-55.93zm0 151.64c-1.2-21.16-1.89-43.12-2.45-65.08-.56-26-1.12-52-1.65-77.05l1.68 1.23c8.06 5.85 16.68 12.35 25.34 19l24.3 18.66c13.42 10.29 26.61 20.19 39.13 28.26l.63-.83-2.82-1.72c-9.07-7.21-16.13-13.33-23.66-19.47l1.4 1-2.36-1.74c-2.52-2-5.1-4.09-7.84-6.2l-4.25-3.2-4.66-3.5-12.3-8.81-37.08-27.8c.25 21.32.56 42.19 1 61.75.44 14.81 1 29 1.81 42.61 1 23.09 2.77 42.88 3.81 66 0-6.6.34-16.51 0-23.11z"/>
  <path class="cls-1" d="M1378.86 372.06l34.91 25.3 27.32 19.2c43.15 30.76 91.87 68.9 137.51 102.86 2 .21 2.74-.49 1.77-2.59-48.33-38.49-98.47-74.61-147.11-112.64l-1.22-.79c-22.22-14.42-55.83-41.07-83.06-59.77-13.71-9.21-27.23-18.7-40.71-28.22l-20.22-14.28-20.6-14.35 56.19 42.71c18.44 14.01 36.77 28.03 55.22 42.57zM1255.3 476.52q-.33-19.38-.64-39c-.82-36.43-1.86-68.77-3.11-101.83q.26 36.39.29 73.25c.37 24.62 2.16 45.48 3.46 67.58z"/>
  <path class="cls-1" d="M1250.5 310.12l.07.87v1.27l.14 3.37q.13 3.38.26 6.72.27 6.69.52 13.34-.08-8.71-.15-17.4l-.07-7.72-.09-4.17q-.18-8.72-.37-17.35l15.18 11.06 2.33 1.62.59.41 1.07.78 2.22 1.61 8.87 6.48 17.74 13 35.49 25.91q35.52 25.89 71.17 51.58l16 11.69c-31.72-24.51-63.4-49-94.55-72.76q-23.37-17.83-46.29-35.06l-10.74-8-8.14-6-15.32-11.11c.29 9.78.64 19 1.06 27.38q.77 18.07 1.5 35.42c.08 1.69.16 3.59.25 5.38q-.15-19.77-.29-39.39-.21-12.32-.41-24.51l24.94 18.39c-3.86-2.84-5.21-3.75-7.37-5.28l-5.92-4.15-11-7.63c.46 8.77.87 16.92 1.31 24.25zM1367.66 364l7.52 5.82 8.89 6.37-5.21-4.12zM1298.44 299.61l-1-.78-12.68-9.37q-8.15-6.1-16.4-12.26L1232 250.83c.11 5.32.23 11.06.35 16.83-.06-5.53-.12-11.05-.17-16.47 12.76 9.56 25.46 19.05 37.79 28.14l9.18 6.74 6.93 5q6.46 4.52 12.36 8.54zM1222 274.83v23.74c.21 3.62.42 7.2.63 10.82 0-5.45 0-11 .06-16.46zM1227.6 485.81c-1.46-58.47-2.83-113.29-4.19-167.62l-.38-4-.2-2v-.49a5.26 5.26 0 010-.63l-.1-1.74v28.16c0 9.05.14 18.05.3 26.95.32 17.8.91 35.22 1.87 51.94.35 6.59 1.39 16.5 1.39 23.09.33 31.23 1.43 61 2.43 90.63-.32-14.18-.64-28.5-1-43.14z"/>
  <path class="cls-2" d="M1745.84 499.46L1686 453.55l-446.27-357h-135.79l1 66.54V914l-1 66.54h135.74l446.27-357 59.82-45.87 49.23-39.06zm-506.13 311.11V266.43l354.76 272.07z"/>
  <path class="cls-1" d="M1249 784.83v6a1.56 1.56 0 00.34-.09c-.1-2.18-.21-4.1-.34-5.91zM1244.87 779v1.88a1 1 0 01.28-.36c-.1-.52-.15-.95-.28-1.52zM1249.38 790.7c1.27-.46 2.53-2.94 3.8.09V804c.7 3.29 1.39 0 2.08 0 0 3.29 0 6.58.35 6.58.91 2.16 1.51-1.4 1.73-7.79-3.89-14.21-5.27-50.38-7.96-12.09zM1246.6 764.4v17.34c.79 1.81 1.59 4.25 2.39 2.5a135.32 135.32 0 00-2.39-19.84z"/>
  <path class="cls-1" d="M1273.93 777.55c.12.17 0 .44-2.6 2l2.6-2c-.09-.18-.42-.3.69-1.3-8.88 7.3-19.31 15.77-29.59 23.8-1.13 1.32-2.2 2.61-3.16 3.82 25.49-19.81 51.1-39.45 70.93-57-14.8 11.38-24.64 19.68-38.87 30.68zM1241.15 807.05l-2.59 2c2.53-1.54 2.7-1.81 2.59-2zM1484.19 466.21c-16-11.89-30.59-21.57-45.32-31.41 30.37 22.05 61.2 45.08 84.72 61.45zM1366.33 384.93c19.18 15.52 35.84 27.21 52 38.08L1371 387.88zM1389.36 399.87c17.9 13.75 33.78 24.43 49.51 34.93-17.17-12.47-34.1-24.53-49.51-34.93zM1446.37 673.54c-11.17 9.82-18 15.65-22 18.85-1.5 1.76-3.52 4.06-6.29 7.12l2.1-1.61 35.91-29.71c4.83-4.25 9.4-8.36 13.13-11.94zM1424.34 692.39c12.81-15-15.59 12.5 0 0zM1487.24 616.72l1.81-1.38 5.09-4.21zM1558 502.19l35.73 26.5-20.31-15.22-15.63-11.55c-10.27-7.54-20.15-14.69-29.23-21 2.61 2 5 4.3 7.64 6.3 5.67 3.47 13.93 8.93 21.8 14.97z"/>
  <path class="cls-1" d="M1407.56 681.9c27.93-22.52 55.18-44.83 81.49-66.56 17.82-13.72 35.39-27.35 52.54-40.79l25.39-20 10.37-8.33 9.43-7.68-11-7.89-11.23-8q-13.35-9.52-26.29-18.51c-43.58-29.92-116.44-86.68-161.7-114.41q6.62 5.36 12.84 10.13c-6.42-4.34-12.55-8.35-18.33-12l-71.17-53.24-35.4-26.62-6.6-4.7q.09 3.72.16 7.52 0 19.46.06 39.21c0 13.2 1 23.1 1 36.3.07 13.37.13 26.51.2 39.6.07.05.15-.12.23-.48.43 54.35 1.12 107.81 2.26 164.1.34 26.39 0 52.81 0 79.18 0 9.9-1.39 9.9-1.74 16.5-1.73 26.38-3.12 46.18-3.81 75.86h-1c.12 4.55.11 8.63 0 12-3.89-14.19-5.27-50.35-8-12.07-.13-2.12-.24-4-.34-5.85v-.64a135.32 135.32 0 00-2.39-19.84v17.35c-.48-1.09-1-1.8-1.46-1.21-.09-.5-.17-1-.27-1.52v-4.71a8.81 8.81 0 00-.8-1.88c-1.49-15.13-2.27-39-3.71-34.4-.73 3.52-.1 14.59.35 27.15-.13.76-.25 1.63-.35 2.52-.34-16.5-2.42 0-2.77-9.89l-.35-39.57c0-53.71-.34-99-1.38-151.75 0-2.33-.08-4.63-.12-6.95-.43-25.58-.51-49.73-.24-74.78.24 1.6.46 3.27.68 5 .22-20.15.3-40.34-.23-60.52-.58-21.79-1.16-43.57-1.74-65.65q-.2-8.28-.38-16.62-.16-10.38-.33-20.85-.26-23.64-.5-47.8l20.6 15.6 41.29 31.3 32.71 24.5c21.84 16.29 43.82 32.56 66.45 49.19-18.67-13.35-37.28-26.74-56.1-40.87-8.36-6.46-16.7-12.88-24.86-19 8.34 6.53 16.61 12.84 24.86 19 32.17 24.85 65.06 50.59 91.89 67.08 2.52 2.29 2.31 2.56 4.91 4.56 18.34 14.06 36.44 28.39 53 39.33.21-.28 8.08 5.76 5.88 3.2 15.91 11.77 34.25 25.83 50.37 37.32 6.93 5 14.11 9.7 21.4 14.27l10.26 7.45 5.15 3.74 2.59 1.88 4.2 3.11 37.92 28.25-27.8 22-13.65 10.79-7.81 6.32q-15.69 12.69-31.7 25.64l-66 53.16c-14.84 11.8-32.18 25.12-47.41 36.8 21.7-18.1 44.21-36.57 67.13-55.23 22.89-17.24 44.66-33.94 61.51-49.1l11.93-10.33-73.44 59.43c-13.52 10.18-27.42 20.54-40.92 30.87l.77-.68 31.23-25.54c20.36-15.33 39.82-30.22 55.73-44 2-1.72 4-3.44 5.8-5.11l11.93-10.32L1515.2 620l-27.91 22.64-18.1 13.6c.58-.55 1.2-1.14 1.72-1.65 5-4.31 17.23-18.78 8.75-13.59-20.12 15.49-44.07 34.4-63 49.41l-23.57 18.67-6.89 5.41-1.87 1.43a3.15 3.15 0 01-.67.46c-3.44.9 64.51-53.51 61.69-51.78l-11.85 8.58c3.5-3 6.92-6 10-8.82 7.63-6.3 18.32-14 23.14-18.63 17-15.69 38.42-31.21 58.52-48.36l42.17-37.16c-.43-.54 7.68-6.32 4.6-4.84 7.29-5.59 15.25-11.69 21.6-16.88-7.15-5.16-13.38-9.3-17.12-10.9l-1-.71c-.93-.71-2.35-1.65-3.86-2.61l-4.27-3.32-4.37-3.35-8.44-6.28c-5.5-4-10.8-7.78-16-11.43L1506 477.66c-7.77-5.74-15.64-11.62-23.66-17.78 5.24 4 12.87 10.32 18.33 14.06l5.33 3.72c20.15 14.87 39.63 28.65 59 42.54l6.58 4.08 3.55 2.82c.41.13.85.3 1.32.5 4.88 3.39 10.08 7.08 15.41 10.9l-17.94 14.7-9 7.45-8.4 7.05c-28.32 23.22-59.65 46.51-89.39 69.07q21.53-17.71 42.4-34.89l-50 40.65-7.53 5.75-15.73 12.06 14.8-10.88-28.15 23.2c-51.51 41.54-105.17 83.76-158.62 124.08.78-1.14 1.72-2.38 2.8-3.73 25.48-19.81 51.08-39.44 70.91-57-14.78 11.34-24.63 19.66-38.85 30.65-.11-.16-.42-.29.69-1.3-8.88 7.31-19.31 15.78-29.6 23.81 2.76-3.26 5.94-6.81 9.11-10.36 4.82-4.58 12.67-10.6 20.32-16.9 33.61-26.53 65.74-50.95 98.7-77.28 29.87-22.75 59.71-45.47 88.89-67.93-28.45 23.05-54.52 44.3-79.71 65.2zm-158.83 8.83c-.17-3.38-.33-6.88-.5-10.37q-.13.81-.24 1.56a54.13 54.13 0 00.74 8.81zm.33-77.17c-.6 22.65.2 52.47.74 81.29.09.16.18.26.26.26.32-24.17-.52-53.91-1-81.55zm7.2-90.48l-.12.54h.16c-.01-.2-.03-.37-.04-.54zm95.42-163.85c-22-14.68-48.18-34.77-74.78-54.29-2-1.51-4-2.94-6.06-4.38l-.38-.26-.26-.16-.51-.33-1-.63-2-1.24a90.25 90.25 0 01-8.41-5.58c-3.56-2.53-6.26-4.29-8.54-5.73.27 4.23.55 7.86.73 11.66l.69-4a116 116 0 00.65 14.63l.15 1.58.06.77v1.46c.06 2.31.13 4.66.19 7.08.1 4.84.1 10-.08 15.76.35 0 1 3.3 1 6.6.35 16.49-.34 33 .35 46.19.35 16.5.35 33 1 46.18 0 3.31 1 9.89 1.38 16.5l.33 24.15c.1-.35.19-.68.28-1 0-6.56 0-13.21-.26-19.86-.69-19.81-1.39-42.89-1.73-62.68-.31-21.79-.75-42.94-1.26-63.72q-.19-7.79-.4-15.52v-2.14l-.11-1.62-.21-3.33q-.45-7.43-.89-14.78l5.94 3.93c1.84 1.2 3.75 2.34 5.83 3.6l3.2 2 1.66 1.06.84.55.57.39.76.54c24.41 17 53 39.34 70.16 49.45 2.83 1.7 8.07 5.71 11.11 7.17zm38.41 10.53c-28.5-20-59.49-42.92-85.37-63.14-3.41-2.61-7.89-6-13-9.73l-18-13.14c-15.1-11-29.93-21.57-39.13-27.52.48 7.94 1 14 1.61 17.69s1.27 4.89 2 3.47c-.71-4.3-1.29-10.18-1.76-17.43 5.42 3.44 12.79 8.58 21.44 14.83l13.83 10.13 13.59 10.13c16.95 12.7 35.25 26.76 51.77 39.35 33.12 25.2 59.07 44.53 53.02 35.36zm216.42 179.53l13.42-10.79-21.69-16.06-11-8.3-9.52-7.24 42.5 31.6zm-114.28-91.44c17.51 11.93 35.36 24.74 53.13 37.67l58.77 43-1.66 1.34c-7.89 6.38-16.45 13.06-25.1 19.71l-20.71 15.86c-13.42 10.29-26.4 20.46-37.44 30.46l.64.82 2.39-2.27c9.32-6.89 17.06-12.13 24.94-17.81l-1.29 1.11 2.29-1.83c5.25-3.8 10.61-7.85 16.6-12.78l8.27-7 35.21-27.66-25-18.66-10.85-8-9-6.49c-11.9-8.57-23.58-16.81-34.85-24.45-19-13.23-35.71-23.89-54.67-37.12 5.22 4.05 12.88 10.36 18.33 14.1z"/>
  <path class="cls-1" d="M1456.37 645.5l-33.48 27.16-25.64 21.4c-40.89 33.7-90.36 70.86-135 106.14-.72 1.83-.24 2.78 2 2.38 49.71-36.7 97.59-75.76 146.93-112.87l1.08-1c19.74-17.71 54.19-43.24 79.31-64.71 24.91-21.73 50.67-42.35 75.78-63.8-37.82 29.03-73.35 57.2-110.98 85.3zM1418.28 423l31.33 23.23c29.41 21.52 55.7 40.37 82.7 59.5q-29-21.93-58.3-44.34c-19.76-14.69-37.38-25.99-55.73-38.39z"/>
  <path class="cls-1" d="M1554.23 521.23l-21.92-15.49q13.9 10.49 27.75 20.9l5.65 4.23 3.42 2.51 7 5.12-7.31 5.89-3.75 3-7.29 5.74c-45.61 36.76-91.36 73.39-136.72 110.48l-15.44 12.43c31.89-24.28 63.74-48.52 94.78-72.45q23.3-17.94 45.86-35.61 11.13-8.75 22-17.36l15-12.15-11.3-8.06-5.47-3.85-7.79-5.56q-15.59-11.16-30.68-21.65l-4.43-3.08 32.84 24.81 13.57 10.13 9.87 7.29-11.49 9.17-17.85 14.07 9.55-7.7 4.77-3.85 2-1.59 1.4-1.18 10.59-8.92-10.11-7-2.4-1.64-1.33-.86-2.15-1.55zM1467.07 636.77c-2.55 1.94-5.06 3.84-7.57 5.76l-8.46 6.93 5.33-4zM1547.19 586.61l1-.72 24.87-19.73 3.14-2.63 4.2-3.43 8.88-7.21 17.83-14.39-13.37-9.81 13.08 9.81-18.82 14.85-9.31 7.36c-2.46 2-4.9 3.92-7.29 5.85-8.83 7.09-17.01 13.85-24.21 20.05zM1588.41 511.53l-13.2-10.12-5.14-3.15 7.35 5.72 4.13 2.73.52.34.89.63 1.81 1.28zM1427.76 395.39l135.55 98.68q3.39 2.08 6.76 4.19c-28.81-22.36-57.85-44.08-85.54-62.91-5.44-3.73-13.94-8.94-19.17-13-25-18.74-49.25-36-73.39-53.22l34.81 25.48zM1715 464.06l8.46 6.49c.07-.09 0-.25.07-.38zM1704.16 461l2.66 2a2.48 2.48 0 01-.34-.62zM1723.52 470.16c.14-1.49-2.6-5.19 2.47-2.9l18.71 14.35c5.09 3 .84-1.1 1.27-1.65 4.64 3.56 9.27 7.12 9.52 6.88l1.57 1.37c1.24.77 1.47.59.6-.63l-1.65-1.45c-.92-1.25-4.87-4.64-10.51-9.14-22.5-12.34-74.64-50.6-21.98-6.83zM1684.58 443.61l6.07 4.84 6.15 4.72 12.32 9.44c3 1.34 7 3.37 5 .84-6.55-4.66-11.88-8.35-16.6-11.49-2.37-1.58-4.58-3-6.73-4.37s-4.16-2.7-6.21-3.98zM1782.51 555.32c-.15-.15.22-.59 5.71-4.55l-5.71 4.55c.09.18.68.08-1.87 2.27L1804 538.5l-40.11-31.23-7.46-4.5 45.34 35.73-29.08 23.35-23.91 19.47.41-.36-.16.17-.31.25c-13.1 10.4-25.5 20.41-37 29.92 14.13-10.83 25.8-20 37.5-29.19l.35-.28.22-.22-.49.44 15.35-12.45zM1751.64 501.62L1747 498c4 3.5 4.47 3.76 4.64 3.62zM1095.15 852.93c-.29-35.67-1.49-66.95-2.65-98.59.86 67.15 1.74 136 2.4 187.26.53-29.4.19-58.96.25-88.67zM1087.93 597c-.65 44.14.21 80.53 1.39 115.26q-.43-53-.88-105.37c-.17-3.29-.35-6.75-.51-9.89zM1090.09 646c0 40.4 1.17 74.58 2.41 108.38-.56-38.02-1.29-75.2-2.41-108.38zM1486.59 761.18c20.13-17.39 32.44-27.81 39.52-33.62 2.87-2.91 6.7-6.73 11.91-11.86l-3.69 3-64.08 53.46c-8.71 7.53-17 14.75-23.81 21zM1526.11 727.56c-24.46 24.88 27.67-22.69 0 0zM1405.44 852l-3.18 2.54-9.08 7.57zM1122.29 973.87l33.18-.29 34.7-.43-43.86.36-21 .22-14.79.26c-.11-14.84-.21-28.87-.31-41.87-.09 5.89-.52 11.83-.61 17.73.15 3.6.32 7.81.51 12.43.15 3.77.28 7.71.34 11.78 3.93-.12 7.9-.19 11.84-.19z"/>
  <path class="cls-1" d="M1547.28 734.36c-49.6 40.81-98.12 81-145 120.15-47 37.67-93 74.8-137.36 111L1248.35 979c-1.64 1.32-3.26 2.71-4.93 4l-1.26.93-.63.45c-.21.15-.41.35-.69.3l-3.1.18c-2 .13-4.28.07-6.23.11l-5.27.07-41.7.6-87.43 1.65c0-4.24 0-8.2-.07-12.14-.08-13.07-.18-27.36-.28-42.56 0-6.87-.06-13.95-.09-21.2s-.21-14.68-.32-22.25c-.38-30.27-.79-62.74-1.19-95.22-.87-65-2.08-129.92-4.85-177.17-.15 10.16-.22 19.9-.22 29.27-.47-13.85-1-26.93-1.65-39.09-.47-78-1-155.26-1.42-232.94q-.19-58.26-.39-117 0-29.38-.1-59v-29.67c0-9.92-.26-19.8-.37-29.74-.08-3.82-.16-7.49-.23-11-.13-4.21-.25-8.3-.37-12.32-.34-12.74-.68-25.09-1-37.81l20.76-.21 21.84-.09 70.9-.19c.09-.08-.21-.16-.86-.23l37.95-.18h4.32l4.1.64a15 15 0 017.6 3 31.59 31.59 0 013.45 2.55l3.38 2.69 3.75 3L1276 99.59l57.14 45.08 116.54 91.45c37.1 29.24 73.81 59.05 110.66 88.53 13.83 11.07 13 12.16 22 19.81 35.8 30.86 62.61 54.08 103.66 87.81l-.65.82 16.84 13.25c-5.67-3-13-7.91-20.16-12.7s-14-9.5-18.6-12.41c-9.14-5.82-9-4.43 16.9 18l-8.4-6.28-.89-.71v.07c-12.93-9.59-21-15.16-29.2-20.31l24.25 19.41c-1.83-.84-3.12-1.25-2.59-.21l-2.3-1.49-6.6-5.28a21.77 21.77 0 00-3.13-1.47c-22.07-15.75-55.9-41.83-50.38-35.57 4.47 4.53 20.34 16.4 38.17 30.1 1 1 2.12 2 3.31 3.09-23.27-18.18-1.5 1.9-15.54-8.89l-55.53-44c-75.1-60.08-138.61-110.45-213-168.66l-9.79-7.67c-36-28.28-69.85-55.24-104.71-83.47l7.39 5-10.14-8.2-2-1.61-1-.8c-.17-.11-.31-.31-.51-.36h-32.79q-27.09 0-54.2.39l-23.36.37-16.73.36q.35 10.38.71 20.8.39 13.77.79 27.6c.31 9.22.43 18.46.54 27.73s.22 18.57.33 27.9c.42 37.35.74 75.29.89 114.24.27 99 1 194.38 2.16 294.92-.77-41.08-1.47-82.12-1.71-124.26v-56.06c-.11 19-.09 37.6 0 56.06-.14 72.8-.56 147.58 2.69 203.69-.29 6.07-.63 6.07-.63 11.95 0 41.38-.35 82.71 1 118.15.35 0 .35 17.76 1 11.85.28 35.46.59 76.81.52 112.3v9.32l.1 1.25c.14 1.64.31 3.12.52 4.43 1.76-.23 3.38-.48 4.82-.75l1.59-.09h1.99l3-.05 11.87-.17 23.75-.35 47.51-.7 11.9-.17 5.82-.09 1.12-.08h.27c.09 0 .14-.11.22-.17l.41-.38.4-.38 2-1.64 9.22-7.6 37-30.53c49.66-40.84 100.26-82.47 153-125.9 26.31-21.47 56.89-46 83.72-67.42-38.77 32.5-78.86 65.8-119.65 99.54-40.23 31.86-78.61 62.57-109.1 89.24l-21.45 18.35L1399.71 828l71.93-57-1.39 1.2-55.61 46.1c-35.78 28.34-70.06 55.74-98.67 80.22l-10.45 9-21.44 18.34 80.92-66.67 49.62-41 31.8-25.15-3.15 2.86c-9.06 7.69-32.36 31.54-17.88 21.29 35.47-28.44 77.88-62.91 111.43-90.25l41.74-34 12.2-9.89 3.28-2.63.86-.66a1.37 1.37 0 01.31-.21c5.44-2.58-115.13 96.21-110.32 92.8l20.7-16-18.06 15.65c-13.61 11.33-32.28 25.82-41.09 33.76-31 27.45-68.33 56.44-104.35 87l-76 65.7c.44.54-13.65 11.37-8.59 8.21l-9.9 7.93-5.06 4.06-2.55 2c-.18.25-.51.09-.76.14h-2.43c-8.67 0-17 .09-24.79.22-15.6.26-28.81.76-36 1.77l-2.42.06c-2.34 0-5.69.11-9.26.27-11.12-.07-21.56 0-31.55 0l-15.77.18-16.28.27c-.06-8-.12-15.78-.18-23.56-.1-6.94-.21-13.84-.31-20.82s-.23-13.81-.35-20.92-.39-14.38-.56-21.91c-.18-17.29-.3-34.88-.3-53 0 11.82-.34 29.52 0 41.36q.15 5.9.3 11.62c.05 7.19.21 14.32.19 21.4s0 14.11 0 21.1c0 15.44 0 30.69.06 45.83l50.43-.84c3.48-.21 9.08-.54 14.31-.77l9.26.07c.74-.14 1.55-.27 2.42-.4l31.32-.64 32.12-.58h.51c.18 0 .28-.18.42-.26l.81-.64 1.6-1.29 3.16-2.61 6-4.94 11.6-9.64 21.4-18c50.43-41.86 105.36-85.06 157.68-126.66l-75.56 62.85 88.88-73.32 13.26-10.59 27.7-22.16-25.9 20.21 50.17-41.77q54.22-44.61 109.78-89.77c18.5-15 37-30.08 55.63-44.94l56.7-43.67-.4.35.17-.17.18-.14 45.33-35.83-8.19-6.56q3 1.57 7 3.93l3.34 2.63-46.41 37.15-.12.1-.09.09.24-.21c-13.44 10.44-26.54 20.7-39 30.63L1687 620.92c-5.87 4.83-11.46 9.69-16.89 14.37 6.53-5.18 12.45-10.11 18.25-14.63l16.81-13.17c11-8.62 21.84-17.16 34.59-27 .1.17.51.21-1.54 2l7-5.58-.09.08 22.24-18.21 22.19-17.95c-4.11 4.4-9.64 9.92-16 16.08-6.75 6-16.43 13.87-26.72 22.27l.16-.14-.07.07-.12.09-9.77 7.75-44.85 34.81c-3.72 2.84-7.36 5.76-11 8.71l-10.88 8.77-21.68 17.47c-28.87 23.27-57.61 46.48-86.83 70.39L1405.44 852c50.56-41.69 96.9-80.08 141.84-117.64zm35.64-374.8l-14.81-11.21 2 1.94c4.5 3.57 9.12 6.85 12.81 9.27zM1475.26 273c31.29 25.79 73.46 58.51 114.08 90.32.29.11.48.15.53.08-33.59-27.28-75.68-59.87-114.61-90.4zm-122-106.82l.69.7v-.18zm-253.86 382c-1.73-47.25-1.73-106.33-2.42-165.37 0-17.72-1.39-35.39-1.39-59-.34-29.54-1-47.24-1.38-70.88l-.7 17.75c.35-41.36-1.73-65-1-106.29-.31 0-1.11-5.88-1.19-11.78-.25-9.57-.39-19.15-.5-28.53-.19-14.09-.36-27.88-.53-41l22.21-.07c6.9 0 15.25-.13 18.22-.25 29.53-.34 59-.34 82.68-1 3 0 7.38-.26 12.55-.56l4-.23 2.15-.12 3.65-.11h1.86a8 8 0 011.83.06l3.62.41 1.82.21a12.63 12.63 0 011.66.69 22.66 22.66 0 013.19 1.87c1.29.81 2.47 1.88 3.7 2.82l3.2 2.53 4.25 3.33 8.49 6.69 17 13.39-1.21-1.32c-9.15-7.34-18.47-14.75-27.9-22l-3.81-3-2.31-1.81c-.78-.58-1.59-1.08-2.4-1.61-3.11-2.35-7.07-2.31-10.92-2.7l-9.42.13-7 .12-28.61.49-56.1.73-47.43.3q.46 21.84.93 43.36.38 14.17.74 28.17c.32 9.32.38 18.63.52 27.88s.26 18.46.39 27.63c.6 36.68 1.18 72.78 1.76 108.88.46 17.7.93 35.45 1.39 53.13 1.38 53.16 1 118.14 3.46 153.53.26 5.8.26 17.61.95 23.54zm15 66c-1.47-62.28-2.14-131.3-1.85-190.1 0-47.31-2.08-183.11-6.24-159.45 7.57 58.52.17 390.65 8.11 349.6zm115.94 350.38c-24.74.54-48.67 1-76.78 1zm-123.66-109.24c.62 20.34 1.18 41.09 1.5 62 0 19.49.11 39.16.17 58.8l106.65-1.56 20.88-.27h1c.33 0 .71.07.94-.24l1.58-1.28 3.44-2.79 8.89-7.15 35.69-28.52c23.64-18.92 46.59-37.5 66.58-55l-.64-.81-4.38 3.94c-16.33 12.8-29.72 22.81-43.48 33.44l2.32-2-4.06 3.32c-9.18 7.11-18.6 14.59-29.27 23.47l-14.79 12.45-16.5 13.43-6.14 5-.31.26c-.1.1-.26 0-.39.06h-2.44l-4.08.05-42.6.41-42.13.54-20 .34-14.14.4q-.36-21.36-.68-41.51c-.09-20.68-1-39.88-1.65-59.08s-1.38-38.4-1.9-59.07c-.06 11.79-.41 29.54-.06 41.37z"/>
  <path class="cls-1" d="M1461.66 801.82l59.52-49.13 45.82-38.41c26.8-22.31 55.48-45.7 85-69.56 14.79-11.87 29.55-24.14 44.93-35.78l45.86-35.37-.5.43.19-.19.24-.19 43.77-35.1q-5.9-4.57-11.72-9.12c-2.73-.86-3.51-.15-2.74 1.83l8.92 7.29-16 12.52-24.64 19.5-.4.31-.37.37.88-.78-49.51 38.16c-4.1 3.2-8.27 6.33-12.32 9.6l-12.24 9.8-24.28 19.61q-48.58 39.23-97.43 78.07c-.65.56-1.32 1.14-2 1.71-35.64 31.17-96 78.6-141.08 116.85-44.82 38.52-90.52 76-135.54 114.2 66.69-53.3 129.58-104.57 195.64-156.62zM1089.32 712.24q.32 34.68.64 69.8c.49 32.6 1 63.38 1.39 93.4.22 15 .63 29.84.73 44.6.07 15.9.14 31.74.21 47.67l.4-36q.09-8.16.19-16.33t0-16.37q0-32.78-.08-65.78c-.39-44.09-2.14-81.43-3.48-120.99z"/>
  <path class="cls-1" d="M1135.89 991.28l-8.08.18-11.36.18-24.17.35v-24.28c-.09 8.23-.19 16.45-.28 24.55l100.15-.48 46-.33c2.61-.36 5.45-.06 7.5-2 2.24-1.45 4.33-3.25 6.46-5l8.67-7 17-13.81q121.45-99.88 242.85-200l27.41-22.53c-71.91 57.29-143.72 114.5-212.77 170.15l-51.22 41.41-25.15 20.44-13.41 10.9-2.06 1.51-1 .7-.52.35a2.57 2.57 0 01-.62.08c-1.69.1-3.34.28-5.06.32l-8.94.08-62.68.85-69.43 1.18c0-6.92 0-13.7-.05-20.4v-10.13c0-2.47 0-4.93-.08-7.38 0-3-.08-6.42-.11-9.63-.19 16.25-.38 32.48-.57 48.36l107.81-.5 24.42-.15h10.66l4.13-.35 1-.08c.36 0 .59-.31.9-.45.57-.37 1.15-.72 1.72-1.14 1.14-.79 2.27-1.62 3.36-2.53l5.53-4.48 37.81-30.68-31.62 26-7.91 6.51-5.28 4.29c-1 .7-1.92 1.43-2.9 2l-.73.47c-.25.12-.46.39-.78.35l-1.75.17c-1.17.1-2.33.23-3.51.31h-3.62l-5.62.08-10.23.15z"/>
  <path class="cls-1" d="M1442.62 817.58l13.32-10.58 15.06-12.54-9.35 7.36zM1305.47 915.82l-1.74 1.35-44.06 35.92-15.36 12.91-3.84 3.21-2.44 2.09c-.41.34-.81.71-1.24 1l-1.6.05-3.26.1-41.76.7 38.07-.31 7.38-.09a4.44 4.44 0 001.47-.12l1.17-1 2.32-1.91 13.94-11.43c18.54-15.2 35.88-29.61 50.95-42.47zM1167.73 962.78h-23.64l-10.74.63 16.69.06zM1117 695.7c.67 49.69 1.32 97.92 2 145.22q.51 35.49 1 70.34v48.43l.19 4.72 4.27-.21 1.89-.39 6.93-.4h-12l.24-24c.12-13.7.24-27.32 0-40.76-.35-26.91-.89-53.25-1.71-78.69-.34-11.8-1.38-29.56-1.38-41.35-.33-55.94-1.43-109.19-2.43-162.31.31 25.39.63 51 1 77.24v2.16z"/>
  <g class="cls-3">
    <path class="cls-1" d="M1138.37 205.17c-.37 17.39-.81-6.85-1 19.67-.45-7-.93-34.41-.82-58.34l.45-20.82c.43 20.89 1.31 31.82 1.37 59.49zM652.62 83.79c8.78.11 6.63.45 5.75.67-8.19.06-17 0-22.66-.25-2.64-.29 8.81-.36 16.91-.42zM1066.47 80c15.59.24 34.49.3 52.59.47-.06 5.5-.13 10.93-.19 16.2-.49 5.87-.95-.88-1.35-14.66-8.14.24-18.61.45-30.33.64l-34.64.47c-11.15.16-25.35-.07-29.63-.32-8-.88-20.92-1.71 6.61-2.46 3.5-.44 13.16-.31 21.59-.18l10.78.13h3.98c.84-.1 1.12-.17.59-.29zM765.08 91.57l3.64-.39c8.77.1 4.47.8 18.34.94l22.81-.69c13.87.14 4.7.41 3.75.63 51.06-.24 68.66.45 123.39.28l-15.79.77c14.41.31 37.45.17 48.54.49-36.22.64 15.61 1.12 16.47 1.85-7.23.32-17.92 1.12-40.29 1.42 15.76.19 32.6.71 45.85 1.15h-20.26c-5.14.44 4.2.72 19.28.73-18.42 0-7.58.7-13.65.89 16.33.11 32.27 0 48.62 0h24.93l12.78.1 12.18.2c15.08.43 14.82 1 22.14 1.66-13.2 0-24 .28-33.18.53l-14.75.33c-4.8.09-9.42.15-14.05.15-17.12-.61-63.44-.41-65.12-1.4-11.55.07-25.47.4-34.25.76 8.45.5 35.68.14 44.14.64-37.23.38-54.19.33-92 .55l6.64.46c-39.22-.69-105.77.41-129.05 0-41.63-.89-81.39-2.23-90.67-3.45 35.37-.42-1.45-1.37 1.92-1.85 11.22-.16 29.33.23 25.81-.32-19.33-.73-35.78.34-43.2-.85 35.72-.81 15-2.43 26.85-3.37 9.78-1.05 58.66 0 52.71-1.24-26.53.07-1.18-.34-7.2-.62 8.8-.47 17.25-.44 32.67-.35zM1108.08 371.61c-.1 15.45-.54 10.18-.79 14.42-.71 7.48-.71-29.3-.74-46 .21-17.52.72-19.34 1.16-17.45.69 4.31.46 33.59.37 49.03zM1098.68 154.46c-.14 13.87-.19 30.71-.56 37.06-.56.27-1.11.56-1.41-15.25-.07-12.39-.12-22.89-.17-32.66v-7.08q0-3 .06-5.95c.06-4 .16-7.91.32-12.05.34-9 .81-8.84 1.19-2 .18 3.39.34 8.41.45 14.62 0 3.26.07 6.8.11 10.58.01 3.99.01 8.27.01 12.73zM1117.11 881.6c.05 45-.92 31.69-1.63 42.53-.63-51.48-1.27 26.19-1.89-18.61-.07-11.5-.14-26.3.22-36 1.17 22.79 1.08-72.41 2.22-44.46.61 4.58.81 35.69 1.08 56.54zM1109.23 630.7c-.19 15.73-.76 24.44-1.08 17.13-.44-5.11-.42-28.72-.36-42.34.18-15.68.76-24.43 1.09-13.81.41 10.32.27 24.19.35 39.02zM1104.51 523c-.2 9.07-.38 3-.63 7.23-.4-7-.19-24.51-.21-34.52l.66-12.3c.29 12.45.23 22.71.18 39.59zM1107.58 681.71c-.33 7.79-.66 12.23-1.06 8.63-.17-17.8-.55-36.65 0-51.93.28-12.76.55-3.64 1-5.13.24 14.25.24 32.63.06 48.43zM1102.9 572.2c-.27 16-.19 30.76-.11 45.52-.6 2.13-.87 33.22-1.23 42.9-.11-28.16-1-10.06-1.51-18.29-.54-29.93-.54-88.61.51-115.71.75 5.79 1.91-30 2 16.47.08 11.6.03 25.13.34 29.11zM1094.08 339.6l-.34 59.88c-.86 18-2.08-6.27-2.53 3.7-.11-11.37 0-29.68-.06-45.1 0-7.71-.05-14.7-.15-19.75s-.26-8.14-.51-8.06c-.32-25.74-.18-58.11.37-80.09 1.45-23.47 1.82 80.86 3.11 42.87-.36 12.95-.32 29.55.11 46.55zM1106.45 734.13c-.22 14.19-.58 27.17-.91 35-.2-12.76-.6-19.72-.89-32.2.27-15.91.51-41.93 1.1-43.92a15.81 15.81 0 01.34 3.75c.1 2.37.19 5.72.26 9.67.13 7.93.19 18.2.1 27.7zM1105.89 863.48c-.85 6.26-.67-28-1.1-44.84 0-11.83.17-22.31.45-31.7.42-4.8.77-2.59 1.1 11.25.23 26.03-.47 40.16-.45 65.29zM959.39 965.61c.16-27.16.62-12.89 1-14.49.19 10.37.28 23.46.19 37l10.3.1c21.31.38 11.71 1-11.48 1.08-.08-6.74-.07-14.87-.01-23.69zM1056.71 977.37c-6.19-.09-7.39-.31-4.7-.5s9.69-.35 17.87-.3l16.23.69-14.12.15c-4.56.05-8.88.06-15.28-.04zM806.59 723.16c0 3.31-.08 3.64-.16 3.91l.11-8.73c.08-.34.01 3.24.05 4.82zM959.23 421.39c.7-14.19 2.35-6.44 1.91-48.56-.5-22.56-.43-43.33-.27-64.38.07-10.52.15-21.12.23-32.05 0-4.77 0-9.61.06-14.56 0-4.67 0-9.44-.06-14.34.27 2.37.57-1 .75-9.81-4.41-.12-11.49-.18-20.31-.16-3.59 0-7.38 0-10.54.1l-4.3.11c-1.38 0-2.47.09-3.14.14-4.89-.42 4-1.73-21.61-2.36l23.83-1.58 9.69-.74a32.17 32.17 0 004.62-.56c-5.76-.29-12.18.2-18.59-.18h22l23.74-.2c.17 16.8.35 34.12.52 50.5l.29-6.08c.62 26.34.23 62.92 0 87.13 0 15.11.54 11.47.64 17.81-.07 7-1.35 11.45-1.19 44.37l.7 22.68c-.47 0-.79-25.74-1.26-7.33-.14 13.94-.26 27.49-.32 32.92-.21-3.88-.42-3.28-.62-.51s-.4 7.86-.6 12.18c-.4 8.93-.81 16.77-1.27 7.37-.05-7.82-.14-12.36-.25-15.48-.11-2.9-.25-3.48-.39-2.77s-.3 2.7-.44 4.92c-.14 2-.3 4.2-.4 5.68l.47-21.05c-.85 6.29-1.32-12.22-1.92-28.57l.28-12.64c-.59-27.91-1.58 7.44-2.25-2z"/>
    <path class="cls-1" d="M960.65 439.83v1.65l-.58 8.63c.07-8.46.42-6.3.58-10.28zM964.47 509.34c.08-.17.2-5 .34-.79-.12 4.93-.23 9.72-.34.79zM1082.29 656.86c-.62-8 0-21.71 0-32 .33 9.08.41 27.25 0 32zM966 486.29l.08-3.4v9.5c-.02.25-.03-2.95-.08-6.1zM943.75 239c4-.05 6-.4 9.26-.15-.92.24-6.5.15-9.26.15zM840.52 239.57c-1.81 0-5.47-.12-3.88-.16l8.75.11c.33.08-1.56.04-4.87.05zM859 235.7l-3.56-.08h13.24c-3.02.07-4.57.11-9.68.08zM768.46 307.15c.8 10.6-.15 47.38.33 72.56 0-5.12-.85-18.83-.89 4.73-.12 20.52.55 11.52.15 26.32 0-21.77-.81-32.36-1.1-29.67v20.23c-.42-35.47-1.08-75.08-.42-109.14.58-27.19 1 3.37 1.6-15.58-.47 19.87.55 16.3.33 30.55zM975.64 262.55c0-13.84.43-20 .63-8.73v16.21c0 1.92 0 3.56-.07 4.87s-.07 2.13-.11 2.68c-.08 1.11-.17.78-.25-1.35 0-1.08-.06-2.63-.11-4.68-.03-2.39-.06-5.37-.09-9zM771.9 459.47c-.07 6.84-.12 20.47-.48 15.09-.29-12.44 0-23.35.24-26 .05 4.84.11 9.7.24 10.91zM763.08 907.29c.2 1.36.36 6.15.49 12.67s.23 14.68.37 22.88c.24 15.71.54 31.85 1.15 35.3-.33-10.54-1-.66-1-18.53.12 6.34.1 12.63 0 19.15l-28-.52-16.54-.18h-19.67c-1.45-.9.07-1.42-12-2.47 9.82-.06 19.43-.19 27.2-.37 3.88-.09 7.31-.19 10.08-.3 2.39-.11 4.17-.24 5.21-.37l-7.88-.11 37.14-.12c-.08-8.5-.25-15.47-.67-22.25l-.17 3.21c.32-11.88.39.5.85-4.89 0-2-.06-4.39 0-6.87v-8.24c0-5.78 0-10.83-.15-12.66.51-20.21 1.25-32.85 1.44-63.63.26 51.4 2.43 2.01 2.15 48.3zM759.41 827.7c-.22-.92-.49-6.71-.34-17.22.16-7.24.41-8.13.6-2.05.01 6.63-.09 15.33-.26 19.27zM687.2 978.29l6.94.07-6.07.19-.87-.26z"/>
    <path class="cls-1" d="M685.38 974.38l8.49.03-4.84.05-3.65-.08zM635.86 895.61c.15-13.85.58 6.47.74 2.63-.21 2.29-.48-3.41-.74-2.63zM638.53 933.4c-.19-6.08-.47-.07-.67 5.63.48-30.22-.68-31.15-1.05-43.25.47-40.2-.19-83.18-.12-130.3-.14-1.18-.17 3.93-.2 5.7.91-13.21.82-53.15 1.27-81.45.19 27.76.64-3.94.83-12.94-.5-13.37-.49-43.59-.48-58.66l.33 29c.43 1.85.81 17.32 1.21 5.83-.1-6.35-.12-16.35.08-22 .14 4.59.16 11.16.17 17.78.65-.55.91-16.46 1-35.18.47 36.9 1.48 48.38 2.38 65.39l.31-14.4c-.41 8.06 0 31.64-.07 43.79 1.09 7.94.25 72.79 1.19 88-.85 24.7-.44 53.4-.7 87.87l.08-.27c-.1 13.83-.27 24.72-.48 33.78-.13 4.53-.24 8.61-.34 12.37s-.27 7.07-.39 10.28c-.53 9.34-1.12 17.14-1.56 30l9.41.29c-5.3.12-8.31.26-10.11.41-.24-2.46-.5-2-.76-3.37s-.51-4.52-.72-14.56l-.74 10.64c-.09-5.9.07-9.51.18-13.44.06-2 .1-4 .11-6.52v-4.18c-.07-1.88-.11-3.94-.16-6.24zM636.11 777.52l-.19-9.39zM635.73 740.3l-.42-13.65zM733.98 552.09l.04 1.55-.35 16.24-.04-1.5.35-16.29zM737.27 674.82c-.13 2-.35-2.19-.45-8.49.18-10.61.43 1.87.45 8.49zM635.57 578.35l-.15-11.21zM637.84 553.67c.28 9.16-.11 30.55.14 41.47.02-15.14-.45-26.89-.14-41.47zM639.18 594.31l.02 10-.14-4.52.12-5.48zM634.84 428.28c.36-13 .44 1.89.38 12.1-.22.67-.52-1.49-.38-12.1zM637.44 491.36l.13 19.67-.1-6.31-.03-13.36zM645.86 341.64c-.1-29 .4-41.21.81-53.29.19-2.48.37 5.06.53 10.13s.32 7.64.47-5.15c0 10.61 0 30.78.07 51.16s-.13 41.17-.54 52.5c0 .61-.05 1.17-.07 1.68s0 .79-.07 1.12c0 .67-.09 1.17-.14 1.53-.08.71-.17.81-.25.4a24 24 0 01-.24-2.69v-1.17c0-.42 0-1.11-.06-1.72 0-1.21-.06-2.56-.09-4-.28-11.77-.45-30.92-.42-50.5zM582 329.91c10.25-9.92-23.58 25.1-6.21 7.64-9.79 10.7-21.41 22.9-33.84 36l-16.59 17.58c-5.24 5.6-10.49 11.28-15.61 17 2-2.5-4 3.56-10.49 10.29-3.23 3.36-6.58 6.89-9.1 9.6l-3 3.32a6 6 0 00-1.08 1.36c-2.78 2.56-5.87 5.5-9 8.54l-4.75 4.59c-1.15 1.1-2.3 2.19-3.42 3.24-4.28 4-7.91 7.37-9.59 8.46l12.7-14.21c5.39-6 7.78-8.85.37-1.57 14-14.59 37.91-39.84 35-37.59l35.2-36.16c12.83-13.17 25.14-25.75 39.53-40.32 3.42-3.35-.35 1.1-1.23 2.47s1.08-.26 15.62-15.43c-5.7 6-9.08 9.28-14.51 15.19zM669.65 911.13c.4-12.89.48-15.35 1-32 .64-.51.48 25.18 1.13 24.63V939.86c-.07 0-.25.09-.63.56a2.18 2.18 0 01-.92.58c-.35.05-.43-.45-.45-1v-13.93c-.07-5.4-.1-10.56-.13-14.94zM457.1 462.99l5.59-6.09-3.73 4.25-1.86 1.84zM660.9 487.33c.27-9.05.34-11.48.56-18.78.61 4.61 1.18 7.67 1.22 42.78-.15 10.52 0 30.19-.48 36.81-.3-.61-.76 6-1-3.37-.2-19.38-.56-38.16-.3-57.44zM651.26 238.9c-9 10.21-34.83 37.28-51 54.67-21.86 22.35-35.64 36.83-46.73 47.55-21.94 21.41 47.76-51.12 59.47-64.53 17.67-17.75 35.51-35.44 42-41.48zM271.42 568.75c-.09.29-.17.55-.22-1l.24-7.54c.05 4.88.02 6.67-.02 8.54zM669.84 600.45c.17-19 .78-36.12 1.21-19.22.45 8.5.36 27.24.43 42-.2 20.89-.84 24.78-1.28 19.55-.2-12.67-.62-26.25-.36-42.33zM261.86 447.63l-.37 9.62zM257.05 342.53c-.12-5.43-.26-11.62-.46-19.94s-.22-18.7-.09-32.08c.12-28.52.71-8.89 1-12.06 0 10.76-.05 25-.08 37.48s-.07 23.17-.37 26.6zM975.05 776.16c-.38-12.15-.58-28.18-1.2-32.77.2-9 .68-5.68.52-20.16-.18-22.72-.38-49.36-.55-71.94-18.9.19-35 .47-44.51 1 2.07-.2 8.87-.38 14.29-.59s9.44-.43 5.64-.7l-30.34-.21-31.63.05c19.26-.22-10.24-.54-10.84-.71-11-.17-22.42-.18-34.2-.12-.09-11.44-.17-23-.25-33.87-.08-13.15-.12-25.58 0-36.48 0 10.12.12 25.05.19 39.51.06 12.18.14 23.91.38 30.53 2.69-.08 4.63-.18 5.8-.31a46.83 46.83 0 00-5.1-.39c.25-5.65.4-14.23.53-22.58.15-9.46.31-18.77.4-24.23v18.88c.34-2.25.74.84 1.1.78.35-.48.65-1.29.78-21 .17 1.41.34 3.9.51 7.28.14 3 .31 6.86.52 11.31.34 7 .68 15.66 1 24.78l26.21-.88 36.07-.81 72.13.16c-.09 27.85-.18 55.84-.27 83.65.13 1.22.31 4 .48 3.36-1 22-1.85 78.5-1.85 112-.52 16.91-.31-22.43-.92-8.61-.52-1.45-.74 19.32-1.1 29-1.28-14-2-18.3-3.23-22.37 1.03-23.8-1.03-41.83-.56-63.56zM270.55 789.58c-.13-1.21-.13 2-.17 3.93l1.62 44.78-.34 1.21c.33 37.23.54 61.75.92 104.11-.06 14.16-.18 26.76-.35 38.14l-28.4-.49-26.62-.55-27.34-.5-28.68-.34c-6.52-.4-2.66-.43 4.36-.41h12.09c4.39 0 9 0 12.36-.15-2.14-.12 0-.35-.12-.51a9.68 9.68 0 00-2.71-.17H183l-6.6.07 9.76-.33 6.54-.33c3.83-.22 7.25-.45 14.05-.66l-17.79-.3 29.48-.44c8.23-.15 15-.35 17.67-.74l-5-.07h-15.14c-6.36 0-12.57.07-20-.13l20.15.1 18.61-.06 31.19-.32c-.09-10.67-.14-21.59 0-34l-.54 5.72c.06-5.06.12-9.59.17-13.91.09-4.71.17-9.18.25-13.74.16-9.14.25-18.65 0-31.19l-.29 2.71c.42-38.46 1.27-63.14 1.83-100.21 1.01-42.26 2.07-10.66 3.21-1.22zM274.59 271.2c-8.61-9.17-11.06-12.05-11.8-13.07 6.51 6.24 21.46 21.92 32.21 33.51 8.06 9.04-8.89-8.35-20.41-20.44zM255 333.7c0 12.23-.21 3.28-.29 3.49-.19-8.92 0-28.95.26-22.72.2 4.25.08 11.85.03 19.23zM261.58 703.31l.18 6.07zM262.37 769.25c-.41 4.8-.41-13.6-.27-24.24.19 6.07.34 13.99.27 24.24z"/>
    <path class="cls-1" d="M192.3 980.01l-1.49.04-12.62-.27 1.47-.05 12.64.28zM264.53 922.64l.72-22.62-.43 19.97-.29 2.65zM140 968.91c.08-3.55.29-2.81.39 3.17-.16 5.18-.39 3.15-.39-3.17zM141.58 965.69l.07-20.22zM143.3 968.1c.4 2.87.06-11.9.09-16.36.42 8.35.24 15.88.14 25.31 5.81.07 12.46.1 20.49-.07-5.81.14-13.12.33-20.77.35-.01-3 0-6.11.05-9.23zM212.87 93c9.24.15 19.16.2 29.28.21h28.03c.17 0 .38-.06.51.06l.37.39 3 3.08 21.28 22.15c6.27 6.58 12 12.66 16.88 18-1.75-1.71-8.25-8.55-6.08-6 35.58 36.75 14.43 17.11 49.86 53.68l-14.23-14.45c1.71 2.43 11 12.2 19.57 21.4-4.55-4.7-10.43-11.13-15.73-16.45 4.7 5.8-2.62-1-8.29-6.27-.1-.2-1.12-1.31-3.05-3.43-10.16-9.79-14.35-13.82-34.28-34.31-.53-.2 6.09 6.86 10.72 11.73-5.44-6-12.62-13.65-20.71-22.15l-12.74-13.32-6.72-7-1.71-1.77c-.15-.12-.25-.37-.45-.37h-6.81c-26.4.07-53.09.08-71.61-.6-25.34.4-30.43-.51-47-.79l-6.69-.13c-.28 13.82-.62 13.39-1.07 11-.22-3.74-.45-7.84-.67-12.75 8-.42 18.08-.82 31.51-1.16l21.67-.46zM248.85 549.59c-.14 13.92-.49 11.76-.76 9.34-.24-14.24 0-26.91.32-32.93.3.61.38 15.41.44 23.59zM138.6 716.77l-.21-16zM256.68 894.52l-.07 3.59V886.3c.14 1.21.07 4.85.07 8.22zM256.22 937.94l-.08.39.23-10.89c.06 4.86-.11 8.75-.15 10.5zM254.34 922.74l-.19 25.38c-.07-1.8-.13-3.28-.18-4.52 0-.61-.06-1.16-.09-1.67 0-.9-.06-1.71-.08-2.44-.11-3.06-.21-4.86-.31-6.49-.21-3.26-.43-5.86-.75-16.49.27-12.65-.09-36.52.57-52.19.2-5.8.8-4.43 1 6.4.13 18.18.9 55.73.03 52.02zM349.13 173.78l-4.43-4.48 2.56 2.53 1.87 1.95z"/>
    <path class="cls-1" d="M254.6 925.18l.04-1.76.14 4.51-.18-2.75zM583.99 102.55l-8.7 9.4 6.38-6.96 2.32-2.44zM252.28 886.3l-.06 10.26zM344.49 171.33L361 188.57zM383.91 211.44l-8.25-8.55 2.66 2.73 5.59 5.82zM411.12 239.53c3.77 4 .28.48-1.45-1.22-1.1-1.31-3.06-3.44 1.45 1.22zM353.81 185.18a78.11 78.11 0 01-5.74-6.19c2.7 2.76 2.93 3.18 5.74 6.19zM339.61 172.45c-7.68-8.3-18.17-18.75-20.39-21.36 7.32 7.53 18.53 18.57 20.39 21.36zM401.44 232.21l13.11 13.88zM365.63 197.34l-5.95-5.75-3.92-4.28 6.92 6.81 2.95 3.22zM200.8 961.16c-15.4-.57 24.53-.66 22.71-.23-4.27.23-13.92.34-22.71.23zM171.11 961.93c-.28-.21 2.48-.29 5.16-.27l4.79.1c1.91 0 3 .12 2.47.21l-7.89.08c-1.64.01-3.16-.05-4.53-.12zM182.8 959.82c.32-.39 9.62-.1 16.62 0-6.64-.02-7.3.28-16.62 0zM190.43 955.25c10.57-.09 16-.35 21.79-.54 2.92-.1 5.95-.17 9.8-.2h10.26l1.37.06c-.48 0-.87.1-1.49.15l-4.84.14-10.69.19c-7.63.12-16.23.18-26.2.2zM199.31 954.41c2 .13 3.65-.4 9.61-.11zM180.5 954.8l9.64-.11-6.34.1-3.3.01zM176.78 954.39l2-.1 6.32-.1-5.41.12c-1.18 0-1.1 0-1.45.06l-.84.06zM165.65 891.31c.25-4.26.4 7 .15 11.23-.13-1.23-.1-6.42-.15-11.23zM624.12 108.81l12-11.84c-7.26 8.5-32.28 34.41-39.93 42.08-5.39 4.76 17.52-19.35 27.93-30.24zM374.17 229.67c-.81-.54-7.82-8-13.68-14.14-8.56-9.37 12.66 12.2 13.68 14.14zM558.36 191.25l-12.28 12.54 12.76-13.36-.48.82z"/>
  </g>
  <g class="cls-3">
    <path class="cls-1" d="M1524.13 637.05c-3 1.83.59-1.48-3.77 1.59.85-1.22 4.93-4.94 8.81-7.79l3.6-2.19c-3.06 2.92-4.27 4.96-8.64 8.39zM1599.54 550.71c-1.46 1-1.33.45-1.32.17a24.24 24.24 0 013.76-2.58c.6-.09-1.18 1.37-2.44 2.41zM1536 604.2c-2.49 1.52-5.44 3.77-8.26 5.5-2 .22 2.77-4.64 8.38-9.53a24.38 24.38 0 014.93-3.38c1.81-.27 4.38-1.2.44 2.77-.57 1.55-6.49 4.32-5.49 4.64zM1576.86 558.29l-.34.76c-1.46 1-1.2-.09-3.5 1.5l-3.21 3.34c-2.3 1.59-1 .24-1 0-8 6.45-11.22 8-19.85 14.88l2-2.54c-2.49 1.52-6.08 4.45-8 5.55 5.39-4.94-3.17 1-3.75.55a38.82 38.82 0 015.56-6.06 90.23 90.23 0 01-8 4.7l3.26-2.45c.55-1-1.11-.06-3.52 1.78 2.93-2.25.78-1.49 1.63-2.37-5.35 3.81-9.9 8.15-16.05 12-2.92 1.69-3.3 1.27-5.14 1.85 4.73-3.72 7.1-6.73 10-9 3.11-1.62 10.38-7.44 11.25-6.86a46.59 46.59 0 005-4.8c-1.66.64-5.78 4.26-7.43 4.9 5.7-4.86 8.44-6.9 14.35-11.7l-1.34.45c6.67-4.26 16.62-13.27 20.59-15.78 7.19-4.39 14.34-8.2 16.56-8.36-5.38 4.66 1.07.91.82 1.7-1.69 1.5-4.82 3.41-3.92 3.41 3.53-1.78 5.5-4.65 7.41-4.61-5.2 5-.9 3.76-2.23 6-.92 2-9.36 7.18-7.66 7.43 4.2-3.29.4.13 1.53-.38a27.85 27.85 0 01-5.02 4.11zM1479.14 633.38c-2.53 1.82-2 .82-2.78 1.14-1.63.35 4.24-4.15 6.88-6.22 2.92-2 3.53-1.78 3.49-1.21-.26 1.08-5.07 4.48-7.59 6.29zM1508.07 599.36a54.84 54.84 0 01-6.26 4.09c-.38-.41-.77-.82 1.58-3 3.89-3.11 6.42-5.48 9.86-7.3 3.75-2 .59 1.94-5.18 6.21zM1403.26 703c-7.14 5.56-5.61 3.15-7.77 3.91 7.83-6.8-5 2.2 1.82-3.77a40.08 40.08 0 015.87-4.24c-2.92 3.72 12.22-8 8.45-3.67-.36.99-5.2 4.96-8.37 7.77zM1438.5 666c-2.62 1.78-4.36 2.38-3.39 1.24.54-1 4.33-3.85 6.54-5.47 2.61-1.77 4.36-2.38 2.86-.82a55.38 55.38 0 01-6.01 5.05zM1452.81 649.08c-1.57.95-.71.06-1.54.39.87-1.19 3.8-3.15 5.38-4.39l2.37-1a59.79 59.79 0 01-6.21 5zM1429.36 670.93c-1.44.7-2.36 1-2 .22 2.73-2.31 5.51-4.93 8.29-6.35 2.2-1.34.92 0 1.41.15a73.2 73.2 0 01-7.7 5.98zM1444 653.82a81.28 81.28 0 00-7.33 5.48c-.7-.21-5.83 3.37-7.59 4.27 4.42-3.53 1-2 2-3.43 4.45-4.09 13.81-11.28 18.77-13.75-.47 1.3 6-2.17-1.4 3.61-1.83 1.47-4.02 3.09-4.45 3.82zM1475.72 618.36l-9.76 7c-3.4 1.53-.26-2.41-2.13-1.55 3.5-3 11.87-8.72 11.2-9.5a97.46 97.46 0 0113-9.5c4.63-1.72-11.79 11.34-5 7.71a37.69 37.69 0 00-7.31 5.84zM1420.31 676.45a64.26 64.26 0 01-6.14 3.57c1.91-1.73 2.77-2.9 4.59-4.65 2.7-1.74 7-4.73 7.68-4.5.29.38-3 3.39-6.13 5.58zM1399.33 691.83c-1.52.09 4.05-4 6.48-6.35a46.45 46.45 0 015.33-3.53c1-.25.88.29-1.12 2.25-4.02 3.37-6.69 4.54-10.69 7.63zM1359.61 729.68c-3.66 2.6-2.06.79-2.46.67a46.28 46.28 0 016.32-5c4.07-2.44 1.27.74-3.86 4.33zM1369.6 707c-2.09 1.37-1.31-.12 1.74-2.35l3.21-1.59a49.21 49.21 0 01-4.95 3.94zM1199.06 615.25c0-.66.08-.73.17-.79l-.11 1.76c-.12.06-.01-.65-.06-.97zM1230.78 807.24c.7-4.59 2.35-5.23 1.91-14.49a110.79 110.79 0 01-.27-14.9c.16-5.16.4-10.37.24-15.84.44.86 1-2.66.9-8.77a22.05 22.05 0 00-.34-4.59c.41-1.28 1.73.1 2.36-5.81 1 2.69 2.27 7.14 2.88 7 .28-1.37-.2-2.53.17-4-.15 6.09.49 13.21.74 19.57l.29-1.49c.61 4.73.22 12.33 0 17.51 0 3.06.54 1.58.64 2.69-.07 1.47-1.35 4.2-1.19 10.71l.7 3.42c-.47.84-.79-3.91-1.26.67-.15 3.12-.2 6-.31 7.38-.43-.83-.83 2-1.23 4.85s-.81 5.61-1.26 4.26c-.21-7.21-1-1.4-1.49 1l.47-5.79c-.85 3-1.32-.39-1.91-3.25l.27-3.42c-.33-2.72-.75-1.68-1.16 0s-.81 3.91-1.15 3.29z"/>
    <path class="cls-1" d="M1232.2 809.37v.32l-.58 3.06a14 14 0 01.58-3.38zM1236.6 817.62c0-.14-.79.35.14-.54.82-.49 1.66-.98-.14.54zM1417.93 647.82c.89-1.46 3.46-2.66 5.14-3.87-1.28 1.33-4.13 3.62-5.14 3.87zM1237.59 810.16l.08-.9v2.06c-.06.23-.07-.47-.08-1.16zM1232.07 754.87c0 1.13.4 1.45.15 2.6-.22-.09-.15-1.79-.15-2.6zM1231.52 729.33c0-.44.12-1.33.17-.94l-.11 2.11c-.09.08-.05-.38-.06-1.17zM1235.39 733.34l.08-.8v2.93a10.18 10.18 0 01-.08-2.13zM1237.2 698.9c-.8-2.13.15-9.53-.34-14.59 0 1 .86 3.78.89-.95.13-4.13-.54-2.32-.14-5.29 0 4.37.8 6.5 1.1 6V680c.42 7.13 1.07 15.1.42 21.95-.59 5.46-1-.68-1.6 3.13.47-4.08-.53-3.32-.33-6.18zM1247.19 755.25c0-2 .44-3 .63-1.67.18 3.24-.44 5.53-.63 1.67zM1233.75 668.27c.07-1.38.13-4.11.49-3a12.94 12.94 0 01-.24 5.23 9.45 9.45 0 00-.25-2.23zM1242.58 578.23c-.83-1.09-.79-13.25-2-14.41.32 2.11 1-.06.94 3.71-.44-4.75 1-9.47.67-17.3.9-.3 1.42 0 2.47-2.41.12 3.95.51 7.73 1 8.72l.11-1.76c.12 7-.1 10.51.8 13.94l.16-.8c-.31 2.91-.38-.08-.84 1.26.19 1.89-.24 5.23.15 6-.51 4.06-1.26 6.61-1.45 12.79-.12-10.37-2.29-.44-2.01-9.74zM1246.24 594.23c.22.19.49 1.35.34 3.46-.15 1.46-.41 1.64-.59.42a23.23 23.23 0 01.25-3.88zM1241.98 547.66l-.08 1.4-.18-1.22.26-.18zM1245.88 547.3l-.02 1.71-.05-.98.07-.73zM1244.45 519.31c.14-2.78.57 1.3.74.53-.19.46-.49-.69-.74-.53zM1247.12 526.91c-.19-1.22-.48 0-.68 1.13.49-6.08-.67-6.26-1-8.7.46-8.08-.19-16.72-.13-26.19-.13-.24-.16.79-.2 1.14.91-2.66.82-10.68 1.28-16.37.19 5.58.63-.8.83-2.61-.51-2.68-.49-8.76-.48-11.79l.32 5.83c.44.37.82 3.48 1.22 1.17a21.71 21.71 0 01.08-4.43 30.66 30.66 0 01.17 3.58c.64-.11.91-3.31 1-7.07a50 50 0 002.39 13.14l.31-2.89c-.41 1.62 0 6.36-.07 8.8 1.09 1.6.25 14.64 1.18 17.7-.84 5-.43 10.74-.7 17.67h.09c-.46 12.46-2.26 13-3.06 22-.5-5.72-1.34-.74-1.89-7.44l-.75 2.53c-.21-2.96.56-3.49.09-7.2zM1244.7 495.57l-.2-1.89zM1244.31 488.08l-.42-2.74zM1271.68 649.65l-.05-.31.35-3.27.05.3-.35 3.28zM1268.39 625c.12-.41.35.44.45 1.71-.15 2.1-.44-.41-.45-1.71zM1244.16 455.52l-.16-2.25zM1246.42 450.56c.28 1.84-.1 6.14.14 8.34.01-3.06-.45-5.41-.14-8.34zM1247.76 458.73l.02 2.01-.14-.91.12-1.1zM1243.43 425.35c.36-2.61.43.38.37 2.43-.17.13-.52-.3-.37-2.43zM1246.02 438.03l.13 3.95-.1-1.26-.03-2.69zM1254.44 410.94a23.63 23.63 0 01.82-7.63c.38-.61.7 4.57 1 1 0 3 .34 11.55-.48 14.82s-1.4-2.41-1.34-8.19zM1252.29 384.48c-.57 2.41-.27-5.53-.79-1.46-.61-4.64-.08-11.07-.92-17.22.57 1.28.65-6.86.18-6.86 1-3 1.29-7.64 2.22-9 .42 2.76.76 9.93 1.44 5.76 0 4.06.08 11 .63 10.32-.47 7.43-.63 11.91-1.34 18.47-.32 1.57-1.37-3.43-1.46 3.37-.02-1.32.14-2.11.04-3.38zM1278.23 522.43c.36-2.59.57-3.09 1-6.43.64-.1.48 5.07 1.12 5 0 7 .13 10.69-.65 14.27-.33.89-.61-.93-.91-1.06-.71-2.21-.3-8.21-.56-11.78zM1250.73 348.84l.16 2.26-.24-1.53.08-.73zM1269.49 437.22c.19-1.82.4-2.31.55-3.78.62.93 1.18 1.54 1.22 8.6-.15 2.12 0 6.08-.47 7.41-.31-.13-.77 1.2-1-.68a94.94 94.94 0 01-.3-11.55zM1265 397.87c-.54-1.65-.55-6.69-.84-9.85.38-4.3.35-7 1-9.09 1.07-4.14.75 9.23 1.55 11.38a53.41 53.41 0 01-1.76 8.3zM1261 284.62c.09.17.17.34 0 .24l-1.28-1.28a8.68 8.68 0 011.28 1.04zM1278.43 460c.17-3.82.78-7.26 1.2-3.86.45 1.71.36 5.48.44 8.45-.21 4.2-.85 5-1.29 3.93a48.6 48.6 0 01-.35-8.52zM1251.64 289.51l1.46 1.58zM1255.57 308.56a17.21 17.21 0 01.56 5.3c-.13 2.29-.72-.09-1-.19.17-1.67-.13-5.4.44-5.11zM1320.58 739.88c-1.71 1.78-4.14 3.9-4.5 5-1.55.95-1.32.16-3.53 2.06l-9.17 7.64c-.71.6-1.52 1.29-2.06 1.78s-1.12 1-1.62 1.52a20.22 20.22 0 00-2.38 2.67c.36-.77 3-3.24 1.76-3a92.5 92.5 0 00-8.11 6c2.53-2.21-1.55.52-1.66.38a85.84 85.84 0 00-8.14 6.25c-2.74 2.27-5.44 4.55-7.61 6 3.25-2.83 10-7.76 11.09-9.61-.93-.35-6 3.46-7.84 4.34 0-.08 1.69-1.22 2.52-1.88-.65-.35 2-3.55-2.47-.48.7-1.34 3.15-4 5.88-6.95l8-8.43 17.49-12.87c.12-.25.45-.73.25-.79 4.13-1.88 13.64-8.14 19-12.24 3-1.65-3.39 3-.82 1.79.09.59 3.53-1.79 5.3-2.68-1.46 2.73-1.72 3.81-1.61 5.3-4.35 2.06-6.02 5.91-9.77 8.2zM1294.59 311.5c-.23 0 .26.35.53.61l7.58 3.84v.43c6.06 4.17 10.17 7.08 17.12 12 9.88 7.89 14.32 13.31 22.86 20.36 1.83 2.38-2.69-1.92-5.12-3.25.54.72-1.92-.31 1.84 2.18-3-1.73-3.26-1.37-5.68-2.7l2.65 2.42c-3.77-2.39-6.71-4.65-8.36-4.92 2.4 2.17 4.3 3 6.42 5.13-6.4-5.43-12.07-8.45-19-14.19l.77 1.28c-3.46-2.76-5-5-9.32-7.68l.25.56c-1.47-1.26-2.79-2.44-4-3.57l-1.8-1.67-1.48-1.45c-1.9-1.88-3.82-3.8-6.26-6-2.72-2.75-3-3.63-2.28-3.77s2.36.4 3.28.39zM1259.8 323.83c.11-.76.32-.72.49-.57a6.61 6.61 0 01.16 3.46c-.45.36-.67-1.72-.65-2.89zM1257.6 312.39c0-.92.21.07.3.18.18 1 0 2.28-.27 1.37a4.06 4.06 0 01-.03-1.55zM1281.34 312.63l.71.31zM1289.16 317.63c.43.86-1.71-.78-2.92-1.9a12.87 12.87 0 012.92 1.9z"/>
    <path class="cls-1" d="M1337.61 344.62l.26.15 1.86 1.76-.27-.14-1.85-1.77zM1311.6 332.13l-3.17-3.34 2.93 2.78.24.56zM1348.59 352.26c.54.51.26.57-.82-.13-.77-.75-.24-.66.82.13zM1348 353.83l3.48 2.77zM1346.27 354.71c-.82-.13 2.15 1.71 2.93 2.36-3-1.42-4.52-3.76-8.56-6.3a37.73 37.73 0 015.63 3.94zM1504.09 462.22c5.53 5 13.72 10.1 18 14-.43-.24-1.93-1.4-1.52-.83 8.36 6 2.72 3.87 11.06 9.82l-3.43-2.22c.2.71 2.32 2.38 4.24 4-1.07-.76-2.35-2-3.64-2.77.82 1.38-1.14.65-2.65.07 0-.08-.22-.29-.64-.69a48.2 48.2 0 01-8.41-5.05c-.23.12 1.27 1.38 2.33 2.21-4.64-4.68-16.7-12.16-21.77-17.76-4.29-2.79-4.45-4.07-6.79-6.21-3-2.66-2.74-2.95-2.07-3.1 3.2 1.21 7.57 3.17 15.29 8.53zM1270.91 320.68c1 .93 1 1.4 1 1.72a6.26 6.26 0 01-2.26-2.12c-.15-.51.76.09 1.26.4zM1389.85 382.2l2.68 1.79zM1302.34 334.91l.52.5L1301 334a6.09 6.09 0 011.34.91zM1309 340.59v.11l-1.6-1.51a10.34 10.34 0 011.6 1.4zM1305.42 340.22l4.79 3.92c-4.57-2.84-3-1.32-6.77-3.41-1.85-1.76-5.87-4.4-8-6.84-.81-.86-.22-1.18 1.65 0 2.98 2.11 9.45 6.11 8.33 6.33zM1531.1 481.76l-1.08-.68.64.36.44.32z"/>
    <path class="cls-1" d="M1305.96 340.31l-.25-.25.8.45-.55-.2zM1608.33 507.19l-2.17-1.4 1.63 1 .54.4zM1298.35 337.4l1.6 1.3zM1529.29 482.47l3.85 2.88zM1538.76 488.7l-1.93-1.4.63.43 1.3.97zM1545.18 493.25c.85.72 0 .18-.43-.06-.21-.29-.64-.69.43.06zM1530.2 486.72c-.64-.18-.85-.73-1.27-1.13a14.33 14.33 0 011.27 1.13zM1526.27 485.57c-1.7-1.52-4.29-3-4.72-3.61 1.74 1.21 4.54 2.75 4.72 3.61zM1542.08 493.34l3 2.41zM1532.99 488.68l-1.51-.75-.85-.81 1.72.95.64.61zM1324.78 358.54c2.11 2.33-4.32-2.48-3.76-2.6a18.07 18.07 0 013.76 2.6zM1331.23 362.52c0 .52-3.76-2.5-3.2-2.51a20 20 0 013.2 2.51zM1326.84 361.8c-.29.27-1.6-1.09-2.68-2a12.33 12.33 0 012.68 2zM1322.84 364.5c-3.49-2.45-4.07-1.82-7.79-5.14a54.33 54.33 0 017.79 5.14zM1320.91 364.07c-.25-.34-.82-.13-1.6-1.08zM1324.15 366.07l-1.61-1.09 1.08.69.53.4zM1325.2 367.39l-2.15-1.39 1.87 1.13.28.26zM1345.54 382.31c.53.72-1.36-.53-1.89-1.25a11.69 11.69 0 011.89 1.25zM1591.73 536.49l2.38 2.48c-2.17-.87-7.78-5.45-9.36-7-.75-1.34 4.58 2.68 6.98 4.52zM1527.84 505.07c-.28.06-1.87-1.24-3.21-2.3-1.86-1.77 3.24 1.57 3.21 2.3zM1569.28 531.06l-2.67-2.32 2.95 2.26-.28.06z"/>
  </g>
  <path class="cls-2" d="M1745.84 499.46L1686 453.55l-446.27-357h-135.79l1 66.54V914l-1 66.54h135.74l446.27-357 59.82-45.87 49.23-39.06zm-506.13 311.11V266.43l354.76 272.07z"/>
  <g class="cls-3">
    <path class="cls-1" d="M1204.32 694.79c.37-3.5.81 1.37 1-4 .45 1.41.93 6.92.82 11.73l-.45 4.19c-.43-4.16-1.31-6.36-1.37-11.92zM1226.94 807.17c.11-1.76.45-1.33.67-1.15a24 24 0 01-.25 4.55c-.29.54-.36-1.77-.42-3.4zM1223.16 724.21c.31-2.9.31-6.61.66-9.9 1-1.73 2 5 2.46 12.45a24 24 0 01-.32 6c-.88 1.6-1.71 4.2-2.46-1.33-.88-1.43.5-7.82-.34-7.22zM1234.72 784.56l-.39-.73c.1-1.76.8-.9.94-3.69l-.69-4.58c.14-2.79.41-.95.63-.76-.24-10.26.45-13.8.28-24.81l.77 3.18c.31-2.9.17-7.53.49-9.76.64 7.28 1.12-3.14 1.85-3.31a38.29 38.29 0 011.42 8.1 89.54 89.54 0 011.15-9.22v4.07c.44 1 .72-.84.73-3.88 0 3.71.7 1.53.89 2.75.22-6.57-.45-12.83.25-20 .43-3.35 1-3.4 1.66-5.21.06 6 1 9.73 1 13.45-.61 3.45-.42 12.76-1.4 13.1a45.58 45.58 0 00.76 6.88c.5-1.7.14-7.17.63-8.87.39 7.48.34 10.89.56 18.5l.45-1.33c-.68 7.88.42 21.26 0 26-.89 8.37-2.23 16.36-3.45 18.22-.42-7.11-1.37.3-1.85-.38-.16-2.25.23-5.9-.32-5.19-.73 3.89.34 7.2-.85 8.69-.81-7.19-2.44-3-3.37-5.4-1-2 0-11.8-1.24-10.6.06 5.33-.34.24-.62 1.45a27.83 27.83 0 01-.28-6.67zM1234.61 661.32c.1-3.11.54-2.05.79-2.9.71-1.5.71 5.89.74 9.25-.21 3.52-.72 3.88-1.16 3.5-.7-.86-.46-6.75-.37-9.85zM1244 705a53.17 53.17 0 01.56-7.45c.55-.06 1.11-.11 1.41 3.07.1 5 .44 8.43-.21 12.26-.67 4.17-1.89-.72-1.76-7.88zM1225.58 558.78c-.06-9.06.92-6.37 1.63-8.55.63 10.35 1.27-5.27 1.89 3.74a39.71 39.71 0 01-.22 7.24c-1.17-4.59-1.08 14.56-2.22 8.94-.61-.92-.81-7.15-1.08-11.37zM1233.46 609.22c.18-3.16.76-4.91 1.08-3.44.44 1 .41 5.77.36 8.51-.18 3.16-.76 4.92-1.09 2.78a55.19 55.19 0 01-.35-7.85zM1238.18 630.87c.2-1.82.38-.6.63-1.45.4 1.41.18 4.93.21 6.94l-.66 2.48a58.46 58.46 0 01-.18-7.97zM1235.11 599c.33-1.57.66-2.46 1.06-1.74.17 3.58.55 7.37 0 10.45-.28 2.56-.55.73-1 1a73.22 73.22 0 01-.06-9.71zM1239.79 621a83 83 0 00.11-9.16c.6-.42.87-6.68 1.23-8.62.11 5.66 1 2 1.51 3.68.54 6 .54 17.81-.51 23.26-.75-1.16-1.91 6-2-3.31-.13-2.34-.03-5.06-.34-5.85zM1248.61 667.76l.34-12c.86-3.63 2.08 1.26 2.53-.75.22 4.58-.31 14.72.72 14.66a97.61 97.61 0 01-.37 16.11c-1.45 4.71-1.82-16.26-3.11-8.62a37.41 37.41 0 00-.11-9.4zM1236.24 588.43a60.76 60.76 0 01.91-7c.2 2.56.6 4 .89 6.47-.27 3.2-.51 8.43-1.11 8.83-.47-.04-.86-4.48-.69-8.3zM1236.8 562.42c.85-1.26.67 5.62 1.1 9a46.28 46.28 0 01-.45 6.37c-.42 1-.77.52-1.1-2.26-.23-5.22.47-8.06.45-13.11zM1230.94 507.87c.17-4.48.62-2.11 1-2.36a45 45 0 01.09 8c-.54 4.78-1.36.62-1.09-5.64zM1242.84 529.59c.18-2.49.89-1 .8 2.81l-.69 3.51a50.61 50.61 0 01-.11-6.32zM1342.41 294c.54.4.54.51.53.61l-1.33-1.15c0-.15.52.35.8.54zM1230.78 345.28c.7-3.42 2.35-1.31 1.91-11.31a121 121 0 01-.27-15.35c.16-4.91.4-9.71.24-15.45.44 1.6 1-1 .9-7.25a32.26 32.26 0 00-.34-5.17c.41-.59 1.73 3 2.36-1.88 1 4.31 2.27 10.94 2.88 11.85.28-.9-.2-2.87.17-3.73-.15 5.84.49 14 .74 20.8l.29-1c.61 5.76.22 12.71 0 17.56 0 3 .54 2.47.64 3.75-.07 1.36-1.35 2-1.19 8.73l.7 4.59c-.47 0-.79-5.19-1.26-1.47-.15 2.8-.2 5.52-.31 6.62-.86-3.12-1.59 8.18-2.49 4.08-.21-6.93-1-3-1.49-1.66l.47-4.37c-.85 1.27-1.32-2.45-1.91-5.74l.27-2.95c-.33-3.29-.75-2.93-1.16-2s-.81 2.53-1.15 1.35z"/>
    <path class="cls-1" d="M1232.2 349.64v.33l-.58 1.73c.07-1.7.38-1.26.58-2.06zM1236 364.17c.09-.05.2-1.14.34-.23-.09 1.06-.21 2.19-.34.23zM1260.4 604c.62 1.6 0 4.37-.05 6.44-.28-1.87-.35-5.52.05-6.44zM1237.59 359l.08-.72v2c-.06.1-.07-.58-.08-1.28zM1232.07 295.05c0 1.22.4 2.12.15 2.86a11.38 11.38 0 01-.15-2.86zM1231.52 268.6c0-.37.12-1.13.17-.67l-.11 1.93c-.09-.06-.05-.45-.06-1.26zM1235.39 279.06l.08-.67v3a13.25 13.25 0 01-.08-2.33zM1249.5 270.76c1.28 0 8.13 6.43 12.15 8.9-.91-.74-2.78-1.05 1.18 2 3.47 2.82 1.73.65 4.35 3.16-3.67-2.81-5.09-2.89-4.51-2.08l3.32 2.6c-5.7-3.83-11.53-7.49-17.5-12.89-4.9-4.49-.19-1.34-3.85-5 3.67 3.4 2.27 1.04 4.86 3.31zM1247.19 320.64c0-1.92.44-2.31.63-.62.18 3.54-.44 4.79-.63.62zM1274.9 285.91c1.27 1 3.75 3 2.79 2.74a19.15 19.15 0 01-4.75-3.94 9.78 9.78 0 001.96 1.2zM1345.31 351c1.37 0 11 7.44 12.66 7.18-1.88-1-.58.86-3.52-1.51 4 2.54 6.9 6.57 13.32 11.06-.31.89-.87 1.11.41 3.42-3.21-2.3-6.45-4.29-7.56-4.48l1.34 1.16c-5.63-4.16-8.28-6.47-11.55-7.85l.53.62c-2.12-2 .3-.26-.48-1.44-1.62-1-4-3.37-4.83-3.51-2.91-2.87-4.47-5-9.27-8.93 8.3 6.18 1.73-1.58 8.95 4.28zM1330.38 344.19c-.28.06-1.37-.43-3-1.83-1.06-1-1-1.32 0-.73a23.38 23.38 0 013 2.56zM1369.93 369.15l-1.07-.91 1.08.6-.01.31zM1367.84 372.47l-1.34-1.06.8.55.54.51zM1390.92 388.36c2.13 1.81-1.38-.33-.87.27-.23-.45.84.03.87-.27zM1383.27 385.86c1.08.59.3-.37-.49-1.23 4.53 4.09 5.38 3.28 7.54 4.46 6.13 5.29 13.39 10 20.86 15.85.27 0-.52-.61-.78-.86 1.55 2.34 8 7.16 12.22 11-4.55-3.24.24 1 1.56 2.24 2.43 1.24 7.25 4.95 9.64 6.8l-4.82-3.29c-.56.12-3.26-1.48-1.67.25a21.39 21.39 0 013.46 2.76 30.43 30.43 0 01-2.94-2c-.3.58 2.08 2.73 5 5.09a50.31 50.31 0 00-11.88-6.11l2.11 2c-1-1.31-5.07-3.85-6.95-5.41-1.93-.11-11.76-8.71-14.77-9.83-3.42-3.7-8.25-6.88-13.59-11.31v.1c-9.6-7.95-9-9.72-15.59-15.82 4.84 3.09 1.4-.61 7 3l-1.55-2.13c2.46 1.58 2.37 2.58 5.64 4.44zM1409.61 403l1.62 1zM1415.79 407.26l2.43 1.34zM1282.52 339.54l.06-.01.45.78-.07.01-.44-.78zM1292.51 343.06c.25.35-.56 0-1.63-.68-1.6-1.38.57-.12 1.63.68zM1441.72 427l1.88 1.25zM1444.28 431.77c-1.63-.9-4.81-3.82-6.7-5 2.42 1.9 4.56 2.97 6.7 5zM1436.98 427.86l-1.61-1.21.8.45.81.76zM1466.11 444.74c1.85 1.87-.57.11-2.16-1.19.05-.21.55-.23 2.16 1.19zM1454.46 439.08l-3.22-2.31 1.07.7 2.15 1.61zM1470.83 462.24a23.59 23.59 0 015.56 5.29c.25.68-4.05-2.22-1.4.19-2.4-1.85-9.37-6.75-11.46-9.39s2.76.35 7.3 3.91zM1493.14 476.64c-1.57-1.92 4.55 3.15 1.64.26 4 2.34 8.83 6.68 14.22 9.75-1.36-.32 5 4.69 5.34 4.32 1.83 2.6 5.28 5.67 5.77 7.22-2.44-1.34-8.34-5.44-5.44-2.36-3.2-2.5-8.83-6.66-8.58-5.78-5.61-4.89-9.07-7.75-13.84-12.3-1-1.21 3.55 1-1.78-3.21 1.07.8 1.59 1.46 2.67 2.1zM1367.89 413.27c1.84 1.86 2.1 2.33 4.49 4.71-.31.57-4.32-2.7-4.62-2.12-5.62-4.26-8.56-6.41-10.93-9.2-.5-.81 1.11.07 1.4-.09 2.18.78 6.71 4.76 9.66 6.7zM1522.37 497.09l-1.89-1.25 1.35.74.54.51zM1440.82 458.19c1.33 1.26 1.59 1.72 2.66 2.74-1.11-.08-1.94 0-7.56-4.27-1.59-1.41-4.81-3.71-5.59-4.88.28-.17-.49-1.34 1.12-.34a90.9 90.9 0 019.37 6.75zM1474.78 478.57c1.63.58 5.64 3.64 8.33 5.33 3.17 2.92 5.32 4.53 6.62 6.31 2.63 3.36-7.78-5-10-5.7a54.35 54.35 0 01-5.52-6.44zM1572.24 553.67c-.14 0-.28 0-.1-.2l1.43-.8a9.38 9.38 0 01-1.33 1zM1417.34 451.44c2.92 2.46 5.29 5 2.33 3.31-1.63-.68-4.57-3.05-7-4.79-3.21-2.73-3.44-3.71-2.34-3.42a49.5 49.5 0 017.01 4.9zM1575.43 539.17l-1.7.84zM1560.48 532.42a13.1 13.1 0 01-4.22-2.54c-1.81-1.54.1-.82.18-1.13 1.33 1.25 4.29 3.12 4.04 3.67zM1246.6 470.7c-.37-2.44-.58-5.67-1.19-6.59.19-1.81.67-1.14.51-4.05-.39-7.48-.37-17.27-1.53-21.18.39.74.74 4.87 1.29 3.49.21-3.52.3-7.3.16-11.91.22 3.88.54-2 .71-2.18.51-7.77-.45-17.2-.14-23.81.27 4.85 0 15.12.88 16.9.84-1.26.92-9.39 1.32-12.37.08-.06-.06 2.73 0 4.06.67-1.15 1.62 3.26 1.88-4.34 1.28 2.14 2.64 16.7 3.74 26.38 0 8.43-.32 17-.44 25.57.13.25.31.8.48.68-1 4.42-1.84 15.78-1.85 22.52-.52 3.4-.31-4.51-.92-1.73-.52-.29-.73 3.88-1.1 5.83-1.28-2.82-2-3.68-3.23-4.5 1.03-4.78-1.04-8.4-.57-12.77zM1537.27 579.39c.11-.25-.4.15-.73.35l-6.19 6.72-.4-.12-16 13.47c-10.18 7.5-16.57 10.39-25.59 16.81-2.77 1.14 2.55-2.11 4.46-4.11-.83.33.81-1.77-2.58 1.21 2.44-2.4 2.17-2.79 4.08-4.79l-3 1.94c3.29-3 6.23-5.27 6.92-6.8-2.72 1.76-4 3.37-6.62 4.87 6.91-4.77 11.29-9.46 18.64-14.68l-1.44.42c3.56-2.63 6.13-3.56 9.84-7l-.61.1c6.39-4.37 10.85-6.72 17.1-10.81 7.33-4.35 2.93.36 2.12 2.42zM1548.22 528.35c.6.6.56.83.44.95a5.91 5.91 0 01-2.75-1.91c-.27-.72 1.36.21 2.31.96zM1557.37 532.6c.73.59-.06.22-.15.25-.77-.35-1.81-1.33-1.08-1.16a3.71 3.71 0 011.23.91zM1545.55 561.73l-.83.88zM1535.54 570.42c-1 .25 1.92-2 3.7-3.18a26.13 26.13 0 01-3.7 3.18z"/>
    <path class="cls-1" d="M1493.56 612.77l-.2.22-2.19 1.33.21-.22 2.18-1.33zM1512.38 590.89l4.04-2.19-3.44 2.1-.6.09zM1483.34 621.4c-.63.39-.62.11.34-.76.93-.57.7-.06-.34.76zM1482 620.39l-3.57 2.64zM1481.57 618.52c.34-.76-2.21 1.63-3 2.22 2.14-2.5 4.81-3.39 8.31-6.63a37.28 37.28 0 01-5.31 4.41zM1336.82 743.07c-6.27 4-13.31 10.63-18.23 13.7.35-.36 1.86-1.5 1.2-1.25-8 6.51-4.44 1.62-12.35 8.13l3-2.73c-.74 0-2.91 1.62-5 3.05 1-.84 2.52-1.76 3.62-2.8-1.55.43-.33-1.27.62-2.58.08 0 .33-.13.83-.44a48.27 48.27 0 017.06-6.81c-.06-.25-1.66.87-2.74 1.68 5.72-3.27 16.08-13 22.8-16.42 3.8-3.42 5.08-3.25 7.75-5 3.35-2.19 3.57-1.88 3.53-1.2-1.91 2.92-4.91 6.6-12.09 12.67zM1547.8 544c-1.08.65-1.34.41-1.5.2a5 5 0 012.46-1.49c.36.07-.51.83-.96 1.29zM1443.73 653.48l-2.43 2.13zM1512.09 581.23l-.62.38 1.89-1.44c-.11.26-.74.64-1.27 1.06zM1504.88 586.18h-.11l1.88-1.15a10.8 10.8 0 01-1.77 1.15zM1506.16 582.82l-5 3.62c3.92-3.68 2-2.54 5-5.65 2.18-1.34 5.77-4.54 8.67-5.94 1.05-.55 1.2.1-.38 1.62-2.83 2.29-8.35 7.53-8.29 6.35zM1310.95 764.09l.93-.87-.51.53-.42.34z"/>
    <path class="cls-1" d="M1505.93 583.33l.31-.18-.64.66.33-.48zM1266.36 832.08l1.92-1.73-1.39 1.31-.53.42zM1510.72 576.73l-1.67 1.2zM1310.73 762.16l-3.78 3zM1302.25 769.69l1.86-1.51-.58.5-1.28 1.01zM1296.19 774.71c-.91.63-.17-.05.18-.4.33-.13.83-.44-.18.4zM1306.39 761.94c.34-.58.92-.64 1.42-.94-.59.5-.75.45-1.42.94zM1308.52 758.43c1.91-1.24 4-3.35 4.71-3.61-1.62 1.36-3.83 3.66-4.71 3.61zM1296.92 771.69l-3.11 2.26zM1303.77 764.12l1.12-1.27 1-.61-1.37 1.42-.75.46zM1483.45 596.77c-2.8 1.44 3.51-3.52 3.49-2.95a18.36 18.36 0 01-3.49 2.95zM1477.94 602c-.5-.15 3.38-3 3.25-2.44a20.14 20.14 0 01-3.25 2.44zM1479.77 597.92c-.19-.35 1.46-1.27 2.62-2.07a12.22 12.22 0 01-2.62 2.07zM1478.2 593.35c3.27-2.73 2.8-3.46 7-6.19a54.22 54.22 0 01-7 6.19zM1479.11 591.6c.4-.15.34-.76 1.46-1.26zM1476.34 594.21l1.47-1.26-.95.85-.52.41zM1474.79 594.88l1.91-1.71-1.58 1.51-.33.2zM1455.11 610.66c-.83.32.87-1.17 1.7-1.5a12.88 12.88 0 01-1.7 1.5zM1242.36 808.46l-3 1.64c1.4-1.86 7.28-6.09 9.15-7.23 1.49-.38-3.74 3.75-6.15 5.59zM1289.28 754.9c0-.29 1.68-1.49 3-2.51 2.24-1.34-2.28 2.73-3 2.51zM1253.43 788.18l2.93-1.97-2.95 2.26.02-.29z"/>
  </g>
  <g class="cls-3">
    <path class="cls-1" d="M1561.12 399c-4.66-4.2 2.43.91-4.9-5.23 2.26 1.22 10.26 7 16.92 12.48l5.58 5c-6.16-4.32-9.78-6.09-17.6-12.25zM1733.23 505.89c-2.45-2-1.62-1.82-1.23-1.8a80.62 80.62 0 016.31 5.15l-1.22-1.06s0 .07 0 0l1.22 1.07c.27.59-2.84-1.72-5.08-3.36zM1613.92 417.09c-3.86-3.48-9.05-7.64-13.43-11.59-1.78-2.76 8.25 4.06 18.93 12a76.45 76.45 0 018.13 6.91c1.7 2.49 4.83 6.06-3.38.46-2.5-.87-10.55-9.11-10.25-7.78zM1705.83 475.06l-1.29-.49c-2.44-2-.78-1.61-4.66-4.76l-7-4.45c-3.87-3.15-1.08-1.36-.68-1.33-3.68-2.75-6.74-5.08-9.48-7.24l-7.55-6.23c-4.88-4.06-9.89-8.23-17.63-14.31l4.91 2.94c-3.86-3.48-10.42-8.56-13.34-11.3 10.58 7.64-3.7-4.4-3.49-5.16a118.6 118.6 0 0112.21 7.94c-4.32-3.69-8.73-7.89-12.19-11.21l5.68 4.58c1.71.81-.74-1.51-5-4.91 5.17 4.15 2.56 1.15 4.38 2.37-9-7.52-18.2-14-27.86-22.61-4.41-4.08-4.13-4.57-6.25-7.12 8.45 6.68 14.23 10.08 19.42 14.24 4.44 4.33 17.58 14.59 17.45 15.75 3.28 2.54 7.4 5.41 10.09 7.1-2.07-2.3-9.94-8.13-12-10.42 10.7 8.06 15.44 11.91 26.2 20.26l-1.58-1.86c5.33 4.64 12.73 10.64 19.84 15.81s13.58 10 16.77 12.74c11.33 9.82 21.87 19.58 23.77 22.58-10.36-7.41-.42 1.4-1.68 1-3.29-2.33-8.23-6.6-7.56-5.4 5.07 4.82 10.42 7.57 11.82 10.14-10.7-7.18-5.77-1.35-9.73-3.22-3.44-1.3-16.76-12.85-15.82-10.57 7.62 5.77.13.53 1.67 2.08a89.77 89.77 0 01-9.42-6.94zM1533.07 337.75c-4.29-3.55-2.53-2.71-3.57-3.86-1.66-2.24 8.68 6 13.39 9.75 4.79 4.11 5 4.93 4.19 4.84-1.64-.42-9.73-7.19-14.01-10.73zM1599.92 379.2c-3.81-3.23-8.51-7.05-10.07-8.77.27-.5.53-1 5.16 2.32 7 5.49 12.07 9.09 17 13.88 5.46 5.22-2.14.7-12.09-7.43zM1384.08 230.12c-12.7-10.08-8.34-7.85-10.95-10.84 14.87 11.08-6.57-6.89 6.41 2.7 3.28 2.54 7.48 5.81 10 8.27-7.14-4.21 19.68 17.14 11.12 11.74-1.66-.55-10.56-7.39-16.58-11.87zM1459.52 280.38c-4.31-3.68-6.4-6.1-4.15-4.7 1.71.8 8.33 6.13 12.12 9.24 4.3 3.67 6.4 6.09 3.21 4s-6.97-5.27-11.18-8.54zM1492.71 300.89c-2.43-2.19-.6-1-1.64-2.12 2.22 1.26 7 5.37 9.83 7.6l3 3.29c-3.62-2.57-6.47-4.93-11.19-8.77zM1446.2 267.61c-2-2-3-3.27-1.77-2.77 5.11 3.87 10.65 7.81 14.59 11.69 3.42 3.09.68 1.25.84 1.92-4.16-3.01-9.33-7.14-13.66-10.84zM1479.89 288.57c-4.32-3.79-8.53-7.06-12.73-10.32-.23-.95-8.8-8.16-11.29-10.62 8 6.25 3.43 1.51 6.07 2.94 8.75 6.31 25.25 19.5 32.21 26.42-2.09-.72 7.26 8.25-5.88-2.12-3.27-2.56-7.07-5.65-8.38-6.3zM1550.73 334l-16.61-13.73c-4.54-4.73 3-.22.52-2.81 6.53 4.94 20.39 16.7 20.94 15.82 7.43 5.54 16.44 12.93 22.28 18.3 5.7 6.42-23.85-16.75-14-7.19a120.36 120.36 0 00-13.13-10.39zM1432.16 254.94c-3.85-3.37-7.27-6.57-9.28-8.59 3.71 2.71 5.92 4 9.6 6.54 4.31 3.79 11.48 9.83 11.67 10.75-.3.36-6.75-4.29-11.99-8.7zM1396.15 225.41c-1.23-2.07 8.27 5.76 13.28 9.22 3.32 2.68 6.17 5.15 8.64 7.48 1.09 1.41.25 1.19-3.85-1.67-7.46-5.67-10.99-9.39-18.07-15.03zM1316.23 169c-6.16-5.15-2.57-2.85-2.7-3.4 3.24 2.29 7.44 5.55 11.29 8.92 6.32 5.68 0 1.67-8.59-5.52zM1354 184c-3.37-2.93-.8-1.78 4.43 2.52l4.48 4.47c-3.27-2.58-5.52-4.08-8.91-6.99zM1145.55 463.84c0 1.2-.08 1.32-.16 1.41l.11-3.14c.08-.11 0 1.16.05 1.73zM1113.58 145.56c-.63 5.13-2.31 2.35-1.66 17.54 1 16.24-.28 29.9 0 47-.44-1.82-1 3-.91 12.64a58.3 58.3 0 00.35 7.37c-.42 1.76-1.73-1.44-2.36 7.79-1-4.81-2.28-13.43-2.88-13.86-.29 2.15.2 4.56-.17 6.84.15-10.44-.5-23.52-.74-35.29l-.29 2.2c-.62-9.49-.23-22.66 0-31.37 0-5.44-.56-4.13-.68-6.41 0-2.53 1.29-4.13 1-16l-.82-8.16c.47 0 .92 9.25 1.3 2.63.07-4.93.06-9.6.15-11.46.46 2.79.81-.66 1.17-3.71s.73-5.78 1.23-2.25c.37 11.27 1.1 5 1.53 3.23l-.37 6.69c.41-.92.76.12 1.08 2 .16.92.32 2 .48 3.24.08.62.16 1.26.24 1.9s.17 1.49.25 2.23l-.21 4.56c.78 10.02 1.59-2.75 2.31.65z"/>
    <path class="cls-1" d="M1112.06 138.92v-.59c.09-.56.18-1 .27-1.39l.27-1.25a6.08 6.08 0 01-.18 2 4.83 4.83 0 00-.36 1.23zM1107.9 115.2c-.08 0-.17 1.75-.34.18.09-1.74.19-3.38.34-.18zM1468.89 253.37c2.62 1.31 6.1 4.88 9 7.25-2.77-1.83-7.89-5.85-9-7.25zM1106.44 123l-.06 1.2-.07-3.43a10.87 10.87 0 01.13 2.23zM1112.55 221.46c-.06-1.75-.4-2.54-.16-4.06a21.93 21.93 0 01.16 4.06zM1113.09 260c0 .66-.11 2-.16 1.4l.11-3.15c.09-.15.04.53.05 1.75zM1109.23 253.35l-.08 1.29v-4.77a27.2 27.2 0 01.08 3.48zM1107.42 314.13c.8 3.82-.15 17.06.33 26.12 0-1.84-.85-6.77-.89 1.71-.12 7.39.54 4.14.15 9.47 0-7.83-.81-11.64-1.1-10.67v7.28c-.42-12.77-1.08-27-.42-39.29.58-9.79 1 1.21 1.6-5.61-.47 7.15.55 5.86.33 10.99zM1097.42 202.36c0 4.23-.43 6-.62 2.59-.18-7.63.44-11.41.62-2.59zM1110.86 369c-.07 2.46-.12 7.37-.48 5.43a39.87 39.87 0 01.24-9.37 30.6 30.6 0 00.24 3.94zM1102 530.19c.82 1.95.79 23.72 2 25.8-.32-3.79-1 .11-.94-6.64.44 8.5-1 16.95-.66 31-.9.52-1.42 0-2.47 4.3-.13-7.07-.52-13.83-1-15.61l-.11 3.15c-.12-12.52.09-18.81-.8-24.95l-.17 1.43c.31-5.21.39.14.85-2.25-.2-3.39.24-9.36-.15-10.67.51-7.28 1.25-11.83 1.44-22.91.16 18.46 2.33.69 2.01 17.35zM1098.37 501.54c-.22-.33-.49-2.41-.34-6.2.16-2.6.41-2.92.6-.74.01 2.4-.1 5.52-.26 6.94zM1102.64 584.91l.07-2.5.18 2.18-.25.32zM1098.73 585.56l.03-3.06.05 1.74-.08 1.32zM1100.17 635.67c-.15 5-.58-2.34-.74-.95.21-.83.48 1.22.74.95zM1097.5 622.06c.19 2.19.47 0 .67-2-.48 10.88.68 11.21 1 15.57-.47 14.47.19 29.94.12 46.9.14.43.17-1.41.2-2-.91 4.76-.82 19.13-1.27 29.31-.19-10-.64 1.42-.83 4.66.5 4.81.49 15.69.48 21.12l-.33-10.45c-.43-.67-.81-6.24-1.21-2.1a69.32 69.32 0 01-.08 7.93c-.14-1.65-.16-4-.17-6.4-.65.19-.91 5.92-1 12.66a154.76 154.76 0 00-2.38-23.55l-.31 5.18c.41-2.89 0-11.38.07-15.76-1.09-2.86-.25-26.19-1.19-31.68.85-8.89.44-19.22.7-31.63l-.08.1c.46-22.3 2.26-23.31 3.06-39.37.49 10.23 1.34 1.33 1.89 13.32l.74-4.53c.22 5.13-.58 6.08-.08 12.72zM1099.92 678.17l.19 3.38zM1100.3 691.57l.42 4.91zM1072.94 402.4l.04.56-.35 5.84-.04-.54.35-5.86zM1076.23 446.55c-.13.74-.35-.79-.45-3.05.15-3.82.43.67.45 3.05zM1100.46 749.87l.15 4zM1098.19 758.74c-.28-3.3.11-11-.13-14.93-.01 5.47.44 9.68.13 14.93zM1096.85 744.11l-.02-3.6.14 1.62-.12 1.98zM1101.19 803.89c-.36 4.66-.44-.69-.38-4.36.19-.24.52.54.38 4.36zM1098.59 781.17l-.13-7.08.1 2.27.03 4.81zM1090.17 829.61a73.44 73.44 0 01-.81 13.65c-.38 1.09-.7-8.18-1-1.78 0-5.43-.35-20.67.47-26.51s1.41 4.3 1.34 14.64zM1092.32 877c.58-4.31.28 9.9.79 2.62.61 8.3.08 19.81.93 30.83-.52-2.29-.76 12.27-.31 12.27-1 5.42-1.49 13.65-2.45 16-.35-4.93-.5-17.76-1.29-10.3.17-7.26.17-19.77-.43-18.47.48-13.29.64-21.31 1.34-33 .33-2.81 1.37 6.14 1.47-6 .01 2.35-.15 3.76-.05 6.05zM1066.38 630c-.36 4.64-.57 5.52-1 11.5-.64.18-.48-9.06-1.13-8.87 0-12.61-.12-19.13.66-25.52.33-1.61.61 1.65.91 1.88.71 4.01.31 14.72.56 21.01zM1093.49 941.21l-.09-4.48.19 2.81-.1 1.67zM1075.13 782.51c-.19 3.25-.41 4.13-.56 6.75-.61-1.66-1.18-2.76-1.22-15.39.15-3.79 0-10.87.48-13.25.3.22.76-2.14 1 1.22.17 6.98.56 13.73.3 20.67zM1079.62 852.94c.53 3 .55 12 .84 17.63-.38 7.69-.35 12.5-1 16.27-1.07 7.39-.75-16.53-1.55-20.38.52-6.05 1.21-12.38 1.75-14.83zM1255.06 970.11c.13 0 .26 0-.14.39l-2.27 1.51a29.8 29.8 0 012.41-1.9zM1066.19 741.78c-.17 6.83-.78 13-1.21 6.9-.44-3-.36-9.8-.43-15.11.2-7.52.84-8.91 1.28-7 .17 4.53.62 9.43.36 15.21zM1214.57 991.55l3.46.37zM1182.54 996.35a80.68 80.68 0 01-13.2.56c-7.38-.12-2.68-.71-3.65-1 5.63.17 14.92-.15 16.85.44zM1274 115.16c-3.65-2.44-8.28-5.88-10-6.44-2.41-2.17-1.17-1.8-5.34-4.93l-9-6.92c-1.64-1.3-3.32-2.5-5-3.7-.82-.61-1.66-1.13-2.47-1.69l-.62-.41a6 6 0 00-.74 0h-1.48l-5.68-.06c-1.83 0-3.57.13-5.18.21a65.38 65.38 0 00-7.36.67c.69-.2 2.81-.38 4.59-.59s3.35-.42 2-.7l-5.12-.13-5.1-.08h-11.39c6.94-.22-3.68-.54-3.9-.71-13.91-.51-30.79.46-42.64.14 8.69-.27 27.08 0 30.26-.88-2.26-.84-16.82-.92-22.15-1.32H1174.95c-2-.67 5.84-1.62-7.77-1.88 3.84-1.27 29.9-2.64 47.24-3.74l11.51.07 7.73.05a33.7 33.7 0 013.8.24l3.76.36 1.87.18c.61.11 1.31 0 1.79.42 1.06.67 2.13 1.23 3.17 2 2.07 1.49 4.14 3 6.12 4.65l10.3 8.38c.42.17 1.31.65 1.24.38 5.54 5.75 20.91 19.09 30.33 26.63 4.42 4.21-6.5-4.8-3-1.21-.73.08 5 4.91 7.46 7.37-4.73-2.15-6.37-2.57-8.3-2.5-6-6.17-12.35-8.61-18.2-13.86zM1317.67 921.13c-.26.38.65-.36 1.21-.75l11.61-11.29h.56l28.69-24.14c17.82-13.94 28.36-20.33 44.07-32.39 4.54-2.63-4.54 3.79-8.1 7.17 1.36-.77-1.83 2.65 4.27-2.63-4.49 4.14-4.22 4.53-7.78 7.91l5.19-3.76c-6 5.28-11.15 9.42-12.73 11.69 4.68-3.4 7.18-6 11.59-9.06-12 9-20.17 17-33 26.78l2.29-1.14c-6.23 4.89-10.4 7.15-17.14 13.18l.94-.38c-11.07 8.31-18.54 13.2-29.3 21.1-12.53 8.67-4.31.73-2.37-2.29zM1152.83 1000.58c3.17.11 4 .32 4.22.49a69.94 69.94 0 01-11.88.16c-1.1-.1-1.33-.19-1-.27a7.54 7.54 0 011-.12l1.12-.09c1.76-.12 4.41-.17 6.54-.17zM1180.85 998.39c3.06 0 .87.2 1 .29-2.16.18-7.18.05-5.74-.26a33.37 33.37 0 014.74-.03zM1299 947.54l1.59-1.51zM1317.06 932.1c1.61-.76-3.57 3.38-6.65 5.66a83.52 83.52 0 016.65-5.66z"/>
    <path class="cls-1" d="M1394.62 859.72l.39-.38 3.73-2.63-.39.38-3.73 2.63zM1358.82 895.92l-6.8 4.53 5.87-4.16.93-.37zM1412.92 844.28c1.08-.77 1-.4-.78 1.13-1.58 1.12-1.07.37.78-1.13zM1414.58 845l6.25-4.91zM1414.52 847.3c-.78 1.13 3.87-3 5.32-4.14-4.08 4.13-8.37 6.39-14.74 12.05 2.5-2.21 5.81-5.21 9.42-7.91zM1674.42 625.62c2.69-2 5.51-4.15 8.36-6.42l8.67-6.75c5.71-4.49 11.11-8.75 15.39-11.68-.66.59-3.36 2.65-2.28 2.07 14.48-11.47 7.28-3.79 21.63-15.23l-5.6 4.7c1.11-.3 5-3.22 8.66-5.87-1.84 1.48-4.44 3.24-6.49 5 2.49-1.16 0 1.51-1.91 3.57a7.66 7.66 0 00-1.41.88 149.9 149.9 0 01-13.17 11.49c0 .31 2.82-1.75 4.75-3.21-4.91 3.21-12.17 8.93-19.62 14.74l-5.6 4.33-5.38 4.23c-3.5 2.71-6.79 5.13-9.59 6.94-6.88 6-8.72 6.31-13.3 9.62-5.75 4.22-6 3.91-5.67 3 3.9-4.52 9.71-10.56 22.56-21.41zM1262.53 993c1.56-1.21 2.76-2.1 3.48-2.61a4.66 4.66 0 011-.55c.34-.1.11.28-.14.66s-1.26 1.07-2 1.69l-2.27 1.86c-1.49 1.19-2.9 2.3-4.21 3.3a54 54 0 01-6.41 4 37.27 37.27 0 014-3.12c2.22-1.54 4.73-3.74 6.55-5.23zM1483.32 786.23l4.37-3.77zM1355.81 908.38l1.06-.74-3.33 2.64a19.55 19.55 0 012.27-1.9zM1368.3 899h.16l-3.21 2.26a32.22 32.22 0 013.05-2.26zM1365.2 903.87l8.76-6.77c-7.15 6.4-3.94 4.14-9.52 9.43-3.72 2.63-10.2 8.27-15 11.28-1.75 1.15-1.74.37 1.15-2.25 5.04-4.16 15.11-13.2 14.61-11.69zM1721.09 588.39l-1.73 1.48.96-.88.77-.6z"/>
    <path class="cls-1" d="M1365.72 903.12l-.52.36 1.18-1.12-.66.76zM1728.91 528.51l1.38.84-1.06-.59-.32-.25zM1356.24 913.68l2.92-2.26zM1720.68 590.8l6.79-5.28zM1736.26 577.82l-3.36 2.66 1.06-.87 2.3-1.79zM1746.53 569.45c1.41-1.05.23 0-.32.53-.5.26-1.21.79.32-.53zM1727.1 589.42a10.21 10.21 0 01-2.48 1.76c1.07-.88 1.29-.87 2.48-1.76zM1722.58 594.76c-3.34 2.34-7.34 5.88-8.44 6.47 2.95-2.37 7.14-6.23 8.44-6.47zM1744.82 573.3l5-3.87zM1731.86 585.6l-2.16 2.06-1.73 1.18 2.59-2.36 1.3-.88zM1404 876.38c4.68-3-6.49 6-6.24 5.29a56.75 56.75 0 016.24-5.29zM1414 867.35c.68 0-6.1 5.27-5.71 4.51a65.38 65.38 0 015.71-4.51zM1409.85 873.38c.15.38-2.64 2.25-4.65 3.77a38.71 38.71 0 014.65-3.77zM1410.55 878.68c-5.83 4.89-5.41 5.65-12.59 10.92 3.04-3 7.04-6.4 12.59-10.92zM1408.58 881.33c-.65.36-.78 1.13-2.64 2.24zM1413.62 876.8l-2.64 2.25 1.72-1.5.92-.75zM1416.16 875.29l-3.44 3.01 2.89-2.62.55-.39zM1451.06 846.67c1.36-.76-1.7 1.88-3 2.65.21-.38 1.69-1.52 3-2.65zM1750.65 503.19l-4.44-4.19c3.58 2 13.87 10.48 16.72 13 1.42 2-8.04-5.44-12.28-8.81zM1750.06 592c-.14.38-3.09 2.56-5.53 4.4-3.78 2.54 4.56-4.4 5.53-4.4zM1792.58 524.51l5.58 4.71-6.18-4.9.6.19z"/>
  </g>
</svg>
