<svg id="Ebene_1" data-name="Ebene 1" xmlns="http://www.w3.org/2000/svg" width="24" height="24" viewBox="0 0 1920 1080">
  <defs>
    <style>
      .cls-1{fill:#1d1d1d}.cls-2{fill:none}.cls-3{opacity:.8}.cls-4{fill:#fff}
    </style>
  </defs>
  <path class="cls-1" d="M765 108.09h-29.58c0 .12.33.24.49.37zM793.88 103.55h-9.31a11.51 11.51 0 011.8.31zM735.91 108.47c2.25 1.39 14.54 2.77-.49 4.15H670c-16.34.76 0 1.51 0 2.27h-22.46l-7.4.11a10.89 10.89 0 00-2.81.22c-10.69 1 7 1.64 38.66 1.88 70.41-4.19 249.71-5.7 59.92-8.63zM866.3 105.44h-86c-8.93.87-21.06 1.74-12.36 2.6 44.52-.63 71.7-1.36 98.36-2.6zM479.87 271.42c-.07-.1.13-.43 1.65-2.05s4.36-4.52 9.59-9.74l-11.24 11.79c0 .3.9-.17-4.11 5.27 39-41.51 84.72-90 129.28-136.81l15.64-18.15C564 181.3 507.38 240.88 453.33 297.7L373 214.44c-24.84-25.61-48.82-50.18-71.65-73.37L377 219.9l76.35 79.4zM627.63 111.16l11.23-11.79c-5.18 5.18-8 8.06-9.53 9.68s-1.74 1.95-1.7 2.11zM638.79 275.67l4.65-4.9c.15 33.33.29 65.67.42 97.27.24 23 .46 45.4.69 67.5.6 44.2 1.18 87.06 1.77 130.15-.23-45.22-.47-90.72-.71-135.71-.21-55.29-.43-110-.64-163L577.64 338l-44.36 47-41.91 44.55-19.88 21.19-8.91 9.52-5.32 5.78q90.36-94.76 181.53-190.37zM656.58 960.59l-5.16-.11c0-1.63.05-3.24.07-4.83V898c-.1-26.06-.2-51.19-.3-75.63-.32-48.89-.84-95-1.44-140.08q.48 139.61 1 277.59l.1 1.19c2.06-.17 4.04-.31 5.73-.48zM649 865.85c0-111.89-1.28-206.56-2.63-300.16.56 105.2 1.35 208.15 2.63 300.16zM122.77 666.05c-1.09-73.57-1.57-118.19-1.69-143.53-.49-11.24-1.12-26.09-2-46.21v13.1Q120 603.31 121 720.3c.48 31.84 1 62.22 1.62 87.69.02-47.35.09-94.92.15-141.94zM121.08 522.52c4.51 95.81-.48-99 0 0zM159.58 977.55h10.26l32.74-.26z"/>
  <path class="cls-1" d="M347.71 385.14l-64.39-66.9c.14 21 .28 41.6.41 62.06-.08-20.58-.17-41.21-.25-61.68l79 82Q385 424 406.68 446.41l10.75 11.11c3.56 3.68 7 7.36 10.85 10.82l26.42 24.88 28.09-29.9-28.11 29-12.94-12.45-11.28-10.37-5.23-4.8c-1.78-1.64-3.44-3.42-5.21-5.18l-22.42-22.79c-15.75-16.09-32.89-33.73-49.89-51.59z"/>
  <path class="cls-1" d="M141.29 488.15q.77 126 1.51 249.47.9 121.71 1.78 240.15l25.26-.22 102.34-.07c-.25-117.42-.49-233-.72-345.76-.6-119.06-1.18-235.19-1.74-347.43L344.94 362l63.11 64.87 24.85 25.48c2.1 2.25 4.39 4.18 6.59 6.31l5.55 5.18 9.17 8.52 35.29-37.62 43.5-46.15 109.64-115.84c.28 64.95.57 131.66.86 198.22.38 58.3.75 116.48 1.11 172.85.89 112.73 2.14 218.24 4.1 303.11.08-28.13.16-55.11.24-81.08q.42 28.78.83 55.89.24 13.54.46 26.65c0 2.18.09 4.34.13 6.5l.12 1.74c.08 1.09.17 2.17.25 3.23v1.28l98.06-.39c-.3-118.13-.6-235.84-.9-353.91-.19-130.77-.38-261.94-.58-394.36l241.42-.17c0 74.76 0 152 .06 229.73 0 14.51.1 28.2.15 41.44.11 20.27.22 39.83.32 59.2l-68.84.45c-16.4.13-33.36.22-51.58.22h-11.34c.05 31 .09 61.5.14 91.76h8c.25-.08-.57-.16-2.36-.25l127.34-.2c.28 106.79.55 213.43.82 321.71l1.06-.05h9.47l33.51-.1 33.74-.12h10.04l.75-.05c-.33-74.16-.67-150.49-1-228-.38-130.84 0-261.84 0-392.55 0-49.07 1.51-49.07 1.89-81.81.4-27.86.78-54.23 1.15-79.9.18-12.84.36-25.5.53-38.09 0-3.15.09-6.29.13-9.43l.06-4.11.07-.76.24-3.27-2.1-.16-1.12-.08H1077.73l-25.68-.29-52.8-.54L882.71 116v-1.13c-22.58.13-42.82.11-59.39 0 70.33-4.24 249.58-5.75 59.8-8.68l29-.37h3.17-.2c44.58-.64 71.6-1.37 98.35-2.61h-86c5.43-.52 8.94-1.06 6-1.58l7.56-.31h23.42c4.16-.29 7.23-.58 9.31-.87l66.08-1.17 63-1c.28 15.44.57 28.64.87 36.2s.63 9.93 1 4.65c.17-3.75.27-9.24.32-16.18V96.07l-95.34.72-12.49-.38c81.78-.37 0-2.64 49-3l61.54-.08q.17 72 .31 143.92c.11 131.28.21 252.39.32 372.86.37 122.57.74 244.47 1.14 375.42h-13.21l-38.13.13-96.34.27c-.06-49.87-.11-98.88-.16-147.79.06-46.64.11-93.18.17-140.37.24 7.93.48 16.21.74 24.7q.06-30 .13-59.94H830.29q-.19-53.81-.38-107.64c-.06-13.09-.13-26.17-.2-39.32l131.66-.8c-.5-90.33-1-181.21-1.51-273.55l-183.09.69q.09 42.63.18 86c.2 109.43.4 217.25.6 325.2.35 111.73.7 223.6 1.06 337.42l-157.81.57c0-14.12-.1-28.5-.14-42.91q.11 21.4.22 42.82l157.31-.89c-.24-62.67-.49-125.77-.74-189.73V645.18c-.12 52.53-.1 104.09 0 155.21 0 63-.07 126.55-.11 188.88l-155 .23q-.17-39.53-.34-77.72-.28-33-.56-64.61c-.44-42-1.06-81.91-1.9-118.85.31-16.82.69-16.82.69-33.1 0-114.55.37-229-1.14-327.07a11.84 11.84 0 01-.12-2.08c0-1.31-.07-3.17-.11-5.35v-3.17-1.6c0-1.08-.07-2.2-.1-3.26-.14-4.26-.33-7.24-.71-3.64 0-4.67-.08-9.44-.13-14.5L455 506.51c-6.09-5.76-11.74-11.1-17.34-16.41l-16.38-15.48c-4.13-3.72-7.67-7.58-11.42-11.38l-22.35-22.81-44.93-45.37-38.54-39.91-9.9-9.9.24 10.06.06 2.39v3.54l.12 20.69q.24 41.4.48 83 .48 83.22 1 167.76c.61 120.11 1.24 242.87 1.89 370.59l-179.6.73c-.24-50.52-.51-108.85-.78-167.84-.36-94-.38-202.4-.38-297.52q.85 105 1.74 212.91.75 113.13 1.51 228.57v21.81l176.3.1q-.06-43.77-.13-86.14-.16-32-.31-62.69c-.28-40.88-.71-79.82-1.34-116.23-.34-26.09-.67-52-1-78.09.6 115.32 1.2 230 1.79 342.14l-175.2.82c0-7.45 0-14.59-.07-21.72.14-87.46.29-177 .43-264.88 0 1.71.05 3.27.08 5.06q.69 99.15 1.38 199.91c0 26.86-.07 53.55-.1 79.91l172.51-.07q-.08-30.4-.15-60-.12-20.22-.23-39.87-.39-39.27-.74-75.94c-.2-13-.39-25.89-.58-38.21-.34-26-.67-52-1-78 .5 97.56 1 194.7 1.5 290.89l-29.64.1-141.18.7c-.13-26.68-.26-53.09-.38-79.43.08-37.11.16-74.71.24-112.22.1 4 .2 8.16.29 11.75.37 32.87 4.81 124.43 5.95 75.41 0-125.88-.52-277.16-.94-397-.2-59.9-.38-111.94-.51-149-.05-18.53-.09-33.31-.11-43.47v-11.7-3-1c1.51-16.26 3.49 415.2 3.87 398.91.15-24.17.29-48.38.44-72.5.34 22.94.67 45.39 1 66 .37 49 0 114.46.75 147.24.48 24 .82 48.65 1.08 73.91q.16 18.95.33 38.31.12 22.49.24 45.4l146.43-.63q-.15-25.35-.31-50.85-.22-22.62-.44-45.3c-1.22-81.89-2.69-179.9-4.16-278-.75 0-.38-49.18-1.13-32.77 0-46.16 0-95.93-.28-139.11-.14-21.59-.34-41.53-.65-58.55-.16-8.53-.34-16.23-.55-23.22-.21-7.4-.45-14-.73-19.71q0-3.77-.06-7.46c0-7.19-.12-17.59-.3-29v-10.66l53.21 55.68 45 46.67 43 44.3 10.61 10.87c3.54 3.61 7 7.31 10.73 10.65l18.92 17.56 87.73-94.19 97.09-102.18V281.33L597.36 325l-18.67 19.59c-5.21 5.52-10.15 10.77-14.64 15.55l-22 23.49-87.76 93-17.1-16.06-5.19-4.92-5-5.15q-5-5.14-9.94-10.27l-39.47-40.83L296 315.05l-23.33-23.51c.06 2.94.13 7.1.2 11.2 0 9.53-.05 19-.08 28.62.14 2.4.28 5 .44 7.86.42 57.08.86 117.9 1.28 176.61.37 58.06.75 114 1.31 162.15.35 49.28.56 99.44.67 150.09 0 50.91.07 102.31.1 153.77l-135.87-.15c.06-41.36.12-82.53.18-123.29.3 41.37.6 82.49.88 122.22l132.55-1c0-4.89-.08-9.56-.12-14.23 0 5 .06 9.93.09 14.21l-132.3.78c-.39-59.94-.74-115-1.09-169.13v-145.2q-.21 45.86-.41 91-.7-91.54-1.39-180.72-.56-117.77-1.11-237.11-.39-121.27-.77-243.46l102.55-.21H273c.06 0 .1.1.16.15l.63.65 1.21 1.26 2.51 2.62 9.12 9.52 34 35.59 132.7 138.89L538.71 195c-4.15 5-9 10.73-14.37 17-23.75 24.95-47.5 49.9-71 74.58l-123-128.12-29.89-30.93-14.67-15.14-7.34-7.56-3.87-4-1.92-2-.48-.5-.24-.24c-.08-.07-.22 0-.33 0h-1.38l-41.12.43-39 .53 64.77-.1 15.39.05c1.47-.43 2.12 1.07 3.07 1.87l2.67 2.77 5.23 5.44 20.23 21 84.14 87.57c-.21.1.15.93-5.08-4.35l72.81 75.31 55.37-58.41-44.58 50.93-10.79 11.69c-5.77-5.93-12.07-12.38-18.75-19.22l-19.81-20.47-43.22-44.75-96.7-100.83-2.67-2.78-1.34-1.39-.66-.69-.17-.18H209.96l-65.77.1c.28 113.35.55 225.74.83 340.9-.07 179.19-.15 358.21-.22 533.95h14.78l-14.88.11c-1.21-173.72-2.33-333.68-3.41-489.42zm952-261.86c.17 16.78.36 34.13.54 51.44.09-2.7.18-5.27.26-7.76.02-15.84-.33-31.51-.78-43.68zm-.37 382.58c.65-112.29-.21-260.11-.8-403-.11-.81-.21-1.31-.29-1.31-.33 119.87.59 267.28 1.11 404.31zM1024.74 961l2.7.13c-.08-.06-.25-.12-.25-.17zm-263.56-5.34q-.3-24.4-.63-50.28c-.15-17.31-.31-35.08-.47-53.22-.21-36.29-.43-74.12-.65-113-.29-77.7-.59-159.49-.9-241.26 0-49.06-1.51-98-1.51-163.49-.29-44.33-.52-80-.73-113l105.08-.77-49.15-.75c30.59.1 57.69 0 83.15-.16l86.6-.64c.14 25.24.29 50.7.44 77.88.08 22.57.07 46.56-.1 73.21a11.64 11.64 0 01.33 2.81c.13 1.79.26 4.34.37 7.4.24 6.13.43 14.3.43 22.49 0 20.19.08 40.4.11 60.36 0 24.95 0 49.6-.06 73.63h-72l-27 .11-24.63.22-8.48.09c0 6.54.08 13.06.12 19.52 0 11.49.08 22.9.11 34.16s.08 22.4.12 33.34q0 5.52.06 10.94c0 1.89 0 3.77.08 5.62l6.72-.11 14.88-.12 34.6-.32c6.42 0 15.32-.18 25.74-.41l8.08-.19 12.78-.19 31.39-.39c.11 11.88.22 24.12.33 36.36q.18 60.93.36 121.94l.3-4.9c0-32.49 0-65.48-.28-98.42-.08-17.51-.17-35.37-.27-55.42l-83.12.47-33.38.23-8.41.05-3.25.06-5.12.1-.1-5.15q0-6.15-.1-12.28-.09-17.11-.18-34t-.17-33.45c0-3.68 0-7.35-.07-11 0-1.8-.05-3.59-.07-5.36h2.06l129.92-.47c-.51-109.19-1-215.31-1.49-319.81l-228.81 1.27q.28 49.48.57 98.69c.5 49 1 98.18 1.51 147.17 1.51 147.25 1.13 327.2 3.77 425.21.19 8.2.29 20.48.43 32.76.09 6.14.18 12.27.27 17.9.06 2.82.13 5.51.19 8q.06 1.88.12 3.6c.02 1.02.07 2.03.11 2.97zm-138.77-1.83c.07 11.72.15 23.5.23 35.43l153.71-1c-.25-65.72-.51-132-.77-196.84v-179c0-43-.25-112.47-.74-184-.31-35.74-.62-72-.91-105.7-.21-16.86-.41-33.08-.6-48.28-.11-7.27-.22-14.3-.33-21-.13-5.49-.24-10.74-.36-15.72l30.26-.82c10.06-.28 18.14-.59 23.82-.91 11.37-.65 13.13-1.36 1.91-2.14-7.33.38-16.21.72-26.49 1l-31.5.83q.25 13.89.55 29.8c.14 11.8.3 24.29.46 37.4.2 26.22.43 54.9.66 85.34.35 60.88.52 128.84.6 198.38.15 141.24.29 288.94.4 398.55l-83.77.4-63.91.71c-.17-10.7-.36-19.78-.57-27-.06-1.75-.11-3.39-.16-4.9-.06-1.18-.12-2.26-.17-3.24-.12-2-.25-3.54-.38-4.69-.56-4.56-1.19-2.5-1.94 7.4zM293.05 491.59c-.36-49.24-.72-97-1.12-151.87l4.62 4.82L292 340l.25 15.83.07 3.8.06 11.79.13 24zm330.77-182L585 351.18l-42 44.95L454.62 490l-26.48-25c-2-1.83-3.88-3.76-5.73-5.7l-5.6-5.81-11.21-11.6-44.82-46.45-79.5-82.32q.47 68.87.91 135.83c1.13 163.61-.76 343.48 1.89 490.65h1.13l-.38-16.3c.23-57.43.83-103.68 1.15-151.82 0 2.74.07 5.68.1 8.41 0-4.81 0-9.63-.06-14.53.19-32.12.24-65.43 0-103.85-.17-17.6-.35-35.51-.53-53.51-.17-51.38-.34-103.18-.52-154.82q-.15-38.73-.3-77.29-.18-27.81-.36-55.34l76.49 78.92 44.5 45.83 11 11.28c3.69 3.72 7.17 7.55 11.11 11.09l27.37 25.66 28.09-30 77.42-83.1 69.41-75c.21 14.43.43 29 .66 43.89.19 16.87.38 34 .58 51.6 0-14.47.08-32.24.12-50.28 0-16.89.08-34.23 0-48.54z"/>
  <path class="cls-1" d="M140.4 790q-.63-106-1.29-213.66c-.5-55.39-1-110.42-1.51-165.41-.28-49.33-.58-100.22-.88-152.22-.16-53.66-.32-108.46-.48-163.93l102.91-.17h34.16c.18 0 .24.18.36.26l1.3 1.36 2.6 2.71 9.34 9.77 34.14 35.67 132.28 138.17 96.86-102c4.95-6.79 4.81-8.28-3.06-1.74l-93.8 97.73-128.87-135-34-35.55-9.85-10.29-3-3.1-1.49-1.55-.74-.78c-.1-.19-.32-.09-.49-.12h-35.13l-107.8.17q.12 99.51.26 199 0 94.8-.1 189.58c0 2.37.08 4.82.12 7.18 1.1 63.88 1.49 147.2 1.82 234.74.17 43.77.35 88.6.52 132.58.32 46 .63 91.1.93 133.33l15.28-.13L280 985.29q-1.73-186.39-3.46-372.71c.12 125.49.23 247.7.34 369.59l-136.73.06c.07-63.72.16-127.67.25-192.23z"/>
  <path class="cls-1" d="M649.79 682.27q-.36-96.07-.7-193.33c-.38-80.13-.75-156.93-1.09-229.55l-71.47 75.49-44.39 47.17-43.81 46.58-21.77 23.17-5.28 5.62-2.38 2.58-4.85 5.27-10.33-9.55-4.88-4.57c-1.63-1.52-3.19-3.24-4.79-4.86l-9.54-9.83 9.42 9.84c1.58 1.62 3.13 3.34 4.74 4.88l4.84 4.6 10.55 10L646 264.35v77.15q.11 25.81.21 50.69.18 22.1.34 43.49c.32 28.57.63 56.36.93 83.77.79 54.8 1.52 108.04 2.31 162.82z"/>
  <path class="cls-1" d="M332.05 341.23l92.46 95.23L263.21 268c.28 121.09.56 241.06.84 360.88q.95 171.12 1.83 342.3l-115.42.72q-1.17-187.78-2.33-375.54-.25-49.47-.51-98.26c-.08 159.86-.16 319.57-.24 476.88l122.25-.05c-.2-116.06-.4-230.47-.59-342.4-.52-120.92-1-239.14-1.53-353.76l56.57 58.65q21.07 21.72 41.81 43.12L407 422.87l20.34 20.91 5.06 5.2c1.69 1.72 3.35 3.52 5.1 5.09l8.78 8.17 7.84 7.21 3.12-3.37-3.12 3.27-15.77-15c-1.93-1.77-3.78-3.73-5.64-5.68l-5.58-5.83L416 431.19l-44.51-46.48-105.8-110.49c.32 137.7.64 273.58 1 409.23q-1.11-206.26-2.23-412.39zM140.85 858.4v-47.15c-.13-18.28-.26-36.25-.39-54.21 0 11-.06 22.05-.1 32.94.19 22.91.34 45.77.49 68.42z"/>
  <path class="cls-1" d="M286 771.5v-6.12c-.19-51.68-.38-104.3-.58-157.36-.55-73.16-1.12-149.62-1.71-227.72.45 141.54.89 281.56 2.29 391.2zM295 351.3v-3.83l6.49 6.81 1.14.94.59.49.3.26.17.15.66.65 10.52 10.53-15.78-16.64-4.38-3.92zM619.59 728.32c-.4-75.17-.79-149.12-1.16-221.18q-.3-54-.59-106.58-.15-23.3-.3-46.22-.15-9.18-.29-18.19l-8.35 9-4 4.32-6.9 7.37-44.93 47.59-98 103.73-39.22-37.23L391 445.19l-48.4-50.13-27.69-27.76 62.8 65.87L409.06 466c2.65 2.72 5.1 5.47 7.93 8.16l9.39 8.95 28.72 27.36 58.13-61.16L558 402l44-46.72 2.12-2.25.72-.8 1.45-1.61 3-3.31 6.29-7q.23 6.28.43 12.4l.12 3.29.07 1.68.06 5.27q.13 10.77.26 21.44c.38 32.67 1.51 81.82 1.51 114.47.36 154.84 1.56 302.25 2.65 449.29-.35-70.29-.69-141.28-1-213.82-.08-2-.09-3.97-.09-6.01zM1566.52 546l4.71-3.62c-.07-.1-.2-.15-.3-.24zM1564.67 553.15l1.48-1.14a1.16 1.16 0 01-.47 0c-.32.35-.62.72-1.01 1.14z"/>
  <path class="cls-1" d="M1570.92 542.15c-1.2-.82-4-.41-2.45-3.35l10.44-8c2.14-2.6-.92-1.2-1.38-1.8 2.6-2 5.21-4 5-4.29 1.1-2.1-2.12-.46-7.31 3.23-8.67 11.97-36.36 35.11-4.3 14.21zM1552 560.51l13.69-10.51c.89-1.78 2.3-4 .39-3.58a123.47 123.47 0 00-14.08 14.09z"/>
  <path class="cls-1" d="M1552.11 514.46c.15-.18.46-.1 2.61 2l-2.61-2c-.16.14-.2.51-1.47-.29 9.36 6.64 20.23 14.46 30.62 22.28 1.58.71 3.13 1.38 4.55 2-25.66-19.4-51.19-39-73.31-53.4 14.78 11.29 25.34 18.56 39.61 29.41zM1589.19 538.13l2.6 2c-2.13-2.08-2.44-2.13-2.6-2zM1250.07 398.34c.32 19.86 1.63 37.28 2.9 54.89-1.08-37.4-1.61-75.75-3.06-104.28q.09 24.59.16 49.39zM1258 540.86c.71-24.58-.24-44.85-1.52-64.19q.48 29.52 1 58.68c.09 1.83.29 3.75.52 5.51zM1255.59 513.58c0-22.49-1.27-41.53-2.62-60.35.6 21.15 1.4 41.85 2.62 60.35zM1408.69 373.67c12.4 8.13 19.81 13.21 23.93 16.21 2.11 1 4.88 2.26 8.58 4.08l-2.09-1.6-38-26.77c-5.38-3.52-10.54-6.83-15-9.45zM1432.62 389.88c-18-8.14 16.09 11.74 0 0zM1342.27 350.5l-1.79-1.38-5.38-3.8zM1232.21 318.12q-.15-12.5-.31-25c-.16-8.73-.32-17.43-.47-26.05.23 17.31.46 34.69.68 51.36.29 12.69.67 24.85 1.23 35.86 0-3.28.38-6.59.38-9.87a244.62 244.62 0 01-1.51-26.3z"/>
  <path class="cls-1" d="M1425.8 410.13c-29-21-57.53-41.4-85.32-61-17.82-13.61-35.49-27-52.88-40l-12.78-9.53-10.56-7.76c-6.91-5.05-13.53-9.83-19.72-14.22.3 9.55.66 18.6 1.07 27q.35 6.12.67 12.14.39 8 .76 15.86c3 52.61 2.27 144.67 8.31 197.3.17-5.66.24-11.08.24-16.31.52 7.72 1.11 15 1.8 21.77.65 43.44 1.18 86.47 1.55 129.74.19 33.52.38 67.21.57 101.59a2.69 2.69 0 00.35 1.59 38.59 38.59 0 013-3.32l1.92-1.59.45-.38.11-.1.73-.57 1.94-1.5 7.74-6c0-.1-.19-.07-.53.09 42.7-33.35 84.53-66.37 128.29-101.5 20.65-16.31 41.78-32 62.63-48 7.83-6 8.75-4.81 14.21-8.52 22-14.5 38.59-25.31 62.53-42.71l.69.9c3.52-2.87 6.76-5.34 9.47-7.27-8.64 12-36.32 35.1-4.25 14.21l-4.4 3.85-.51.38h.06a123.26 123.26 0 00-14.11 14.1l13.72-10.52c-.54 1.08-.78 1.93 0 2l-1 1.16-3.73 2.87a8.18 8.18 0 00-1 1.83c-11 10.47-29.34 25.62-24.75 24.08 3.28-1.5 11.6-8.77 21.24-16.77.69-.35 1.46-.77 2.22-1.23-12.81 10.31 1.61 2.1-6 8.4l-31.06 24.3c-42.49 32.58-78.07 60.35-119.12 93.25L1375 714c-20 15.89-39 30.6-59 45.57 1.11-1.18 2.28-2.39 3.5-3.61q-12.07 9-24 18.21l-11.9 9.27L1269 795l-37 29.78c-.48-23.75-1-47.65-1.46-71.91-.41-19.17-.72-38.63-.86-58.56-.3-55.13-1.09-108.21-2.36-164.17.84 22.87 1.61 45.71 1.87 69.17 0 10.53-.06 21 0 31.21.12-10.57.09-20.93 0-31.21.15-40.52.61-82.16-2.94-113.38.31-3.38.69-3.38.69-6.66 0-23 .38-46-1.13-65.76-.38 0-.38-9.88-1.14-6.59-.37-19.73-.37-42.76-1.13-62.48-.24-8.54-1-17.06-1.86-25.59-.47-29.54-.94-59-1.45-90.57l57 42.28 14.36 10.65 8.21 5.94 16.55 12 68.35 49.6c15.21 11.21 32.52 24.47 47.7 36.1-23.1-16.12-46.75-32.94-70.69-50.12-22.5-17.6-44.21-34.25-63.26-46.42l-6.55-4.36-1.63-1.09-.41-.28-.56-.38-1.41-1-5.59-4 7.88 5.85 4.81 3.49 9.61 7 19.14 13.86q19.13 13.78 38 27.36c13.28 10.39 26.84 21.11 40.27 31.44l-.85-.56-32.74-23.37c-20-15.66-39.37-30.54-56.82-42.21-2.18-1.45-4.35-2.88-6.45-4.22l-13.07-8.74 47.27 34.23 29.07 20.94 17.76 13.92-2.05-1.21c-5.47-3.72-22.78-11.4-15.65-4.5 20.11 15.36 44.53 33.5 63.9 47.83l24.09 17.83 7 5.23 1.86 1.42a3.46 3.46 0 01.61.53c1.67 3.19-68.37-48-66-45.73l11.3 9.21c-3.85-2.56-7.62-5.06-11.14-7.3-8-5.7-18.26-14-23.95-17.42-19.63-12.2-40.06-28.82-61.84-43.62l-47.27-31c-.12.86-8-5.66-5.31-2.65-7.26-5.57-15.2-11.65-21.66-16.26.27 9 .83 16.92 1.93 21.77l.06 1.27c0 1.17.12 3 .29 4.88-.09 6.71 0 13.12.13 19.07.11 3.36.22 6.64.32 9.86s.3 6.47.44 9.66c.74 12.74 1.46 25.13 2.28 39.13.19 9.63.31 19.42.31 29.5 0-6.58.38-16.44 0-23-.1-2.19-.21-4.34-.31-6.47-.26-12.48-.63-24.66-1-36.69q-.32-9-.64-17.94-.33-7.8-.64-15.56c-.22-1.77-.58-4.72-.84-7.53 0-1.48.06-3 .08-4.44-.15-.54-.3-1.11-.43-1.71-.31-6.18-.57-12.75-.8-19.47 11.92 8.42 24.79 17.76 36.2 25.5 29.74 21.18 60.22 45.36 89.62 68.18l-44.66-31.67 52.16 37.47L1382 376l15.67 12-14.27-11.46 29.68 21c53.4 38.73 108 79.41 160.56 120.49-1.32-.43-2.79-1-4.39-1.63-25.67-19.4-51.18-39-73.3-53.39 14.74 11.3 25.33 18.58 39.59 29.43-.14.16-.19.51-1.46-.29 9.35 6.64 20.22 14.46 30.62 22.28-3.9-1.75-8.2-3.83-12.49-5.89-5.69-3.41-13.51-9.41-21.57-15.12-34.27-25.46-66.07-50.09-100-74.95-29.62-22.89-59.2-45.76-88.37-68 29.58 21.37 56.83 40.9 83.53 59.66zm66.49 193.23l-7.88 6.73 1.4-.74a50.73 50.73 0 006.48-5.99zM1431 649.89c18.32-13.23 41.37-32 63.81-49.95.07-.19.08-.33 0-.39-19.28 14.39-42.24 33.16-63.81 50.34zm-76.34 48.66l.5-.23s-.11-.07-.14-.11zM1245.44 568c1.89 26.3 1.89 59.2 2.64 92.08 0 9.87 1.51 19.71 1.51 32.88.38 16.45 1.14 26.3 1.51 39.47l.76-9.88c-.19 11.51.28 20.56.71 29.61.1 2.26.2 4.52.3 6.82l.06 1.63.06.77.09 1.55a56.71 56.71 0 01-.09 6.94c.38-.29 1.14.35 1.14 1.6.16 2.62.11 5.43.06 8.24a66.71 66.71 0 007.73-6.32c2.38-2 4.76-4 7-5.91 6-4.78 11.84-9.49 16.81-13.78 2.62-2 7.13-6.9 12.13-11.21l18.89-14.93-1 .36c-5.19 4-10.43 8-15.53 12.26l-24.14 19.88-6.2 5.06-1.55 1.26-.21.18-.12.11-.23.21-.93.85c-1.26 1.13-2.57 2.29-3.88 3.41l-7.88 6.7c-.24-3.26-.46-6.49-.69-9.68l-.39-5.35-.1-1.4v-2.23q-.1-3.54-.2-7.06c-.6-18.8-1.19-37.34-1.78-55.86-.38-9.86-1.13-19.74-1.51-29.59-1.51-29.61-1.13-65.79-3.78-85.5-.44-3.26-.44-9.83-1.19-13.17zm-16.39-36.77c1.61 34.67 2.34 73.1 2 105.83 0 26.33 2.26 101.94 6.8 88.78-8.2-32.53-.13-217.42-8.8-194.57zm7.08-288.39l-13.59-9.84c.4 18.3.7 36 .7 55.59l-.86-55.9zm1.37 154.17c-1.3-21.09-2.06-43-2.67-64.87q-.21-8.28-.43-16.54c-.14-6.69-.28-13.38-.42-20-.32-13.95-.64-27.78-1-41.35l1.67 1.21c8 5.79 16.6 12.25 25.23 18.84l25.17 19.33c13.37 10.26 26.53 20.11 39.08 28.07l.69-.9-2.83-1.69c-9-7.21-16-13.35-23.53-19.49l1.41.95-2.36-1.73c-2.5-2-5.08-4.09-7.81-6.19l-4.24-3.19-6.1-4.48-12.21-8.7-36.92-27.6c.28 21.29.61 42.16 1.09 61.74.06 2.32.13 4.63.19 6.94.07 1.81.13 3.62.2 5.42q.23 5.4.45 10.71c.33 7.08.7 14 1.13 20.81 1.14 23 3 42.74 4.16 65.76.05-6.55.43-16.43.05-23.01z"/>
  <path class="cls-1" d="M1378.19 372.49l34.87 25.12 27.31 19c43.12 30.52 91.64 68.6 137.19 102.38 2 .14 2.85-.64 1.94-2.81-48.11-38.46-98.2-74.32-146.65-112.27l-1.22-.78c-22.27-14.23-55.73-40.84-83-59.35-13.74-9.11-27.24-18.51-40.72-28s-26.77-18.8-40.92-28.46l56.17 42.68c18.39 14 36.66 28 55.03 42.49zM1256.43 476.67q-.35-19.32-.7-38.87c-.89-36.31-2-68.55-3.39-101.51q.3 36.29.32 73c.4 24.56 2.34 45.35 3.77 67.38z"/>
  <path class="cls-1" d="M1251.2 312.85c.1 1.16.2 2.32.29 3.47.1 2.24.2 4.46.29 6.68.19 4.45.38 8.87.56 13.29l-.15-17.34-.18-9.66q-.19-8.71-.4-17.37l15.08 10.94 4.68 3.22 8.77 6.37 17.71 12.88 35.44 25.75q35.46 25.73 71.08 51.24l16 11.61c-31.6-24.43-63.17-48.84-94.23-72.54q-23.31-17.76-46.16-34.92l-9.8-7.29-8.09-5.94-15.23-11c.31 9.8.7 19.07 1.16 27.49l.36 6.15q.2 4.6.39 9.16.43 9.35.88 18.5c.08 1.69.18 3.58.27 5.37q-.06-10.31-.14-20.56-.09-8.49-.18-16.94-.22-12.31-.44-24.51l23.61 17.3c-8.34-5.85-16-11.18-22.9-15.85.41 8.91.85 17.12 1.33 24.5zM1367 364.47c2.52 1.95 5 3.88 7.5 5.8l8.88 6.33-5.19-4.11zM1298.51 299.63l-1-.78-12.66-9.32-17.7-13.24c-12.1-8.64-24-17.24-36.15-26.05.12 5.33.25 11.07.38 16.85-.07-5.52-.13-11-.19-16.46 12.7 9.5 25.35 18.92 37.61 27.93l9.13 6.67 4.51 3.27 3.68 2.63c4.34 3.01 8.46 5.87 12.39 8.5zM1220.12 272.27v23.65c.23 3.65.45 7.26.68 10.91 0-5.43 0-10.92.08-16.4zM1226.23 485.93c-1.59-58.28-3.09-112.92-4.57-167.08l-.21-2v-.5l-.05-.83-.11-1.73c-.15-2.33-.29-4.66-.44-7v31.32c0 9 .15 18 .32 26.86.36 17.75 1 35.11 2 51.78.38 6.56 1.51 16.45 1.51 23 .36 31.13 1.56 60.77 2.65 90.34-.34-14.13-.69-28.41-1-43z"/>
  <path class="cls-2" d="M1744 499.55l-59.64-45.75-444.92-355.91H1104.1l1 66.33v748.5l-1 66.32h135.34l444.85-355.89 59.62-45.73 49.09-38.96zm-504.56 310.11V267.25l353.62 271.21z"/>
  <path class="cls-1" d="M1249.59 784v6a1.78 1.78 0 00.38-.1c-.14-2.18-.26-4.1-.38-5.9zM1245.06 778.19v1.88c.1-.22.2-.25.3-.37-.1-.47-.2-.94-.3-1.51zM1250 789.85c1.38-.45 2.76-2.92 4.15.1v13.15c.75 3.28 1.51 0 2.26 0 0 3.28 0 6.56.38 6.56 1 2.15 1.65-1.4 1.89-7.77-4.26-14.15-5.77-50.2-8.68-12.04zM1247 763.63v17.3c.86 1.79 1.73 4.23 2.6 2.48a124.06 124.06 0 00-2.6-19.78z"/>
  <path class="cls-1" d="M1273.24 776.34c.13.19 0 .47-2.59 2l2.59-2c-.1-.19-.44-.33.65-1.34-8.83 7.31-19.2 15.78-29.45 23.79-1.1 1.35-2.15 2.66-3.08 3.89 25.39-19.76 50.92-39.34 70.59-57-14.78 11.37-24.54 19.69-38.71 30.66zM1240.76 806l-2.59 2c2.55-1.51 2.72-1.79 2.59-2zM1482.58 467.12c-16-11.83-30.58-21.39-45.33-31.1 30.33 21.9 61.09 44.82 84.61 61zM1364.69 386.64c19.07 15.52 35.73 27.11 51.85 37.86l-47.14-34.95zM1387.77 401.37c17.84 13.7 33.73 24.26 49.48 34.65-17.15-12.4-34.06-24.36-49.48-34.65zM1446.4 674.33c-11.07 9.87-17.9 15.71-21.87 18.91-1.47 1.79-3.44 4.12-6.16 7.23l2.09-1.6 35.7-29.74c4.79-4.28 9.32-8.4 13-12zM1424.53 693.24c12.54-15.31-15.51 12.49 0 0zM1486 616.19l1.79-1.38 5.07-4.21zM1557.1 501.77l36.37 26.91-21-15.7-15.61-11.49c-10.25-7.49-20.12-14.59-29.2-20.84 2.6 2 5 4.3 7.6 6.3a244.13 244.13 0 0121.84 14.82z"/>
  <path class="cls-1" d="M1406.75 681.41c27.79-22.52 54.9-44.84 81-66.6 17.77-13.68 35.28-27.26 52.36-40.69l25.27-20c6.78-5.45 13.24-10.71 19.26-15.67l-11.08-7.87-10.73-7.5q-13.33-9.45-26.28-18.36c-43.55-29.6-116.14-86.23-161.55-113.46q6.58 5.36 12.8 10.11c-6.44-4.29-12.58-8.25-18.37-11.82l-71-53-32.58-24.45-6.55-4.63q.09 3.72.18 7.53 0 17.65.06 35.59c0 13.16 1.14 23 1.14 36.18.07 13.33.14 26.43.21 39.48.08.05.17-.12.25-.48.48 54.17 1.22 107.47 2.46 163.57.38 26.31 0 52.65 0 78.93 0 9.87-1.51 9.87-1.89 16.45-1.88 26.3-3.4 46-4.15 75.61h-1.14c.13 4.54.12 8.61 0 11.95-4.24-14.15-5.75-50.19-8.68-12-.14-2.12-.26-4-.37-5.84v-.63a121.77 121.77 0 00-2.6-19.78v17.3c-.53-1.09-1.06-1.8-1.59-1.21l-.3-1.52v-4.7a7.88 7.88 0 00-.87-1.87c-1.63-15.09-2.47-38.87-4-34.29-.81 3.51-.11 14.54.38 27.06-.15.75-.28 1.62-.38 2.51-.38-16.44-2.65 0-3-9.86l-.38-39.44c0-53.54-.38-98.67-1.51-151.27 0-2.32-.09-4.62-.14-6.92-.47-25.51-.55-49.58-.25-74.55.26 1.59.5 3.26.73 5 .24-20.09.33-40.21-.25-60.33-.63-21.72-1.26-43.43-1.9-65.44q-.2-8.25-.4-16.57-.18-11.13-.37-22.36-.27-23.61-.55-47.74l20.53 15.52 42.53 32.21 32.62 24.39c21.79 16.22 43.74 32.4 66.32 48.93-18.65-13.25-37.24-26.55-56-40.62-8.33-6.44-16.64-12.84-24.77-19 8.31 6.52 16.55 12.81 24.77 19 32.07 24.78 64.82 50.48 91.76 66.67 2.49 2.31 2.26 2.61 4.86 4.6 18.27 14 36.3 28.32 52.87 39.12.23-.3 8.07 5.71 5.92 3.11 15.89 11.71 34.16 25.73 50.27 37.13 6.93 5 14.12 9.61 21.44 14.1l10.24 7.4 5.15 3.71 8.41 6.23 37.91 28.16-27.82 21.89-14.2 11.25-5.06 4.06-3.89 3.17-31.54 25.63-65.63 53.15c-14.77 11.78-32.06 25.06-47.23 36.7 21.56-18.13 43.94-36.61 66.73-55.27 22.84-17.17 44.55-33.82 61.24-49.06 4-3.47 7.88-6.91 11.84-10.37l-73.08 59.43c-13.48 10.13-27.35 20.44-40.8 30.74l.76-.68 31.06-25.55c20.31-15.27 39.7-30.12 55.5-43.94 2-1.73 3.91-3.45 5.74-5.13l11.84-10.36-45.28 36.78-27.76 22.65-18 13.54c.57-.57 1.18-1.16 1.7-1.67 5-4.32 16.92-19.05 8.41-14-20.06 15.44-43.91 34.32-62.77 49.31l-23.46 18.64-6.87 5.41-1.86 1.43a3.3 3.3 0 01-.67.45c-3.51.79 64.12-53.58 61.29-51.88l-11.83 8.52c3.47-3 6.86-6 9.94-8.86 7.59-6.3 18.26-14 23-18.62 16.88-15.8 38.22-31.21 58.17-48.41 12.37-10.93 27.09-24.12 41.82-37.32-.48-.59 7.68-6.37 4.5-4.88 7.27-5.57 15.2-11.66 21.49-16.83-7.16-5.15-13.46-9.28-17.34-10.87l-1-.7c-.92-.71-2.36-1.65-3.88-2.6l-4-3.13-4.36-3.33q-4.31-3.26-8.41-6.25c-5.5-4-10.79-7.73-16-11.34l-32.43-22c-7.76-5.71-15.61-11.57-23.6-17.7 5.22 4 12.81 10.3 18.27 14l5.33 3.69c20.11 14.79 39.58 28.45 58.9 42.24l3 1.82c1.06.63 2.2 1.33 3.31 2l3.53 2.8c.43.14.89.31 1.37.5 4.91 3.38 10.13 7.06 15.47 10.87l-17.77 14.65-8.9 7.39-8.34 7.07c-28.17 23.23-59.42 46.4-89.09 68.88l42.17-34.92-49.72 40.66-7.5 5.73-15.68 12 14.77-10.82-28 23.22c-51.24 41.53-104.68 83.67-158 123.83.76-1.16 1.67-2.44 2.72-3.82 25.39-19.75 50.91-39.33 70.57-57-14.74 11.31-24.52 19.65-38.69 30.61-.12-.18-.45-.32.65-1.34-8.83 7.31-19.21 15.78-29.46 23.79 2.71-3.31 5.83-6.92 8.94-10.52 4.77-4.61 12.59-10.61 20.2-16.92 33.46-26.49 65.5-50.82 98.3-77.13 29.79-22.66 59.54-45.3 88.63-67.7-28.34 23.15-54.27 44.41-79.31 65.34zm-157.48 8.79c-.18-3.37-.36-6.86-.55-10.34-.09.54-.18 1.06-.26 1.56a49.1 49.1 0 00.81 8.78zm.36-76.92c-.65 22.58.22 52.3.81 81 .1.16.2.26.29.26.34-24.07-.58-53.71-1.1-81.26zm7.85-90.19l-.12.54a.48.48 0 01.17 0zm93.26-162.92c-22-14.51-48.13-34.53-74.68-53.94-1-.75-2-1.48-3-2.2-.65-.45-1.32-.88-2-1.3-1.34-.85-2.68-1.64-4-2.43a76.75 76.75 0 01-8.32-5.43c-3.54-2.49-6.2-4.2-8.46-5.59.3 4.27.61 7.94.8 11.76.26-1.4.51-2.69.76-3.89a107.09 107.09 0 00.71 14.71c.1 1.05.2 2.09.3 3.16l.06.77v1.06q0 1.77.09 3.57c.1 4.83.1 10-.09 15.72.38 0 1.14 3.28 1.14 6.57.37 16.44-.38 32.9.37 46.05.38 16.44.38 32.87 1.14 46 0 3.3 1.13 9.86 1.51 16.45q.18 12 .35 24.08c.11-.36.21-.69.31-1 0-6.53 0-13.17-.28-19.79-.76-19.75-1.52-42.76-1.89-62.48-.33-21.72-.81-42.81-1.38-63.52l-.21-7.75-.11-3.86v-1.13l-.06-.78c-.15-2.21-.31-4.4-.46-6.59q-.49-7.49-1-14.9l5.88 3.82c3.58 2.28 7.67 4.46 12.21 7.47l1.3.82 2.28 1.6 4.7 3.31 9.52 6.84c6.36 4.62 12.77 9.27 18.92 13.75 12.33 8.92 23.76 17 32.38 21.92 2.91 1.74 8.13 5.74 11.21 7.15zm39.14 9.38c-28.49-19.83-59.42-42.63-85.21-62.8-3.39-2.61-7.86-6-12.92-9.69l-19-13.87c-15-10.91-29.73-21.29-38.82-27.06.52 8 1.1 14.19 1.76 17.94s1.38 5.11 2.17 3.84c-.78-4.42-1.41-10.39-1.92-17.71 5.34 3.32 12.66 8.36 21.25 14.54l13.74 10 14.3 10.64c16.91 12.63 35.15 26.65 51.62 39.2 32.96 25.14 58.85 44.42 53.03 34.97zm217.64 179.66l13.31-10.75-21.69-16-11-8.27-10.93-8.32 43.92 32.6zm-116.27-91.27c17.52 11.79 35.35 24.52 53.1 37.36l59.24 43.16-1.64 1.33c-7.82 6.36-16.35 13-25 19.65l-21.26 16.28c-13.37 10.25-26.3 20.41-37.24 30.46l.69.9 2.37-2.29c9.3-6.85 17-12 24.92-17.67l-1.28 1.11 2.28-1.83c5.25-3.78 10.59-7.81 16.54-12.75l8.22-7 35.88-28.23-25-18.6q-5.83-4.27-11.6-8.53l-9-6.45c-11.89-8.51-23.57-16.67-34.85-24.23-19-13.11-35.75-23.61-54.71-36.72 5.27 4.03 12.88 10.34 18.34 14.05z"/>
  <path class="cls-1" d="M1455.45 645.18l-33.31 27.16-25.47 21.44c-40.65 33.73-90 70.72-134.45 106-.65 1.9-.12 2.92 2.22 2.61 49.61-36.5 97.23-75.57 146.45-112.53l1.07-1c19.51-17.82 53.89-43.24 78.83-64.75 24.72-21.81 50.35-42.42 75.28-63.92-37.7 28.9-73.07 57.03-110.62 84.99zM1416.54 424.5l31.28 23.1c29.35 21.39 55.62 40.11 82.61 59.08q-29-21.84-58.14-44.18c-19.72-14.62-37.37-25.76-55.75-38z"/>
  <path class="cls-1" d="M1552.34 522.05l-21.91-15.37 27.67 20.82 4.54 3.35 3.42 2.5 7 5.11q-3.63 3-7.25 5.87c-2.7 2.18-3.91 3.22-9.93 7.94-45.39 36.75-90.92 73.36-136 110.46l-15.37 12.43C1436.28 651 1468 626.81 1499 603q23.2-17.9 45.69-35.52l21.31-16.91 14.86-12.11-23.86-16.89q-15.57-11.07-30.67-21.47l-4.43-3 32.75 24.71 7.79 5.85 4.83 3.57 9.88 7.27-11.41 9.13-16.98 13.37 9.5-7.7 4.42-3.6 2.79-2.36 10.46-8.89-10.17-7-4.82-3.27zM1466.09 636.45l-7.55 5.74-8.41 6.93 5.32-3.94zM1546.47 587.12l1-.72 24.76-19.71 1.56-1.31 2.17-1.79 4.4-3.6 8.8-7.19 17.69-14.34-13.38-9.78 13.06 9.78-18.77 14.8-9.25 7.34-8 6.43c-8.76 7.1-16.9 13.87-24.04 20.09zM1589.75 511.58l-14.87-11.41-5.17-3.1 7.33 5.71 2.07 1.35 3.36 2.34zM1427.58 394.9l135.36 98.1 6.77 4.11c-28.7-22.3-57.67-43.92-85.39-62.54-5.44-3.7-14-8.81-19.18-12.81-24.92-18.66-49.17-35.75-73.3-52.87l34.76 25.33zM1713.73 463.57l8.43 6.46c.08-.1.06-.26.09-.4zM1702.7 460.82l2.66 2a2.28 2.28 0 01-.33-.64zM1722.26 469.62c.21-1.58-2.45-5.36 2.68-3.17l18.64 14.3c5.12 3 .92-1.2 1.38-1.8 4.63 3.55 9.25 7.09 9.52 6.83l1.7 1.5c1.26.74 1.51.54.65-.69l-1.8-1.58c-.89-1.28-4.81-4.68-10.42-9.17-22.61-12.01-74.68-50.05-22.35-6.22zM1683.28 443.36l6 4.82 6.13 4.71 12.28 9.42c3.08 1.27 7.08 3.24 5.13.65-6.55-4.62-11.88-8.28-16.61-11.38-2.37-1.56-4.59-3-6.74-4.3s-4.12-2.66-6.19-3.92zM1781.32 555.23c-.18-.16.17-.59 5.69-4.54l-5.69 4.54c.12.18.75.08-1.78 2.26l23.26-19-40.53-31.49c-2.62-1.56-5.16-3.06-7.5-4.4l45.6 35.91-29.37 23.55-23.81 19.44.45-.4-.17.17-.35.28c-13 10.38-25.37 20.39-36.75 29.92 14.08-10.81 25.71-20 37.36-29.13l.38-.3.23-.24-.53.48 15.29-12.43zM1749.85 501.55l-4.61-3.63c3.93 3.54 4.43 3.78 4.61 3.63zM1094.43 851.88c-.33-35.55-1.64-66.74-2.9-98.27 1 66.93 1.92 135.57 2.65 186.65.53-29.26.18-58.76.25-88.38zM1086.54 596.75c-.7 44 .24 80.27 1.52 114.89q-.48-52.83-1-105c-.14-3.29-.34-6.74-.52-9.89zM1088.9 645.57c0 40.27 1.28 74.34 2.63 108-.61-37.83-1.4-74.88-2.63-108zM1484.54 759.17c20-17.4 32.26-27.82 39.31-33.62 2.83-2.94 6.6-6.79 11.76-11.95l-3.68 2.94-63.77 53.46c-8.66 7.53-16.88 14.77-23.66 21zM1523.85 725.55c-24.15 25.1 27.55-22.65 0 0zM1404.82 851.16l-3.17 2.54-9 7.56zM1123 971.82l32.44-.32 34.59-.47-43.72.4-20.27.23-14.76.29c-.15-14.58-.28-28.35-.41-41.12-.09 5.87-.55 11.79-.64 17.67.17 3.43.36 7.43.58 11.84.17 3.73.31 7.64.39 11.68 3.93-.13 7.89-.2 11.8-.2z"/>
  <path class="cls-1" d="M1546 733.69c-49.4 40.74-97.7 80.93-144.38 120-46.82 37.54-92.71 74.58-136.87 110.66l-16.59 13.58c-1.64 1.32-3.25 2.69-4.93 3.93-.41.32-.83.63-1.25.92l-.63.45c-.21.15-.4.35-.68.3l-3.09.18c-2 .16-4.19.09-6.28.14l-5.32.07-41.57.66-87.8 1.8c0-4.22-.05-8.16-.08-12.08-.11-13.23-.23-27.69-.35-43.09q-.07-10.28-.13-21.13t-.35-22.18c-.42-30.17-.86-62.54-1.3-94.92-1-64.75-2.27-129.5-5.29-176.59q-.24 15.18-.24 29.17c-.51-13.81-1.11-26.84-1.79-39-.66-77.74-1.19-154.76-1.56-232.19q-.21-58.08-.42-116.61-.06-29.31-.11-58.81v-29.57c0-9.88-.25-19.73-.36-29.63-.08-3.81-.16-7.46-.24-11-.14-4.81-.27-9.47-.41-14.06-.36-12.72-.71-25-1.07-37.74 13.34-.18 27.46-.32 43-.32l72-.22c.08-.08-.21-.16-.86-.25l38.48-.19h2.16a9.88 9.88 0 012.12.12l4.08.65a15.23 15.23 0 017.59 2.93 30.43 30.43 0 013.46 2.48l3.38 2.69 4.25 3.37 14.22 11.22 57 44.9L1450 235.42c37 29.12 73.57 58.86 110.3 88.24 13.78 11 12.85 12.22 21.81 19.88 35.59 30.88 62.23 54.13 103.11 87.8l-.7.89 16.78 13.22c-5.71-2.95-13.1-7.75-20.25-12.48s-14-9.37-18.64-12.23c-9.18-5.72-9.13-4.25 16.64 18.24l-8.39-6.24-.89-.71v.08c-12.93-9.52-21-15-29.25-20.07l24.18 19.34c-1.86-.8-3.17-1.17-2.67-.09l-2.31-1.47-6.59-5.27a21.4 21.4 0 00-3.15-1.4c-22.09-15.6-55.86-41.53-50.44-35.18 4.41 4.56 20.27 16.35 38.07 30 1 1 2.1 2 3.28 3.11-23.22-18.1-1.64 2.08-15.65-8.65l-55.38-43.82c-74.86-59.89-138.19-110.07-212.44-168l-9.77-7.65c-36-28.15-69.66-55-104.39-83.18l7.4 5-10-8.07-2-1.6-1-.8c-.17-.12-.31-.31-.51-.36h-32.5q-27 0-54 .43l-22.94.4-16.4.39q.36 10 .74 20.1.41 13.74.82 27.52c.33 9.2.46 18.41.57 27.65s.24 18.51.37 27.81c.46 37.23.81 75.05 1 113.88.3 98.71 1.1 193.76 2.36 294-.84-41-1.61-81.85-1.87-123.86v-55.89c-.13 18.92-.1 37.48 0 55.89-.15 72.56-.6 147.11 2.94 203-.31 6.05-.69 6.05-.69 11.92 0 41.24-.38 82.44 1.14 117.77.37 0 .37 17.7 1.13 11.81.31 35.35.63 76.57.61 112V955.38l.2 2.51c.15 1.62.35 3.07.58 4.36 1.77-.25 3.41-.53 4.87-.82l1.59-.1H1131.06l11.84-.19 23.66-.38 47.37-.76 11.86-.19 5.21-.09 1.11-.1h.27c.09 0 .14-.12.22-.18l.4-.39.4-.38.1-.09.26-.22 1.14-1 9.18-7.58 36.9-30.49 152.41-125.7c26.2-21.43 56.68-45.83 83.43-67.23-38.58 32.48-78.49 65.75-119.1 99.43-40.12 31.75-78.38 62.36-108.67 89.08L1267.81 933l130-107.44 71.72-56.81-1.37 1.2-55.37 46c-35.68 28.23-69.85 55.54-98.3 80l-10.39 9-21.31 18.36 80.59-66.53 49.41-40.78 31.71-25-3.12 2.87c-9 7.69-32 31.77-17.51 21.63 35.36-28.35 77.6-62.75 111-90l41.58-33.92 12.16-9.86c1.42-1.15 2.53-2 3.27-2.62l.86-.67a1.34 1.34 0 01.3-.2c5.5-2.47-114.58 96.14-109.76 92.77l20.72-16-18 15.63c-13.55 11.32-32.18 25.75-40.93 33.71-30.76 27.51-68 56.36-103.85 87L1265.66 957c.47.59-13.59 11.35-8.5 8.26l-9.88 7.9-5 4.05-2.53 2c-.19.24-.51.09-.77.14h-2.42c-8.66 0-16.91.1-24.72.24-15.54.28-28.71.83-35.83 1.93l-2.41.06c-2.34 0-5.68.13-9.23.3-11.09-.08-21.5-.06-31.46 0l-16 .2-16.25.29c-.08-7.91-.15-15.69-.23-23.44-.12-7-.24-14-.36-21.09-.26-13.71-.51-27.68-1-42.7-.19-17.23-.32-34.76-.32-52.81 0 11.79-.38 29.43 0 41.23.11 3.91.21 7.78.32 11.58 0 7.17.23 14.28.22 21.33s0 14.07 0 21c0 15.53.08 30.87.12 46.1l50.68-.92c3.47-.23 9-.59 14.27-.84l9.23.08c.73-.16 1.54-.3 2.41-.44l31.22-.7 32-.63h.51c.17 0 .28-.18.42-.26l.8-.64 1.6-1.29 3.15-2.6 6-5 11.55-9.62c7.53-6.3 14.7-12.33 21.29-18 50.2-41.81 105-84.83 157.15-126.29l-75.21 62.79L1455 806l13.22-10.55 27.61-22.09-25.83 20.19 49.94-41.74q54-44.53 109.34-89.59c18.43-15 36.83-30 55.43-44.83l56.52-43.55-.45.39.19-.18.2-.16q22.47-17.76 44.82-35.41l-8.16-6.54q3.09 1.56 7.15 3.92l3.33 2.62c-15.49 12.42-31 24.81-46 36.85l-.13.11-.09.1.26-.23c-13.39 10.42-26.44 20.65-38.88 30.57l-18.16 14.63c-5.84 4.83-11.4 9.7-16.8 14.38 6.51-5.17 12.41-10.08 18.19-14.59l16.75-13.14c10.93-8.61 21.74-17.13 34.45-26.92.11.18.54.24-1.49 2l7-5.57-.09.09.06-.05 22.14-18.19 22-17.79c-4 4.39-9.34 9.89-15.52 16-1.79 1.61-3.63 3.22-5.63 4.93l-6.43 5.4-14.63 12 .18-.16-.08.08-.13.1-9.73 7.74q-22.62 17.58-44.68 34.73c-3.72 2.82-7.35 5.74-11 8.68L1669 639l-21.61 17.43c-28.77 23.21-57.41 46.35-86.51 70.22l-156 124.55c50.24-41.64 96.41-79.97 141.12-117.51zm36-374.27l-14.79-11.14 2 2a155.83 155.83 0 0012.86 9.14zm-107.3-86.31c31.16 25.76 73.24 58.32 113.76 90 .3.1.5.14.55.07-33.4-27.24-75.4-59.66-114.24-90.07zm-121.18-107c.22.22.46.46.68.7v-.19zm-254.53 382c-1.89-47.09-1.89-106-2.65-164.84 0-17.66-1.51-35.27-1.51-58.84-.37-29.44-1.13-47.08-1.51-70.65l-.75 17.7c.37-41.23-1.89-64.77-1.14-106-.35 0-1.2-5.86-1.29-11.74-.26-9.54-.4-19.08-.51-28.43-.18-14.49-.36-28.66-.53-42.2l22.13-.08 10.54-.11c3.33 0 7.43-.1 8.91-.16 29.43-.38 58.84-.38 82.41-1.13 3 0 7.37-.29 12.52-.62l4-.25 1-.07 1.63-.06 3.64-.12c2.51-.24 4.81.27 7.26.48l1.82.21a11.92 11.92 0 011.65.68 20.22 20.22 0 013.2 1.83 41.79 41.79 0 013.71 2.75l3.61 2.85 4.23 3.33 8.47 6.66 16.92 13.33-1.18-1.33c-9.12-7.32-18.42-14.71-27.83-21.91l-4.23-3.29c-.77-.59-1.52-1.22-2.31-1.78l-2.4-1.57c-3.11-2.31-7.09-2.18-10.87-2.73l-9.93.14-7 .14-28.52.52-55.91.81L1088 82q.48 22.47 1 44.61.39 14.13.78 28.07c.32 9.29.39 18.56.54 27.78s.29 18.4.44 27.55c.64 36.56 1.28 72.54 1.92 108.52.5 17.64 1 35.34 1.51 53 1.51 53 1.13 117.75 3.77 153 .34 5.91.34 17.68 1.1 23.58zm16.45 65.89c-1.61-62.09-2.34-130.88-2-189.5 0-47.16-2.27-182.53-6.81-158.94 8.22 58.23.15 389.31 8.81 348.44zm114.67 347.77c-24.66.59-48.51 1.12-76.54 1.12zM1107 854.27c.68 20.27 1.29 41 1.64 61.84.09 19.29.18 38.76.27 58.2l105.87-1.74 20.6-.29h1c.33 0 .7.07.93-.24l1.58-1.29 3.27-2.65 8.84-7.1 35.58-28.43c23.57-18.85 46.43-37.39 66.3-55l-.71-.89-4.35 4c-16.28 12.75-29.66 22.68-43.39 33.26l2.3-2-4 3.31c-9.15 7.08-18.55 14.53-29.17 23.4l-14.71 12.45-16.43 13.39-5.9 4.84c-.36.5-1 .25-1.51.32h-1.62l-3.78.05-42.47.45-42 .59-10.37.17-8.91.2-14.13.43q-.2-8.58-.39-16.94-.21-12.08-.42-23.78c-.14-20.62-1.12-39.75-1.82-58.89s-1.51-38.28-2.08-58.89c-.02 11.75-.41 29.44-.02 41.23z"/>
  <path class="cls-1" d="M1460.63 800.87l59.26-49.06 45.57-38.38c53.47-44.42 113.81-93.95 175.1-140.4l-.55.48.21-.2.26-.22 43.12-34.61-11.7-9.09c-2.87-.86-3.81-.15-3.2 1.82l8.87 7.27-15.19 11.82-24.56 19.43-.44.35-.4.4 1-.85-49.35 38c-4.09 3.2-8.25 6.32-12.28 9.58l-12.14 9.79-24.21 19.6q-48.4 39.12-97.11 77.83l-2 1.71c-35.4 31.22-95.64 78.45-140.44 116.71-44.57 38.55-90.08 75.93-134.85 114.17 66.49-53.15 129.14-104.31 195.03-156.15zM1088.06 711.64q.35 34.58.7 69.58c.53 32.49 1 63.17 1.52 93.09.24 15 .67 29.75.8 44.46q.09 11 .16 22l.09 11v15.58q.2-18.48.4-37l.18-16.27v-16.32q0-32.67-.09-65.56c-.39-43.91-2.29-81.13-3.76-120.56z"/>
  <path class="cls-1" d="M1135.94 990.8l-8.43.2-12 .2-24.13.38V967.4c-.09 8.21-.19 16.4-.28 24.47l101-.52 21.91-.15 10.94-.08h9.28a38.94 38.94 0 004.06-.11c2.6-.36 5.43-.08 7.48-1.94 1.1-.76 2.21-1.49 3.28-2.34l3.17-2.56 8.92-7.25 17-13.77Q1399 863.37 1519.85 763.4l27.3-22.5c-71.69 57.1-143.28 114.1-212.09 169.6l-51 41.31-25 20.39-6.21 5.07-3.31 2.71c-1.34 1.07-2.65 2.2-4 3.22l-2.06 1.5-1 .69-.52.35a2.51 2.51 0 01-.62.07l-5 .36-9.13.09-62.48.93-70 1.28c0-6.89 0-13.64-.08-20.3v-10.09c0-2.75-.05-5.49-.08-8.22 0-3-.09-6.4-.14-9.6-.19 16.51-.38 33-.56 49.11l108.36-.55 24.35-.17h6.67c1.41 0 2.84 0 4.22-.05l4.12-.35 1-.09c.36 0 .59-.31.89-.45.58-.37 1.15-.71 1.72-1.12 1.13-.81 2.27-1.59 3.36-2.5l5.74-4.65 37.66-30.6-31.48 26-7.87 6.5c-1.7 1.37-3.65 3-5.51 4.45-1 .68-1.91 1.42-2.89 2-.51.26-.93.73-1.51.82l-1.74.17-3.49.33c-1.19.07-2.4 0-3.6.07l-5.9.08-10.21.16z"/>
  <path class="cls-1" d="M1441.67 816.61L1455 806l15-12.49-9.32 7.32zM1304.44 913.89l-1.75 1.34-43.88 35.85-15.29 12.86-3.6 3-2.43 2.08c-.41.35-.81.72-1.24 1l-1.59.06-3.24.11-41.37.76 38-.34 7.1-.09a4.72 4.72 0 001.47-.13l1.16-1 2.31-1.92 13.69-11.24c18.41-15.08 35.67-29.48 50.66-42.34zM1167.68 959.73h-23.56l-10.71.68 16.64.07zM1118.26 695.16c.74 49.54 1.45 97.61 2.14 144.76q.55 35.37 1.09 70.12 0 17.41.09 34.72v12.06l.21 4.68 4.28-.23c1.74-.28 1-.56 7.24-.86h-10.35c.06-7.46.13-14.9.19-22.28.12-13.67.23-27.24 0-40.64-.37-26.82-1-53.09-1.86-78.44-.38-11.76-1.51-29.47-1.51-41.23-.36-55.75-1.56-108.84-2.65-161.79.34 25.32.69 50.88 1 77 .12.68.12 1.39.13 2.13z"/>
  <g class="cls-3">
    <path class="cls-1" d="M1141.74 206.19c-.41 17.33-.89-6.83-1.12 19.6-.5-7-1-34.29-.9-58.15l.49-20.75c.5 20.82 1.46 31.72 1.53 59.3zM654.22 84c8.75.12 6.6.5 5.73.73-8.17.07-16.91 0-22.59-.27-2.63-.32 8.78-.4 16.86-.46zM1068.3 79.88c15.52.26 34.35.32 52.38.51-.07 5.49-.14 10.91-.21 16.17-.53 5.9-1-.79-1.48-14.49-8.13.26-18.59.49-30.28.7l-35.83.51c-11.13.17-25.27-.07-29.54-.34-8-1-20.85-1.87 6.58-2.69 3.49-.48 13.13-.34 21.53-.2l6 .1h6.16c3.66.04 5.68-.04 4.69-.27zM766.32 92.49l3.63-.43c8.74.11 4.45.87 18.28 1l22.77-.73c13.83.15 4.69.45 3.75.69 50.89-.27 68.43.49 123 .3l-15.75.84c14.36.34 37.33.19 48.39.54-36.11.69 15.56 1.22 16.41 2-7.21.34-17.86 1.21-40.16 1.55 15.71.2 32.5.77 45.71 1.25h-20.2c-5.12.49 4.18.79 19.22.8-18.36 0-7.56.77-13.61 1 16.28.12 32.17 0 48.47-.06s33.62-.05 49.42.33c15 .48 14.68 1.08 21.91 1.81-13.16 0-23.9.31-33.12.58l-14.19.36c-4.79.1-9.39.16-14 .16-17.07-.66-63.24-.45-64.92-1.52-11.51.07-25.39.44-34.14.83 8.43.55 35.56.15 44 .69-37.11.42-54 .37-91.74.6l6.62.5c-39.09-.74-105.43.45-128.64 0-41.5-1-81.13-2.43-90.37-3.76 35.25-.47-1.45-1.5 1.91-2 11.18-.17 29.24.25 25.73-.35-19.27-.8-35.67.37-43.07-.92 35.61-.89 14.93-2.66 26.77-3.68 9.74-1.15 58.47 0 52.54-1.35-26.45.06-1.18-.37-7.17-.69 8.76-.47 17.17-.45 32.55-.34zM1108.7 372.1c-.1 15.4-.59 10.15-.86 14.37-.78 7.46-.78-29.2-.81-45.83.23-17.46.79-19.28 1.26-17.4.77 4.29.51 33.47.41 48.86zM1098.46 155.65c-.16 13.82-.21 30.61-.62 36.94-.6.27-1.21.56-1.53-15.2-.08-12.36-.14-22.82-.2-32.56v-6.46c0-2.12 0-4 .06-5.94.06-4 .17-7.9.35-12 .37-9 .89-8.88 1.3-2.15.2 3.36.37 8.35.49 14.53 0 3.12.08 6.52.12 10.13.02 3.99.02 8.26.03 12.71zM1118.55 880.47c.06 44.88-1 31.58-1.78 42.38-.68-51.31-1.38 26.11-2.06-18.54-.07-11.46-.16-26.22.24-35.89 1.28 22.71 1.18-72.18 2.42-44.32.63 4.57.89 35.58 1.18 56.37zM1110 630.37c-.2 15.67-.83 24.36-1.18 17.07-.48-5.09-.44-28.63-.38-42.21.19-15.63.83-24.35 1.18-13.76.38 10.27.25 24.11.38 38.9zM1104.81 523c-.21 9-.42 3-.69 7.2-.44-7-.2-24.43-.22-34.41l.72-12.26c.31 12.47.24 22.65.19 39.47zM1108.16 681.21c-.36 7.76-.73 12.19-1.16 8.6-.18-17.74-.6-36.53 0-51.76.29-12.72.6-3.63 1.06-5.11.29 14.2.29 32.52.1 48.27zM1103.05 572.05c-.29 15.91-.2 30.66-.12 45.38-.65 2.12-1 33.11-1.34 42.76-.12-28.08-1.06-10-1.64-18.23-.59-29.84-.6-88.33.55-115.34.82 5.77 2.08-29.95 2.2 16.41.08 11.56.02 25.05.35 29.02zM1093.43 340.2l-.37 59.68c-.94 18-2.26-6.25-2.76 3.69-.12-11.34 0-29.59-.06-45s-.16-27.87-.72-27.72c-.35-25.66-.2-57.92.41-79.83 1.58-23.4 2 80.6 3.38 42.73-.38 12.98-.31 29.49.12 46.45zM1106.93 733.47c-.25 14.14-.64 27.08-1 34.91-.22-12.72-.65-19.66-1-32.09.29-15.87.56-41.8 1.21-43.79a15 15 0 01.36 3.74c.11 2.36.21 5.71.28 9.64.22 7.88.22 18.12.15 27.59zM1106.31 862.4c-.92 6.24-.73-27.86-1.19-44.69 0-11.8.18-22.24.48-31.6.46-4.79.84-2.59 1.2 11.21.26 25.95-.51 40.03-.49 65.08zM959.19 965c.17-27.09.67-12.91 1-14.54.2 10.33.3 23.36.2 36.86l10.26.11c21.21.43 11.58 1-11.55 1.19.01-6.69.02-14.8.09-23.62zM1057 975.64c-6.18-.1-7.37-.35-4.69-.55 1.33-.11 3.69-.2 6.77-.26 2.85-.06 6.44-.09 10.67-.07l16.25.75c-10.53.08-17.23.33-29 .13zM811.51 722.53c0 3.3-.09 3.63-.18 3.9l.12-8.7c.09-.32.01 3.27.06 4.8zM959 421.72c.76-14.15 2.56-6.42 2.09-48.41-.55-22.49-.47-43.18-.3-64.17.08-10.49.17-21.05.26-31.95.06-9.18.08-18.39 0-28.14.3 2.33.63-1 .82-9.86-4.39-.12-11.44-.19-20.23-.17-7.17 0-15.09.19-17.35.38-4.87-.45 4-1.88-21.54-2.57l23.63-1.72c7.31-.57 13.56-1.09 14.28-1.42-2.83-.16-5.92-.11-9-.06s-6.19.07-9.39-.13c13.9.08 29.28-.05 45.56-.23.19 16.71.39 34 .57 50.25l.32-6.06c.67 26.26.25 62.72 0 86.85 0 15.07.58 11.44.69 17.76-.07 7-1.47 11.41-1.29 44.22l.76 22.62c-.52-.05-.86-25.66-1.38-7.31-.14 13.89-.28 27.4-.34 32.81-.23-3.87-.45-3.26-.68-.5-.11 1.34-.22 3.39-.33 5.38s-.21 4.28-.32 6.5c-.44 8.87-.89 16.65-1.38 7.23-.06-7.77-.16-12.48-.28-15.08-.13-2.86-.27-3.45-.43-2.74-.31 1.68-.66 7.27-.91 10.06l.51-20.48c-.93 6.27-1.44-12.18-2.09-28.47l.3-12.6c-.73-27.82-1.81 7.42-2.55-1.99z"/>
    <path class="cls-1" d="M960.56 440.11l.05 1.64-.64 8.6c.03-8.43.41-6.28.59-10.24zM964.72 509.05c.1-.17.22-5 .38-.76-.1 4.91-.26 9.71-.38.76zM1080.57 656.44c-.67-7.93 0-21.64.06-31.92.31 9.07.37 27.19-.06 31.92zM966.44 486.21l.09-3.38v9.48c-.07.24-.08-2.96-.09-6.1zM943.7 240.65c3.94-.05 6-.43 9.24-.16-.94.23-6.49.16-9.24.16zM841.52 241.25c-1.81 0-5.46-.13-3.87-.18l8.72.12a43.06 43.06 0 01-4.85.06zM859.9 237l-3.54-.08h13.19c-2.97.08-4.55.15-9.65.08zM769.92 307.84c.87 10.57-.16 47.23.37 72.33 0-5.1-.94-18.77-1 4.72-.14 20.45.59 11.48.15 26.23 0-21.69-.87-32.26-1.19-29.57v20.16c-.46-35.35-1.17-74.83-.46-108.79.64-27.1 1 3.36 1.75-15.52-.49 19.8.63 16.24.38 30.44zM976.91 262.69c0-13.8.47-19.94.68-8.77v16.16c0 2.14-.05 4-.08 5.43s-.07 2.26-.11 2.86c-.09 1.11-.19.78-.27-1.34-.13-2.39-.13-7.15-.22-14.34zM773.68 459.68c-.08 6.82-.14 20.4-.53 15-.31-12.4-.06-23.27.26-26 .06 4.95.12 9.79.27 11zM764.05 906.07c.23 1.35.39 6.13.54 12.64s.26 14.5.4 22.61c.27 15.68.59 31.8 1.25 35.3-.35-10.54-1.12-.76-1-18.56.14 6.32.11 12.6 0 19.09l-28-.57-16.27-.2h-19.6c-1.45-1 .07-1.55-11.93-2.7 9.79-.07 19.37-.21 27.12-.4l5.44-.16 4.08-.17c2.36-.12 4.14-.26 5.16-.4l-7.46-.12 36.61-.14c-.09-8.48-.28-15.44-.74-22.23l-.18 3.18c.34-11.82.42.53.92-4.8-.1-4.07 0-9.36 0-14.47 0-5.77.05-10.81-.16-12.63.55-20.14 1.37-32.75 1.57-63.43.2 51.25 2.56 2.03 2.25 48.16zM760.06 826.74c-.24-.92-.54-6.69-.37-17.17.17-7.22.44-8.1.65-2 .01 6.57-.11 15.24-.28 19.17zM688.68 976.63l6.93.08-6.05.2-.88-.28z"/>
    <path class="cls-1" d="M686.87 972.37l8.47.03-4.83.06-3.64-.09zM638 894.42c.15-13.8.62 6.46.8 2.63-.27 2.28-.56-3.4-.8-2.63zM640.87 932.1c-.11-3-.24-3.05-.37-1.6s-.26 4.55-.37 6.72c0-3.58.09-6.73.12-9.52s0-5.48 0-7.74c-.05-4.51-.17-7.83-.32-10.58-.3-5.5-.72-8.75-.92-14.78.51-40.08-.21-82.92-.14-129.88-.14-1.18-.17 3.91-.21 5.68 1-13.18.89-53 1.39-81.19.21 27.67.69-3.93.9-12.91-.55-13.32-.53-43.44-.52-58.47l.35 28.92c.48 1.85.89 17.27 1.33 5.81-.11-6.33-.13-16.3.09-21.95.15 4.57.17 11.12.18 17.72.71-.55 1-16.42 1.09-35.07.51 36.78 1.62 48.23 2.6 65.18l.34-14.35c-.45 8 0 31.54-.08 43.65 1.19 7.92.27 72.55 1.29 87.75-.92 24.62-.47 53.24-.76 87.6l.09-.28c-.11 13.79-.3 24.64-.52 33.68-.14 4.52-.27 8.58-.38 12.33-.07 1.88-.14 3.68-.2 5.41-.08 1.29-.15 2.53-.22 3.74-.58 9.35-1.22 17.19-1.7 30l9.35.31c-5.3.13-8.31.29-10.12.45-.26-2.43-.55-2-.83-3.29s-.55-4.46-.78-14.45l-.81 10.68c-.09-5.87.08-9.49.2-13.42.06-2 .11-4 .11-6.51v-4.11c0-1.51-.13-3.48-.18-5.53zM638.23 776.71l-.21-9.36zM637.81 739.61l-.46-13.6zM732.32 552l.05 1.55-.38 16.18-.05-1.49.38-16.24zM735.91 674.34c-.14 2-.38-2.18-.49-8.46.16-10.58.47 1.86.49 8.46zM637.64 578.18l-.17-11.18zM640.11 553.58c.3 9.13-.11 30.45.15 41.34.01-15.14-.49-26.8-.15-41.34zM641.57 594.09l.02 9.97-.15-4.51.13-5.46zM636.84 428.59c.4-12.93.48 1.89.41 12.06-.19.66-.56-1.49-.41-12.06zM639.67 491.46l.15 19.61-.11-6.28-.04-13.33zM648.86 338.78c-.1-28.92.44-41.18.89-53.31.2-2.52.39 4.95.57 10s.35 7.54.52-5.25c0 10.58 0 30.68.07 51s-.14 41.07-.59 52.46c-.41 11.17-.79 7-1.06-4.64s-.44-30.74-.4-50.26zM583.8 328.8c10.41-10-23.93 25.51-6.29 7.84-9.93 10.89-21.72 23.26-34.32 36.55l-16.64 17.64c-5.21 5.58-10.43 11.25-15.53 16.93 2-2.51-4 3.52-10.49 10.22-3.22 3.35-6.55 6.87-9.06 9.58a42.23 42.23 0 00-4.08 4.68c-2.79 2.54-5.88 5.46-9 8.47L476 443l-1.71 1.59-3.3 3.08c-4.28 4-7.89 7.26-9.57 8.28l12.16-13.72c1.16-1.32 2.16-2.46 2.91-3.33a20.89 20.89 0 001.6-2c.16-.28-.07-.15-.81.51l-1.49 1.38-2.22 2.13 11.62-12.18 12-12.73c7.34-7.84 12.57-13.58 11.1-12.48l35.39-36.16c13.08-13.4 25.61-26.19 40.25-41 3.48-3.39-.36 1.17-1.25 2.6s1.1-.2 15.86-15.6c-5.75 6.11-9.18 9.44-14.74 15.43zM674.8 909.9c.44-12.85.53-15.31 1.09-31.87.71-.51.53 25.1 1.24 24.55v32.18c-.08 0-.26.11-.69.62a2.55 2.55 0 01-1 .66c-.39.09-.48-.41-.5-1v-10.26c-.07-5.37-.11-10.51-.14-14.88zM459.32 461.69l5.57-6.09-3.71 4.27-1.86 1.82zM665.26 487.45c.3-9 .38-11.44.61-18.72.67 4.59 1.29 7.65 1.33 42.64-.16 10.49 0 30.1-.52 36.7-.33-.61-.83 5.95-1-3.36-.28-19.32-.68-38.04-.42-57.26zM655.07 234.07c-9.29 10.57-35.83 38.39-52.47 56.29-22.46 22.93-36.62 37.81-48 48.79-22.57 22 49.13-52.66 61.17-66.53 18.17-18.22 36.49-36.31 43.15-42.44zM274.09 568.61c-.09.29-.19.55-.24-1l.27-7.52c.05 4.91.01 6.66-.03 8.52zM675 600.21c.19-18.93.85-36 1.32-19.15.49 8.46.39 27.15.47 41.88-.22 20.82-.92 24.7-1.4 19.49-.21-12.65-.66-26.19-.39-42.22zM263.66 447.87l-.4 9.6zM258.43 339.41c-.26-10.71-.89-25.28-.61-52 .13-28.4.78-8.7 1.1-11.79-.2 21.19.15 57.14-.49 63.79zM976.26 775.36c-.41-12.11-.63-28.09-1.3-32.66.21-9 .74-5.67.56-20.1-.19-22.81-.41-49.57-.6-72.24-18.86.2-34.94.51-44.46 1.07 2.08-.22 8.88-.42 14.3-.64s9.45-.47 5.69-.77l-30.8-.23c-9.72 0-20.11 0-31.53.05 9.6-.12 7-.26 2-.4l-8.19-.2-2.9-.09a9.42 9.42 0 01-1.18-.08c-10.81-.19-22.28-.19-34-.13-.09-11.39-.18-22.85-.27-33.71 0-6.35-.06-12.53-.08-18.43 0-6.09.05-11.9.07-17.34 0 9.93.13 24.57.21 38.74.06 12.14.15 23.82.41 30.4 2.7-.09 4.63-.2 5.81-.33a39.93 39.93 0 00-5-.43c.26-5.65.43-14.23.57-22.56.17-9.12.34-18.09.44-23.35V619.92c.37-2.28.82.76 1.2.67.2 0 .38-.82.52-3.33.08-1.27.14-2.9.2-5.2 0-3 .08-6.8.14-11.51.18 1.41.37 3.89.56 7.25l.56 10.18c.37 6.93.74 15.55 1.11 24.6l26.21-1c3.32-.16 10.94-.31 16.86-.46l17.82-.43 73.24.18c-.1 28.2-.2 56.55-.3 84.72.14 1.21.34 4 .52 3.35-1.11 21.92-2 78.25-2 111.66-.57 16.85-.34-22.36-1-8.58-.57-1.45-.8 19.25-1.2 28.89-1.39-14-2.15-18.24-3.52-22.29 1.07-23.62-1.18-41.62-.67-63.26zM273.14 788.74c-.14-1.21-.14 2-.18 3.91l1.71 44.64-.37 1.21c.35 37.1.59 61.53 1 103.74-.06 14.11-.2 26.66-.38 38l-28.35-.53-26.42-.61-27.26-.54-28.34-.38c-6.47-.43-2.61-.46 4.38-.44s17 .08 24.09-.15c-2.13-.14 0-.39-.12-.56a8.76 8.76 0 00-2.7-.18h-4.14l-6.23.08 9.37-.35 6.52-.37c3.82-.24 7.23-.49 14-.71l-17.72-.35 29.38-.49 5.84-.13 4.92-.17c2.63-.13 4.75-.29 6.24-.5l-4.82-.08h-4.87l-9.79.05c-6.34 0-12.53.07-19.91-.14l20.08.1 17.93-.07 31.06-.35c-.1-10.61-.15-21.59 0-33.82l-.59 5.58c0-8.13.29-18 .46-26.85.17-9.1.27-18.59 0-31.09l-.32 2.7c.46-38.34 1.39-62.94 2-99.88 1.13-42.19 2.29-10.68 3.53-1.27zM276.1 267.93c-8.82-9.4-11.35-12.39-12.11-13.46 6.65 6.33 22 22.4 33 34.31 8.26 9.31-9.1-8.47-20.89-20.85zM256.21 330.12c0 12.19-.23 3.23-.32 3.41-.2-8.93 0-28.86.29-22.58.19 4.27.06 11.82.03 19.17z"/>
    <path class="cls-4" d="M263.36 702.75l.2 6z"/>
    <path class="cls-1" d="M264.23 768.47c-.46 4.79-.46-13.56-.3-24.16.21 6.05.37 13.98.3 24.16z"/>
    <path class="cls-4" d="M195.36 978.32l-1.48.06-12.33-.3 1.41-.05 12.4.29z"/>
    <path class="cls-1" d="M266.58 921.37l.78-22.55-.46 19.91-.32 2.64zM143.35 967.32c.09-3.54.32-2.83.43 3.13-.12 5.17-.41 3.17-.43-3.13zM145.13 964l.08-20.16zM147 966.2c.43 2.82.06-11.86.1-16.32.45 8.29.26 15.81.14 25.22 5.8.07 12.42.11 20.44-.08-5.8.16-13.11.36-20.74.39 0-2.99.06-6.09.06-9.21zM215.87 93.82c9.21.16 19.09.22 29.18.23h16.3L270 94h3.23c.17 0 .39-.06.51.06l.37.39 3 3.07c7.42 7.73 14.65 15.26 21.36 22.23 6.25 6.56 12 12.62 16.81 17.91-1.74-1.71-8.23-8.53-6.08-6 35.52 36.75 14.32 17.25 49.66 53.71L344.6 171c1.67 2.44 10.91 12.18 19.46 21.37-4.54-4.68-10.39-11.1-15.68-16.4 4.65 5.82-2.69-.91-8.38-6.14-.1-.21-1.1-1.31-3-3.43-10.16-9.72-14.36-13.72-34.25-34.13-.54-.18 6.06 6.86 10.67 11.72-5.41-6-12.56-13.63-20.62-22.1l-12.71-13.29-6.71-7-1.69-1.76c-.16-.12-.26-.37-.46-.37H264.45c-26.35.07-52.93.08-71.4-.66-25.39.44-30.43-.56-47-.86l-6.68-.14c-.3 13.74-.67 13.28-1.16 10.87-.25-3.75-.5-7.86-.73-12.77 7.92-.46 17.93-.9 31.3-1.27l22-.5zM249.48 549.51c-.16 13.88-.54 11.73-.83 9.31-.27-14.2 0-26.82.35-32.82.33.61.41 15.36.48 23.51zM141.88 716.16l-.23-16zM258 893.35l-.08 3.57v-11.77c.18 1.2.08 4.85.08 8.2zM257.52 936.63a1.54 1.54 0 01-.09.24l.25-10.71c.06 4.84-.12 8.72-.16 10.47zM255.47 921.47l-.21 23.53c-.14-3.62-.27-5.92-.39-7.54-.16-2.72-.25-4.32-.33-5.77-.23-3.25-.47-5.84-.82-16.44.29-12.61-.1-36.4.62-52 .22-5.78.88-4.42 1.14 6.38.09 18.11.93 55.54-.01 51.84zM352.13 174.49l-4.43-4.46 2.57 2.51 1.86 1.95z"/>
    <path class="cls-1" d="M255.75 923.91l.05-1.76.15 4.5-.2-2.74zM583.55 101.74l-8.66 9.39 6.35-6.95 2.31-2.44zM253.22 885.15l-.07 10.23zM347.4 172.15l16.48 17.18zM386.75 212.08l-8.23-8.52 2.66 2.72 5.57 5.8zM413.89 240.06c3.75 4 .27.49-1.46-1.2-1.1-1.31-3.04-3.45 1.46 1.2zM356.5 186.13a71 71 0 01-5.72-6.17c2.69 2.75 2.9 3.18 5.72 6.17zM342.24 173.54c-7.64-8.29-18.12-18.67-20.32-21.29 7.3 7.5 18.5 18.48 20.32 21.29zM404.1 232.89l13.07 13.84zM368.28 198.25l-5.95-5.72-3.89-4.27 6.91 6.78 2.93 3.21zM203.84 957.77c-15.35-.62 24.45-.72 22.64-.25-4.26.25-13.89.37-22.64.25zM176.17 958.61c-.26-.23 2.5-.32 5.17-.29 1.33 0 2.66 0 3.59.1l1.38.11c.44 0 .58.08.31.13l-6 .08c-1.62.01-3.1-.02-4.45-.13zM185.9 956.31c.32-.42 9.58-.11 16.56 0-6.62-.02-7.27.31-16.56 0zM193.5 951.33c10.54-.1 15.91-.38 21.72-.59 2.91-.11 5.93-.19 9.77-.22h6.4c.76 0 1.6 0 2.58.09l-1.41.17-.75.08h-1.54l-10.65.21c-7.62.17-16.19.23-26.12.26zM202.35 950.41c2 .14 3.64-.43 9.58-.12zM185.01 950.83l.99-.03 2.4-.03 4.81-.06-6.32.11-1.88.01zM182.53 950.38l1.96-.11.98-.05 1.1-.03 1.58-.03-2.54.07-.83.07-1.68.13-.57-.05zM171.38 890.15c.27-4.26.44 6.93.17 11.19-.14-1.23-.11-6.4-.17-11.19zM625.81 110.14l12-11.76c-7.19 8.51-32.16 34.32-39.79 42-5.41 4.62 17.42-19.38 27.79-30.24zM375.7 231.52c-.82-.52-7.8-7.93-13.64-14.09-8.52-9.35 12.66 12.12 13.64 14.09zM560.89 192.92l-12.25 12.49 12.72-13.32-.47.83z"/>
  </g>
  <g class="cls-3">
    <path class="cls-1" d="M1525 639.33c-3 1.8.55-1.54-3.81 1.51.82-1.25 4.86-5 8.74-7.83l3.61-2.15c-3.06 2.95-4.22 5.04-8.54 8.47zM1598.85 551.58c-1.47 1-1.36.41-1.36.12a21.24 21.24 0 013.77-2.55c.61-.07-1.16 1.39-2.41 2.43zM1535.73 605.18c-2.5 1.49-5.43 3.74-8.27 5.43-2.07.14 2.65-4.77 8.22-9.68a22.18 22.18 0 014.92-3.34c1.86-.21 4.47-1.07.59 2.94-.53 1.61-6.49 4.27-5.46 4.65zM1575.8 558.56l-.32.79c-1.46 1-1.24-.16-3.54 1.42l-3.17 3.38c-2.3 1.57-1 .21-1-.09-8 6.44-11.21 8-19.8 14.81l2-2.59c-2.5 1.49-6.08 4.41-8 5.49 5.34-5-3.23.93-3.85.41a36.09 36.09 0 015.46-6.15 79.62 79.62 0 01-8 4.6l3.25-2.43c.53-1-1.14-.12-3.55 1.72 2.93-2.25.74-1.54 1.58-2.44-5.34 3.79-9.85 8.17-16 11.95-2.93 1.65-3.34 1.2-5.21 1.72 4.71-3.71 7-6.78 10-9 3.13-1.56 10.37-7.38 11.29-6.73a42.27 42.27 0 004.94-4.84c-1.68.6-5.77 4.23-7.44 4.84 5.66-4.88 8.39-6.91 14.27-11.7l-1.36.41c6.69-4.19 16.55-13.26 20.53-15.74 7.21-4.3 14.42-8 16.7-8.07-5.34 4.68 1.15 1 .93 1.83-1.68 1.51-4.82 3.38-3.89 3.43 3.55-1.73 5.46-4.66 7.43-4.54-5.14 5.06-.76 3.94-2 6.19-.85 2.11-9.32 7.16-7.56 7.5 4.18-3.28.42.15 1.57-.33a26 26 0 01-5.26 4.16zM1478.39 633.42c-2.52 1.8-2 .77-2.82 1.08-1.66.29 4.19-4.2 6.82-6.26 2.93-2 3.56-1.73 3.55-1.12-.22 1.13-5.04 4.49-7.55 6.3zM1506.69 598.8c-2.3 1.57-5 3.58-6.27 4-.41-.45-.83-.9 1.49-3.08 3.88-3.12 6.39-5.5 9.84-7.27 3.77-1.91.7 2.11-5.06 6.35zM1403.27 703.44c-7.12 5.54-5.65 3.07-7.84 3.78 7.77-6.83-5 2.09 1.71-3.91a35.81 35.81 0 015.87-4.2c-2.85 3.79 12.23-7.9 8.54-3.5-.32 1.08-5.14 5.05-8.28 7.83zM1437.94 666c-2.62 1.76-4.39 2.33-3.44 1.16.52-1 4.3-3.86 6.5-5.47 2.62-1.76 4.39-2.32 2.92-.75s-3.67 3.2-5.98 5.06zM1451.94 648.8c-1.57.94-.73 0-1.57.34.85-1.21 3.78-3.15 5.35-4.39l2.4-.93a54.78 54.78 0 01-6.18 4.98zM1428.74 670.81c-1.46.67-2.38.92-2.07.14 2.71-2.32 5.46-5 8.26-6.33 2.21-1.32 1 0 1.47.22a67.26 67.26 0 01-7.66 5.97zM1443.05 653.4a74.73 74.73 0 00-7.31 5.46c-.74-.26-5.86 3.3-7.64 4.16 4.4-3.52 1-2.06 1.91-3.53 4.4-4.12 13.73-11.28 18.74-13.67-.43 1.35 6-2-1.28 3.75-1.8 1.48-3.99 3.08-4.42 3.83zM1474.19 617.4l-9.75 7c-3.44 1.45-.38-2.56-2.27-1.74 3.47-3 11.85-8.66 11.12-9.52a88.42 88.42 0 0113-9.44c4.69-1.61-11.66 11.43-4.76 7.92a34 34 0 00-7.34 5.78zM1419.65 676.23a56.33 56.33 0 01-6.17 3.48c1.9-1.73 2.74-2.92 4.53-4.69 2.71-1.72 7-4.68 7.72-4.41.27.39-2.94 3.45-6.08 5.62zM1398.71 691.52c-1.56 0 4-4 6.4-6.42a41.74 41.74 0 015.34-3.48c1-.22.92.35-1.06 2.32-3.98 3.38-6.7 4.5-10.68 7.58zM1359.45 729.68c-3.65 2.58-2.08.74-2.5.6a40.32 40.32 0 016.29-4.95c4.09-2.44 1.34.79-3.79 4.35zM1368.73 706.21c-2.09 1.35-1.35-.19 1.69-2.4l3.24-1.54a45.51 45.51 0 01-4.93 3.94zM1195.11 615c0-.66.08-.73.17-.78l-.11 1.75c-.1.03-.01-.69-.06-.97zM1229.7 808c.76-4.71 2.56-5.66 2.08-14.81a99.8 99.8 0 01-.3-14.8c.17-5.18.44-10.42.26-15.84.48.78 1.06-2.83 1-8.91a18.5 18.5 0 00-.38-4.51c.46-1.36 1.89-.23 2.57-6.24 1.07 2.5 2.49 6.69 3.15 6.47.31-1.42-.22-2.48.18-4-.16 6.09.54 13.06.81 19.36l.31-1.54c.68 4.6.25 12.25 0 17.45 0 3.05.59 1.47.7 2.56-.08 1.48-1.47 4.44-1.29 10.9l.75 3.28c-.51.92-.86-3.75-1.37.91-.16 3.14-.22 6.06-.34 7.41-.47-.75-.9 2.17-1.34 5.06s-.88 5.75-1.38 4.49c-.23-7.14-1.11-1.2-1.61 1.29l.51-5.86c-.93 3.13-1.44-.13-2.09-2.88l.3-3.45c-.37-2.66-.82-1.53-1.27.19s-.89 4.07-1.25 3.47z"/>
    <path class="cls-1" d="M1231.25 809.89v.31l-.64 3.17a14.13 14.13 0 01.64-3.48zM1236 817.39c0-.15-.77.31.17-.6.83-.47 1.62-.93-.17.6zM1415.91 645.89c.85-1.51 3.44-2.65 5.12-3.86-1.26 1.36-4.09 3.64-5.12 3.86zM1237.13 809.66l.08-.92v2c-.06.26-.07-.4-.08-1.08zM1231.1 755.59c.06 1.12.44 1.37.17 2.56-.27-.05-.16-1.76-.17-2.56zM1230.5 730.23c0-.44.13-1.34.18-1l-.12 2.12c-.09.14-.05-.35-.06-1.12zM1234.72 733.49l.09-.81v2.92a9.07 9.07 0 01-.09-2.11zM1236.69 698.34c-.87-2.12.17-9.49-.36-14.54 0 1 .93 3.77 1-.95.14-4.11-.59-2.31-.16-5.27 0 4.36.88 6.48 1.2 5.94v-4c.46 7.11 1.18 15 .46 21.87-.63 5.45-1-.67-1.74 3.13.48-4.04-.64-3.32-.4-6.18zM1247.59 753.1c0-2 .48-3.12.69-1.79.19 3.2-.49 5.6-.69 1.79zM1232.94 667.81c.08-1.37.14-4.1.53-3a11.69 11.69 0 01-.27 5.22 9.36 9.36 0 00-.26-2.22zM1242.56 578.06c-.9-1.09-.86-13.21-2.19-14.37.36 2.11 1.13-.06 1 3.7-.48-4.73 1.1-9.44.72-17.24 1-.29 1.55 0 2.7-2.4.14 3.94.56 7.7 1.13 8.69l.12-1.75c.13 7-.1 10.47.88 13.89l.18-.79c-.35 2.89-.43-.08-.93 1.25.21 1.89-.26 5.21.17 5.94-.56 4-1.37 6.59-1.58 12.75-.14-10.29-2.5-.39-2.2-9.67zM1246.56 594c.24.19.53 1.35.37 3.45-.17 1.45-.45 1.63-.65.41a20.76 20.76 0 01.28-3.86zM1241.91 547.59l-.08 1.4-.2-1.22.28-.18zM1246.17 547.23l-.03 1.7-.06-.97.09-.73zM1244.6 519.33c.16-2.78.63 1.3.81.53-.23.46-.53-.69-.81-.53zM1247.51 526.9c-.2-1.22-.52 0-.74 1.13.54-6.06-.73-6.24-1.13-8.67.5-8.05-.21-16.67-.14-26.11-.14-.24-.18.79-.22 1.14 1-2.65.9-10.65 1.39-16.32.21 5.56.69-.79.91-2.6-.55-2.68-.53-8.73-.52-11.75l.35 5.81c.47.37.89 3.47 1.33 1.17a19.65 19.65 0 01.08-4.42 27.93 27.93 0 01.19 3.57c.7-.11 1-3.3 1.08-7.05a46.52 46.52 0 002.6 13.1l.31-2.9c-.45 1.61 0 6.34-.08 8.77 1.19 1.59.28 14.59 1.3 17.65-.93 4.95-.48 10.7-.77 17.61l.1-.06c-.51 12.42-2.47 13-3.34 21.93-.54-5.7-1.46-.74-2.06-7.41l-.82 2.52c-.14-2.88.67-3.41.18-7.11zM1244.87 495.66l-.21-1.88zM1244.45 488.2l-.45-2.73zM1274.3 649.25l-.05-.31.38-3.25.05.3-.38 3.26zM1270.71 624.65c.13-.41.38.44.49 1.71-.2 2.12-.47-.36-.49-1.71zM1244.28 455.74l-.17-2.24zM1246.76 450.8c.3 1.83-.12 6.12.14 8.31.01-3.05-.48-5.39-.14-8.31zM1248.22 458.94l.02 2-.15-.9.13-1.1zM1243.49 425.66c.39-2.6.47.38.41 2.43-.19.13-.57-.3-.41-2.43zM1246.32 438.31l.14 3.94-.11-1.26-.03-2.68zM1255.5 411.31a21.56 21.56 0 01.89-7.61c.42-.61.76 4.56 1.09 1 0 3 .38 11.51-.52 14.77s-1.53-2.41-1.46-8.16zM1253.16 384.93c-.63 2.4-.3-5.51-.86-1.46-.67-4.62-.09-11-1-17.16.62 1.27.71-6.84.19-6.84.26-.74.48-1.66.68-2.44.18-.62.37-1.25.54-1.84a5.35 5.35 0 011.2-2.51c.23 1 .44 2.63.68 3.7a6.53 6.53 0 00.19.67c.07.16.14.41.21.45s.31-.33.49-.92v3.1c0 1.1 0 2.44.1 3.52.1 2.15.28 3.72.58 3.35-.51 7.4-.69 11.87-1.45 18.41-.36 1.56-1.5-3.42-1.6 3.35-.02-1.31.16-2.11.05-3.38zM1281.45 522.44c.39-2.58.61-3.08 1.09-6.41.7-.1.53 5.05 1.23 4.94 0 7 .13 10.66-.71 14.22-.37.9-.67-.91-1-1.05-.78-2.14-.33-8.14-.61-11.7zM1251.45 351.5l.17 1.66-.25-1.14.08-.52zM1271.91 437.5c.21-1.81.44-2.3.61-3.76.66.92 1.28 1.53 1.32 8.57-.16 2.11 0 6.05-.52 7.38-.33-.12-.83 1.19-1-.68a85.27 85.27 0 01-.41-11.51zM1267 398.28c-.58-1.65-.59-6.68-.92-9.82.42-4.28.39-7 1.06-9.07 1.17-4.12.82 9.21 1.69 11.35a48.72 48.72 0 01-1.91 8.27zM1260.77 285.67c.1.19.19.38 0 .29l-1.3-1.33a7.9 7.9 0 011.3 1.04zM1281.66 460.17c.18-3.81.85-7.24 1.31-3.85.49 1.7.4 5.46.48 8.42-.23 4.19-.92 5-1.4 3.92a44.49 44.49 0 01-.39-8.49zM1252.37 292.36l1.48 1.65zM1256.73 312.27a16.53 16.53 0 01.61 5.39c-.14 2.25-.78-.23-1.1-.38.19-1.64-.15-5.41.49-5.01zM1319.66 738.68c-1.69 1.8-4.1 3.94-4.42 5-1.56.93-1.35.11-3.55 2l-4.52 3.8-4 3.37a38.45 38.45 0 00-5.89 6c.39-.84 3.06-3.37 1.87-3.2a83.5 83.5 0 00-8.07 6c2.54-2.24-1.49.41-1.58.24a80.56 80.56 0 00-8.12 6.22c-2.74 2.3-5.45 4.6-7.6 6 3.27-2.87 10-7.74 11.14-9.75-.85-.51-5.93 3.28-7.69 4.08 0-.1 1.68-1.21 2.51-1.87-.58-.48 2.1-3.84-2.29-.83.76-1.46 3.26-4.29 6-7.3 2.62-2.8 5.7-6.11 8.18-8.75 2.15-1.63 4.35-3.21 6.59-4.8l3.55-2.53 5.14-3.79c.11-.26.43-.75.21-.82 4.18-1.8 13.71-8 19-12.06 3-1.61-3.36 3-.76 1.85.12.62 3.56-1.73 5.34-2.59-1.38 2.81-1.6 3.94-1.41 5.52-4.37 1.98-5.87 5.96-9.63 8.21zM1294.37 312.63c-.22 0 .27.38.54.64l7.4 3.53v.49l8 5.52 8.88 6.19c9.84 7.88 14.18 13.4 22.67 20.45 1.77 2.44-2.69-1.89-5.13-3.19.51.74-2-.25 1.79 2.22-3-1.7-3.3-1.3-5.74-2.59l2.63 2.43c-3.78-2.36-6.71-4.61-8.4-4.82 2.38 2.19 4.29 3 6.39 5.13-6.36-5.45-12.07-8.37-19-14.12l.74 1.31c-3.44-2.75-5-5.06-9.27-7.68l.23.58c-4.84-4.3-7.61-7.59-12.56-12.16-2.76-2.85-3.08-3.82-2.42-4.06s2.38.24 3.25.13zM1261.34 328.29c.12-.74.35-.66.54-.47a6 6 0 01.17 3.47c-.44.28-.72-1.81-.71-3zM1259 316.47c0-.91.23.11.32.24.2 1 0 2.28-.29 1.31a3.55 3.55 0 01-.03-1.55z"/>
    <path class="cls-4" d="M1282 315.46l.69.28z"/>
    <path class="cls-1" d="M1289.71 320.29c.47.94-1.66-.7-2.88-1.84a11.29 11.29 0 012.88 1.84z"/>
    <path class="cls-4" d="M1336.88 345.38l.26.14 1.84 1.78-.28-.14-1.82-1.78z"/>
    <path class="cls-1" d="M1310.62 333.36l-3.12-3.38 2.89 2.81.23.57zM1347.86 353c.53.52.25.59-.84-.1-.78-.81-.22-.74.84.1zM1347.14 354.64l3.47 2.76zM1345.36 355.64c-.85-.1 2.13 1.71 2.92 2.36-3-1.36-4.5-3.77-8.55-6.27a35.68 35.68 0 015.63 3.91zM1503.29 462c5.48 5 13.69 10 17.89 14-.44-.23-1.93-1.39-1.53-.81 8.35 6 2.62 4 11 9.87l-3.44-2.19c.17.74 2.29 2.42 4.2 4.07-1.07-.75-2.34-2-3.63-2.76.78 1.43-1.21.74-2.74.2 0-.09-.21-.29-.63-.7a43.1 43.1 0 01-8.44-5c-.25.15 1.24 1.4 2.3 2.24-4.58-4.73-16.68-12.09-21.65-17.77-4.3-2.75-4.41-4.09-6.73-6.24-2.95-2.68-2.69-3-2-3.18 3.29 1.1 7.68 2.98 15.4 8.27zM1272.79 325.9c1 1 1.06 1.49 1.08 1.87a6.06 6.06 0 01-2.28-2.18c-.19-.59.71.02 1.2.31zM1389.07 382.69l2.68 1.78zM1300.94 336.72l.52.51-1.72-1.34c.13 0 .16 0 .43.22zM1307.54 342.42v.12L1306 341a9.36 9.36 0 011.54 1.42zM1303.87 342.19l4.77 3.92c-4.59-2.79-3-1.26-6.83-3.29-.91-.89-2.38-2-3.87-3.17l-.51-.4-.28-.24-.53-.5a6.08 6.08 0 01-.86-1.12c-.37-.55.06-1.05 1.14-.55.41.28.95.6 1.52.94l.64.42.76.51 1.46 1c1.84 1.29 3.17 2.29 2.59 2.48zM1530.26 481.42l-1.08-.67.65.34.43.33z"/>
    <path class="cls-1" d="M1304.43 342.26l-.25-.25.81.43-.56-.18zM1608.78 504.77l-2.17-1.38 1.62.98.55.4zM1296.89 339.68l1.41 1.16zM1528.37 482.25l3.83 2.86zM1537.85 488.4l-1.93-1.39.64.43 1.29.96zM1544.27 492.92c.84.72 0 .18-.44-.05-.21-.3-.63-.7.44.05zM1529.11 486.7c-.65-.17-.84-.73-1.26-1.14a14.42 14.42 0 011.26 1.14zM1525.1 485.66c-1.68-1.53-4.28-3-4.69-3.6 1.73 1.2 4.59 2.7 4.69 3.6zM1541.06 493.15l3 2.41zM1531.9 488.64l-1.53-.73-.84-.81 1.74.93.63.61zM1323 360.66c2.08 2.37-4.33-2.43-3.76-2.58a16.42 16.42 0 013.76 2.58zM1329.49 364.56c0 .55-3.76-2.46-3.19-2.5a18.37 18.37 0 013.19 2.5zM1325 364c-.31.29-1.6-1.08-2.67-2a11.27 11.27 0 012.67 2zM1320.74 367c-3.48-2.43-4.11-1.73-7.8-5.08a49.29 49.29 0 017.8 5.08zM1318.78 366.68c-.25-.36-.85-.11-1.61-1.08zM1322.02 368.64l-1.6-1.08 1.07.68.53.4zM1323.05 369.99l-2.16-1.38 1.88 1.11.28.27zM1343.35 384.81c.52.74-1.37-.5-1.89-1.23a11.41 11.41 0 011.89 1.23zM1590.33 536.46l2.34 2.51c-2.19-.82-7.78-5.4-9.34-6.92-.73-1.42 4.61 2.57 7 4.41zM1525.85 506.18c-.3.07-1.88-1.23-3.22-2.29-1.83-1.78 3.28 1.51 3.22 2.29zM1567.42 531.75l-2.65-2.33 2.94 2.25-.29.08z"/>
  </g>
  <path class="cls-2" d="M1744 499.55l-59.64-45.75-444.92-355.91H1104.1l1 66.33v748.5l-1 66.32h135.34l444.85-355.89 59.62-45.73 49.09-38.96zm-504.56 310.11V267.25l353.62 271.21z"/>
  <g class="cls-3">
    <path class="cls-1" d="M1200.84 694.25c.41-3.49.89 1.37 1.12-4 .5 1.41 1 6.9.89 11.7l-.48 4.17c-.51-4.12-1.47-6.33-1.53-11.87zM1225.5 806.28c.12-1.76.5-1.33.74-1.16a21.48 21.48 0 01-.27 4.54c-.32.53-.4-1.76-.47-3.38zM1221.38 723.57c.34-2.89.34-6.59.73-9.86 1.14-1.73 2.17 5 2.68 12.41a22.16 22.16 0 01-.35 5.94c-1 1.6-1.87 4.19-2.69-1.33-.95-1.4.57-7.73-.37-7.16zM1234 783.74l-.43-.73c.12-1.76.88-.9 1-3.68l-.76-4.57c.16-2.78.46-.94.7-.75-.27-10.24.48-13.76.3-24.73l.84 3.16c.34-2.89.19-7.51.53-9.73.7 7.26 1.23-3.13 2-3.3a35.79 35.79 0 011.56 8.08 80.56 80.56 0 011.24-9.19v4.06c.48 1 .79-.84.8-3.87 0 3.69.77 1.52 1 2.74.24-6.55-.49-12.78.27-20 .47-3.34 1.08-3.38 1.81-5.19.07 6 1.1 9.7 1.1 13.41-.66 3.43-.45 12.71-1.52 13a40.38 40.38 0 00.83 6.87c.54-1.7.15-7.15.69-8.85.42 7.46.37 10.86.6 18.45l.5-1.34c-.75 7.87.45 21.2 0 25.87-1 8.34-2.42 16.31-3.76 18.17-.46-7.09-1.49.29-2-.38-.17-2.25.26-5.88-.34-5.18-.8 3.88.37 7.18-.93 8.66-.88-7.16-2.66-3-3.67-5.38-1.15-2 0-11.76-1.35-10.56.06 5.31-.38.23-.69 1.44a25.4 25.4 0 01-.32-6.48zM1233.88 660.89c.1-3.1.58-2 .85-2.89.78-1.5.78 5.87.82 9.21-.24 3.51-.8 3.88-1.27 3.5-.76-.86-.51-6.71-.4-9.82zM1244.12 704.41c.15-2.78.21-6.16.61-7.43.61-.05 1.22-.11 1.54 3.06.11 5 .48 8.41-.22 12.23-.75 4.17-2.05-.71-1.93-7.86zM1224 558.67c-.07-9 1-6.35 1.77-8.52.69 10.31 1.39-5.25 2.06 3.73a35.33 35.33 0 01-.24 7.21c-1.27-4.57-1.18 14.52-2.42 8.91-.64-.92-.86-7.15-1.17-11.33zM1232.62 609c.2-3.16.83-4.9 1.18-3.44.48 1 .45 5.76.39 8.49-.2 3.14-.83 4.9-1.19 2.77s-.29-4.89-.38-7.82zM1237.77 630.54c.21-1.82.41-.6.68-1.45.44 1.4.2 4.91.23 6.92l-.72 2.46a53.27 53.27 0 01-.19-7.93zM1234.42 598.73c.35-1.56.72-2.45 1.15-1.73.18 3.57.61 7.35 0 10.41-.3 2.56-.6.73-1.07 1a66.61 66.61 0 01-.08-9.68zM1239.52 620.68a73.63 73.63 0 00.12-9.12c.65-.43.95-6.66 1.35-8.6.11 5.65 1 2 1.64 3.67.59 6 .59 17.76-.56 23.19-.81-1.16-2.08 6-2.2-3.3-.07-2.33-.01-5.04-.35-5.84zM1249.14 667.3l.37-12c.94-3.62 2.27 1.26 2.76-.74.24 4.56-.33 14.67.79 14.61a88.74 88.74 0 01-.41 16.05c-1.58 4.71-2-16.2-3.39-8.59a34.17 34.17 0 00-.12-9.33zM1235.65 588.23a55.37 55.37 0 011-7c.22 2.55.66 3.95 1 6.45-.29 3.19-.55 8.4-1.2 8.8-.56-.02-.99-4.48-.8-8.25zM1236.26 562.3c.93-1.25.73 5.6 1.2 9a42.6 42.6 0 01-.49 6.35c-.46 1-.84.52-1.2-2.25-.25-5.23.51-8.06.49-13.1zM1229.87 507.93c.18-4.47.68-2.11 1.05-2.35a41.94 41.94 0 01.1 8c-.55 4.73-1.45.59-1.15-5.65zM1242.84 529.58c.21-2.49 1-1 .88 2.8l-.75 3.5a46.69 46.69 0 01-.13-6.3zM1344.13 291.68c.53.39.53.51.51.62l-1.31-1.16c0-.14.52.39.8.54zM1229.7 344.16c.76-3.28 2.56-.86 2.08-10.91a111.48 111.48 0 01-.3-15.36c.17-4.86.44-9.6.26-15.35.48 1.67 1.06-.86 1-7.06a29.37 29.37 0 00-.38-5.22c.46-.51 1.89 3.3 2.57-1.43 1.07 4.49 2.49 11.35 3.15 12.36.31-.84-.22-2.89.18-3.68-.16 5.8.54 14.08.81 20.87l.31-.94c.68 5.85.25 12.71 0 17.5 0 3 .59 2.57.7 3.86-.08 1.34-1.47 1.7-1.29 8.48l.75 4.7c-.51 0-.86-5.35-1.37-1.67-.16 2.85-.22 5.66-.34 6.78-.93-3.12-1.73 8.17-2.72 4.08-.23-6.91-1.11-3-1.61-1.66l.51-4.59c-.93 1.39-1.44-2.83-2.09-6.79l.3-2.9c-.37-3.33-.82-3.06-1.27-2.18s-.89 2.35-1.25 1.11z"/>
    <path class="cls-1" d="M1231.25 348.91v.4l-.64 2c.08-2.05.46-1.48.64-2.4zM1235.41 364.69c.09-.06.22-1.14.37-.23-.12 1.09-.25 2.18-.37.23zM1262 603.71c.68 1.6 0 4.35-.06 6.42-.3-1.82-.4-5.46.06-6.42zM1237.13 359.56l.08-.72v2c-.06.06-.07-.61-.08-1.28zM1231.1 294.33c.06 1.23.44 2.19.17 2.88a11.11 11.11 0 01-.17-2.88zM1230.5 267.86c0-.36.13-1.1.18-.63l-.12 1.9c-.09-.08-.05-.46-.06-1.27zM1234.72 279l.09-.65v3a12.56 12.56 0 01-.09-2.35zM1249 271.1c1.19-.18 8.12 6.43 12.08 8.8-.91-.74-2.69-.88 1.25 2.19 3.47 2.83 1.68.54 4.33 3.12-3.66-2.8-5-2.73-4.39-1.86l3.31 2.59c-5.64-3.74-11.39-7.26-17.41-12.77-4.93-4.58-.27-1.52-4-5.26 3.67 3.43 2.18.88 4.83 3.19zM1247.59 322.72c0-1.91.48-2.23.69-.5.19 3.56-.49 4.69-.69.5zM1274 285.54c1.26 1.06 3.74 3 2.82 2.83a18 18 0 01-4.76-4 8.11 8.11 0 001.94 1.17zM1344.53 351.79c1.41-.05 11 7.36 12.74 7-1.89-1-.64.93-3.56-1.43 4 2.49 6.81 6.61 13.24 11.06-.37 1-1 1.22.26 3.6-3.21-2.29-6.45-4.24-7.59-4.39l1.32 1.16c-5.61-4.14-8.24-6.46-11.55-7.76l.52.63c-2.09-2 .32-.29-.43-1.5-1.63-1-4-3.38-4.82-3.48-2.88-2.91-4.39-5.1-9.16-9 8.27 6.12 1.86-1.77 9.03 4.11zM1329.44 345.26c-.29.07-1.39-.4-3-1.81-1-1-1-1.35.07-.76a21.34 21.34 0 012.93 2.57zM1369.11 369.81l-1.06-.91 1.09.59-.03.32zM1366.8 373.42l-1.33-1.06.8.54.53.52zM1389.89 389.15c2.11 1.81-1.41-.29-.9.32-.23-.47.86 0 .9-.32zM1382.11 386.85c1.1.58.33-.4-.44-1.27 4.48 4.11 5.4 3.22 7.57 4.37 6.08 5.31 13.35 10 20.8 15.79.28 0-.51-.63-.77-.87 1.5 2.4 7.91 7.19 12.11 11-4.54-3.22.2 1 1.51 2.29 2.46 1.2 7.25 4.9 9.64 6.74l-4.83-3.25c-.58.15-3.29-1.41-1.73.34a20.33 20.33 0 013.45 2.75 26.22 26.22 0 01-2.94-2c-.34.63 2 2.79 4.93 5.15a46.47 46.47 0 00-12-5.91l2.09 2c-1-1.33-5.06-3.83-6.92-5.4-2 0-11.74-8.66-14.79-9.71-3.37-3.74-8.21-6.89-13.51-11.32v.1c-9.55-7.95-8.81-9.86-15.37-16 4.85 3 1.47-.71 7.13 2.88l-1.5-2.18c2.46 1.65 2.33 2.65 5.57 4.5zM1408.51 403.77l1.62 1zM1414.69 408l2.44 1.3zM1285.1 346.2l.06-.01.48.85-.06.01-.48-.85zM1291.35 346.48c0 .18-.32.23-.66.1-.4-.5.31-.33.66-.1zM1440.54 427.6l1.89 1.23zM1443 432.57c-1.64-.88-4.78-3.82-6.68-4.94 2.37 1.86 4.53 2.89 6.68 4.94zM1435.61 428.77l-1.6-1.2.81.43.79.77zM1464.9 445.27c1.82 1.89-.59.15-2.18-1.15.01-.23.59-.27 2.18 1.15zM1453.14 439.82l-3.21-2.28 1.07.68 2.14 1.6zM1469 463.54a21.6 21.6 0 015.49 5.33c.23.7-4.08-2.16-1.45.27-2.39-1.85-9.36-6.71-11.4-9.4s2.81.26 7.36 3.8zM1491.33 477.73c-1.52-2 4.56 3.12 1.68.21 4.08 2.28 8.81 6.64 14.24 9.64-1.39-.28 5 4.73 5.31 4.32 1.76 2.67 5.18 5.75 5.62 7.37-2.45-1.31-8.35-5.37-5.5-2.25-3.19-2.5-8.81-6.64-8.59-5.72-5.56-4.91-9-7.77-13.72-12.36-1-1.23 3.62.9-1.69-3.31 1.06.8 1.58 1.42 2.65 2.1zM1365 416.49c1.82 1.89 2.07 2.37 4.42 4.77-.34.62-4.32-2.65-4.66-2-5.61-4.24-8.54-6.38-10.86-9.22-.49-.83 1.14 0 1.44-.15 2.22.69 6.71 4.69 9.66 6.6zM1520.56 498l-1.89-1.23 1.36.72.53.51zM1438.21 460.62c1.31 1.27 1.56 1.75 2.62 2.77-1.14 0-2 .09-7.61-4.16-1.58-1.42-4.8-3.7-5.54-4.91.29-.18-.45-1.38 1.16-.41a85.68 85.68 0 019.37 6.71zM1472.31 480.6c1.66.54 5.66 3.59 8.35 5.25 3.15 2.94 5.29 4.54 6.55 6.36 2.56 3.43-7.81-5-10-5.57a49.57 49.57 0 01-5.4-6.55zM1570.68 553.57c-.16 0-.31 0-.14-.19l1.47-.8a7.93 7.93 0 01-1.33.99zM1414.29 454.56c2.9 2.46 5.22 5.08 2.25 3.38-1.65-.64-4.57-3-7-4.74-3.18-2.73-3.38-3.76-2.26-3.5a44.48 44.48 0 017.01 4.86zM1572.38 539.13l-1.75.83zM1556.74 532.4a13 13 0 01-4.3-2.53c-1.78-1.54.21-.82.34-1.13 1.3 1.26 4.3 3.11 3.96 3.66zM1247 470.87c-.41-2.43-.64-5.65-1.3-6.56.21-1.81.73-1.14.55-4-.41-7.46-.39-17.21-1.66-21.12.43.75.81 4.86 1.4 3.48a115 115 0 00.18-11.86c.24 3.86.58-2 .77-2.18.56-7.74-.49-17.14-.15-23.74.29 4.84 0 15.08 1 16.85.92-1.26 1-9.36 1.44-12.33.09-.06-.06 2.72-.05 4.05.74-1.14 1.78 3.25 2.06-4.33 1.39 2.14 2.88 16.65 4.08 26.3 0 8.4-.36 17-.48 25.49.14.24.33.79.52.67-1.12 4.41-2 15.73-2 22.45-.57 3.39-.34-4.49-1-1.72-.57-.3-.8 3.87-1.2 5.81-1.39-2.81-2.15-3.67-3.52-4.49 1.05-4.8-1.2-8.41-.64-12.77zM1535.91 579c.11-.26-.41.14-.73.34l-6.09 6.81-.42-.14c-5.66 4.87-9.44 8-15.94 13.49-10.16 7.46-16.62 10.22-25.63 16.59-2.81 1.08 2.53-2.11 4.41-4.13-.84.31.75-1.84-2.61 1.16 2.41-2.43 2.11-2.85 4-4.87l-3 1.91c3.25-3 6.18-5.29 6.83-6.87-2.73 1.73-4 3.38-6.61 4.84 6.91-4.72 11.21-9.48 18.56-14.66l-1.47.38c3.55-2.62 6.17-3.48 9.83-7l-.62.07c6.4-4.32 10.88-6.6 17.15-10.63 7.43-4.16 3.08.61 2.34 2.71zM1543.87 528.34c.58.59.51.83.36.95a5.55 5.55 0 01-2.77-1.9c-.21-.73 1.46.2 2.41.95zM1553.33 532.57c.72.59-.09.22-.2.26-.79-.36-1.81-1.33-1-1.16a3.52 3.52 0 011.2.9z"/>
    <path class="cls-4" d="M1542.56 561.62l-.56.68z"/>
    <path class="cls-1" d="M1533.72 569.49c-1 .22 1.89-2 3.67-3.19a23.88 23.88 0 01-3.67 3.19z"/>
    <path class="cls-4" d="M1492.34 612.31l-.21.22-2.19 1.31.21-.23 2.19-1.3z"/>
    <path class="cls-1" d="M1510.75 590.06l4.08-2.13-3.46 2.07-.62.06zM1482.18 621c-.63.37-.64.08.32-.79.93-.6.72-.08-.32.79zM1480.74 619.82l-3.57 2.63zM1480.23 617.84c.32-.79-2.21 1.62-3 2.21 2.1-2.55 4.81-3.37 8.28-6.63a36.25 36.25 0 01-5.28 4.42zM1336.55 742.79c-6.28 4-13.25 10.62-18.18 13.64.34-.36 1.85-1.5 1.18-1.26-8 6.5-4.51 1.5-12.38 8l3-2.75c-.76 0-2.92 1.58-5 3 1-.84 2.52-1.74 3.61-2.79-1.59.39-.4-1.35.52-2.7.08 0 .34-.12.83-.42a44.64 44.64 0 017-6.87c-.08-.27-1.67.84-2.75 1.64 5.75-3.19 16-13 22.78-16.3 3.76-3.44 5.09-3.2 7.77-4.87 3.35-2.16 3.59-1.83 3.58-1.11-1.89 3-4.84 6.71-11.96 12.79zM1542.83 543.91c-1.1.65-1.4.4-1.61.2a4.91 4.91 0 012.5-1.49c.41.11-.44.86-.89 1.29zM1442.77 653l-2.41 2.13zM1510 579.84l-.62.37 1.89-1.42c-.09.26-.72.64-1.27 1.05zM1502.81 584.74h-.12l1.89-1.12a9.71 9.71 0 01-1.77 1.12zM1504 581.26l-5 3.59c3.88-3.71 2-2.59 4.94-5.74 2.2-1.31 5.75-4.53 8.68-5.87 1.06-.54 1.24.15-.32 1.68-2.88 2.29-8.3 7.54-8.3 6.34zM1310.81 763.8l.93-.86-.5.53-.43.33z"/>
    <path class="cls-1" d="M1503.76 581.78l.31-.18-.63.67.32-.49zM1267.9 833.58l1.9-1.74-1.37 1.32-.53.42zM1508.4 575l-1.67 1.2zM1310.5 761.76l-3.76 3zM1302.1 769.33l1.85-1.51-.58.5-1.27 1.01zM1296.08 774.35c-.92.62-.18-.05.15-.41.34-.12.85-.42-.15.41zM1306 761.33c.33-.59.92-.63 1.42-.93a12 12 0 01-1.42.93zM1308.05 757.73c1.92-1.23 4-3.36 4.7-3.61-1.61 1.36-3.75 3.7-4.7 3.61zM1296.68 771.2l-3.09 2.25zM1303.41 763.52l1.1-1.29 1-.6-1.34 1.44-.76.45zM1481.18 595c-2.83 1.39 3.47-3.56 3.46-3a16.43 16.43 0 01-3.46 3zM1475.73 600.2c-.52-.18 3.35-3 3.24-2.43a18.62 18.62 0 01-3.24 2.43zM1477.43 596c-.2-.38 1.46-1.27 2.62-2.06a11.45 11.45 0 01-2.62 2.06zM1475.61 591.11c3.25-2.73 2.74-3.52 6.92-6.22a49.59 49.59 0 01-6.92 6.22zM1476.47 589.3c.4-.14.31-.79 1.45-1.26zM1473.73 591.93l1.46-1.27-.94.86-.52.41zM1472.16 592.57l1.89-1.72-1.56 1.52-.33.2zM1452.58 608.34c-.85.3.84-1.2 1.68-1.51a12.16 12.16 0 01-1.68 1.51zM1242.07 807.55l-3 1.6c1.35-1.9 7.23-6.11 9.1-7.22 1.54-.34-3.7 3.79-6.1 5.62zM1288 753.12c0-.3 1.67-1.49 3-2.51 2.28-1.31-2.23 2.77-3 2.51zM1252.57 786.64l2.94-1.95-2.94 2.25v-.3z"/>
  </g>
  <g class="cls-3">
    <path class="cls-1" d="M1557.77 402c-4.63-4.22 2.47.84-4.82-5.29 2.27 1.18 10.27 6.92 16.91 12.38l5.53 5.06c-6.16-4.3-9.82-6-17.62-12.15zM1730.65 506.9c-2.43-2-1.59-1.84-1.19-1.84a70.38 70.38 0 016.28 5.15l-1.33-1.16s0 .08 0 0l1.33 1.17c.26.61-2.85-1.68-5.09-3.32zM1611.49 418.66c-3.83-3.5-9-7.64-13.35-11.61-1.71-2.83 8.34 3.9 19 11.78a71.75 71.75 0 018.09 6.92c1.63 2.55 4.7 6.16-3.52.63-2.53-.82-10.47-9.11-10.22-7.72zM1703.78 475.59l-1.3-.45c-2.43-2-.74-1.67-4.6-4.83l-7-4.38c-3.86-3.15-1.06-1.39-.65-1.37-3.67-2.74-6.72-5.06-9.45-7.21l-7.52-6.23c-4.86-4.05-9.84-8.22-17.56-14.28l4.94 2.88c-3.83-3.49-10.38-8.54-13.27-11.3 10.58 7.57-3.62-4.47-3.37-5.28a109 109 0 0112.25 7.81c-4.3-3.69-8.67-7.91-12.08-11.26l5.65 4.57c1.74.77-.69-1.56-4.91-4.95 5.16 4.13 2.6 1.1 4.42 2.3-9-7.51-18.17-13.91-27.76-22.56-4.37-4.1-4.06-4.63-6.13-7.22 8.43 6.65 14.24 10 19.42 14.13 4.39 4.35 17.5 14.57 17.3 15.79 3.29 2.53 7.41 5.37 10.11 7-2-2.32-9.9-8.11-11.94-10.43 10.69 8 15.41 11.85 26.16 20.15l-1.55-1.88c5.29 4.65 12.67 10.62 19.77 15.77s13.54 10 16.71 12.69c11.25 9.85 21.67 19.67 23.5 22.76-10.35-7.36-.5 1.5-1.78 1.18-3.29-2.32-8.19-6.61-7.56-5.36 5 4.85 10.42 7.52 11.74 10.16-10.71-7.1-5.89-1.16-9.89-2.95-3.49-1.23-16.71-12.81-15.84-10.45 7.6 5.75.11.55 1.63 2.12a82 82 0 01-9.44-6.92zM1531.56 338.72c-4.26-3.54-2.49-2.74-3.51-3.9-1.61-2.29 8.69 5.95 13.39 9.67 4.76 4.1 4.93 4.95 4.11 4.9-1.68-.39-9.73-7.13-13.99-10.67zM1598.75 379.35c-3.8-3.23-8.48-7-10-8.79.3-.53.6-1.08 5.22 2.21 7 5.47 12.06 9 17 13.86 5.33 5.25-2.31.83-12.22-7.28zM1382.52 232.1c-12.66-10-8.26-7.89-10.82-10.93 14.86 11-6.48-7 6.5 2.56a114 114 0 019.94 8.26c-7.18-4.11 19.56 17.16 11 11.87-1.74-.51-10.6-7.31-16.62-11.76zM1458.18 281.62c-4.29-3.68-6.34-6.13-4.07-4.77 1.73.77 8.32 6.09 12.1 9.19 4.27 3.67 6.33 6.13 3.14 4s-6.96-5.17-11.17-8.42zM1491.54 301.72c-2.41-2.2-.58-1-1.6-2.16 2.24 1.23 7 5.34 9.81 7.56l3 3.33c-3.67-2.54-6.5-4.9-11.21-8.73zM1445 268.77c-2-2-3-3.3-1.71-2.83 5.11 3.84 10.65 7.74 14.55 11.65 3.39 3.09.65 1.28.77 2-4.16-3-9.31-7.12-13.61-10.82zM1478.85 289.32c-4.29-3.8-8.49-7.05-12.68-10.3-.19-1-8.72-8.19-11.19-10.67 8 6.22 3.48 1.43 6.15 2.81 8.75 6.25 25.19 19.4 32.07 26.38-2.12-.66 7.13 8.37-6-2-3.27-2.54-7.02-5.54-8.35-6.22zM1550 333.91l-16.54-13.71c-4.48-4.79 3.16-.37.67-3 6.52 4.91 20.3 16.67 20.91 15.73a278.64 278.64 0 0122.18 18.27c5.6 6.5-23.87-16.57-14.1-6.95a109.53 109.53 0 00-13.12-10.34zM1431.07 256.06c-3.82-3.38-7.22-6.59-9.2-8.63 3.71 2.69 5.94 3.9 9.63 6.45 4.28 3.8 11.4 9.84 11.56 10.79-.32.41-6.78-4.21-11.99-8.61zM1395.21 226.58c-1.18-2.13 8.28 5.69 13.3 9.11 3.31 2.67 6.14 5.15 8.58 7.49 1.06 1.44.21 1.24-3.9-1.58-7.45-5.6-10.93-9.4-17.98-15.02zM1315.2 170.76c-6.14-5.14-2.53-2.89-2.63-3.46a135 135 0 0111.25 8.88c6.27 5.72-.08 1.82-8.62-5.42zM1353.55 184.82c-3.34-2.93-.74-1.84 4.46 2.45l4.43 4.51c-3.27-2.53-5.53-4.01-8.89-6.96zM1149.39 464c0 1.19-.09 1.31-.18 1.41l.12-3.14a14.49 14.49 0 01.06 1.73zM1114.54 146.75c-.69 5.12-2.52 2.35-1.83 17.5 1.1 16.19-.31 29.81 0 46.83-.48-1.82-1 3-1 12.6a54.41 54.41 0 00.38 7.34c-.45 1.76-1.88-1.42-2.57 7.77-1.06-4.79-2.48-13.38-3.14-13.81-.32 2.14.22 4.54-.19 6.82.16-10.41-.54-23.44-.8-35.18l-.32 2.19c-.67-9.45-.25-22.58 0-31.27 0-5.42-.61-4.11-.74-6.38 0-2.52 1.41-4.12 1.06-15.93l-.87-8.15c.51.13 1 9.16 1.41 2.71.09-4.84.08-9.53.18-11.36.5 2.82.89-.58 1.28-3.59s.81-5.68 1.35-2.12c.39 11.25 1.19 5.13 1.67 3.36l-.42 6.62c.9-1.71 1.5 4.17 2.22 9l-.23 4.34c.89 10.06 1.79-2.67 2.56.71z"/>
    <path class="cls-1" d="M1112.91 140.62l-.06-.48.6-2.45c.01 2.43-.38 1.78-.54 2.93zM1108.4 116.86c-.09 0-.2 1.72-.37.14.1-1.72.2-3.39.37-.14zM1469.08 252.72c2.65 1.25 6.09 4.86 8.94 7.22-2.74-1.8-7.89-5.8-8.94-7.22zM1106.79 124.47l-.07 1.19-.07-3.42a9.81 9.81 0 01.14 2.23zM1113.39 222.42c-.05-1.74-.43-2.53-.16-4a20.06 20.06 0 01.16 4zM1114 260.82c0 .65-.13 2-.18 1.39l.12-3.14c.06-.07.06.56.06 1.75zM1109.77 254.22l-.08 1.28v-4.75a23.44 23.44 0 01.08 3.47zM1107.8 314.8c.87 3.81-.17 17 .37 26 0-1.84-.94-6.75-1 1.71-.13 7.36.6 4.13.16 9.44 0-7.81-.87-11.61-1.19-10.65l-.05 7.26c-.46-12.72-1.17-26.93-.46-39.16.64-9.76 1 1.21 1.75-5.6-.45 7.2.67 5.89.42 11zM1096.9 203.4c0 4.21-.47 6-.68 2.58-.22-7.61.48-11.38.68-2.58zM1111.55 369.45c-.07 2.46-.13 7.35-.52 5.42a37.06 37.06 0 01.26-9.34 28.88 28.88 0 00.26 3.92zM1101.93 530.17c.9 2 .87 23.65 2.19 25.72-.35-3.77-1.12.11-1-6.62.48 8.47-1.1 16.9-.72 30.87-1 .52-1.55 0-2.69 4.29-.14-7-.56-13.78-1.14-15.56l-.12 3.14c-.13-12.48.11-18.75-.87-24.87l-.18 1.42c.34-5.18.42.15.92-2.23-.21-3.39.26-9.33-.17-10.65.56-7.25 1.38-11.78 1.58-22.83.14 18.44 2.51.72 2.2 17.32zM1097.93 501.62c-.23-.33-.53-2.41-.37-6.18.17-2.6.45-2.92.65-.74a66.33 66.33 0 01-.28 6.92zM1102.59 584.72l.08-2.49.2 2.17-.28.32zM1098.33 585.37l.02-3.05.06 1.73-.08 1.32zM1099.89 635.31c-.15 5-.62-2.32-.8-.94.23-.83.52 1.22.8.94zM1097 621.75c.21 2.18.52 0 .74-2-.53 10.84.73 11.18 1.14 15.52-.51 14.42.21 29.84.13 46.75.15.42.18-1.41.22-2-1 4.73-.89 19.06-1.39 29.21-.21-10-.69 1.42-.9 4.65.55 4.79.53 15.64.52 21l-.35-10.41c-.48-.66-.89-6.22-1.33-2.09a62.57 62.57 0 01-.09 7.9c-.15-1.65-.17-4-.18-6.38-.71.2-1 5.9-1.09 12.62a141.14 141.14 0 00-2.6-23.47l-.34 5.16c.45-2.89 0-11.35.08-15.71-1.19-2.85-.27-26.11-1.29-31.58.92-8.86.47-19.16.76-31.53l-.09.1c.5-22.22 2.46-23.24 3.34-39.24.54 10.2 1.46 1.32 2.06 13.27l.81-4.51c.16 5.17-.68 6.12-.15 12.74zM1099.62 677.68l.21 3.37zM1100 691l.46 4.9zM1070.2 402.8l.04.56-.37 5.82-.05-.54.38-5.84zM1073.79 446.81c-.14.73-.39-.79-.5-3.05.17-3.76.48.67.5 3.05zM1100.21 749.15l.17 4zM1097.74 758c-.3-3.29.11-11-.15-14.88-.01 5.44.49 9.64.15 14.88zM1096.28 743.4l-.02-3.58.15 1.62-.13 1.96zM1101 803c-.4 4.65-.48-.68-.41-4.35.2-.23.57.54.41 4.35zM1098.18 780.35l-.15-7.06.11 2.26.04 4.8zM1089 828.63a67.34 67.34 0 01-.89 13.61c-.41 1.09-.76-8.16-1.09-1.77 0-5.42-.37-20.61.52-26.43s1.52 4.29 1.46 14.59zM1091.34 875.86c.62-4.3.3 9.87.86 2.61.66 8.28.09 19.75 1 30.73-.58-2.27-.82 12.24-.33 12.24-.56 2.7-1 6.1-1.35 9.12-.22 1.59-.43 3.08-.6 4.34a22.87 22.87 0 01-.72 3.64c-.06-1.52-.15-3.66-.24-5.85-.1-1.78-.2-3.6-.28-5.05-.2-2.88-.46-4.22-.88-.5.17-7.24.17-19.7-.48-18.41.52-13.24.69-21.24 1.46-32.93.35-2.8 1.49 6.13 1.6-6 .02 2.38-.15 3.79-.04 6.06zM1063.05 629.68c-.39 4.62-.62 5.5-1.1 11.46-.7.18-.52-9-1.23-8.83 0-12.58-.13-19.08.72-25.45.36-1.6.66 1.64 1 1.88.77 3.92.33 14.66.61 20.94zM1092.63 940.91l-.09-5.1.2 3.43-.11 1.67zM1072.59 781.67c-.21 3.25-.44 4.12-.61 6.74-.67-1.66-1.29-2.76-1.33-15.35.16-3.77 0-10.83.52-13.2.33.22.83-2.14 1 1.21.28 6.93.7 13.69.42 20.6zM1077.48 851.88c.58 3 .6 12 .92 17.58-.42 7.66-.39 12.45-1.06 16.22-1.17 7.36-.82-16.49-1.69-20.32.57-6 1.32-12.34 1.91-14.79zM1254.82 968.81c.14 0 .27 0-.12.4l-2.28 1.48a26.35 26.35 0 012.4-1.88zM1062.84 741.07c-.19 6.81-.85 12.95-1.32 6.88-.49-3-.39-9.76-.47-15.06.22-7.49.92-8.88 1.4-7a144.56 144.56 0 01.39 15.18zM1214.37 991.1l3.46.4zM1182.45 996.34a75.54 75.54 0 01-13.16.6c-7.36-.13-2.67-.77-3.64-1.1 5.62.16 14.88-.14 16.8.5zM1274.05 116c-3.66-2.41-8.29-5.83-10-6.33-2.39-2.19-1.13-1.85-5.3-5l-9.17-7c-1.64-1.27-3.32-2.46-5-3.65-.83-.59-1.66-1.12-2.48-1.67l-.61-.4a6 6 0 00-.74 0h-1.48c-3.91-.08-7.59-.09-10.82.15-1.61.09-3.09.2-4.41.32s-2.22.26-3.11.42a43.45 43.45 0 014.75-.65c1.92-.22 3.35-.46 2-.76-3.81-.12-6.86-.2-10.38-.23s-7.24 0-11.36 0c6.92-.23-3.67-.58-3.89-.77-13.86-.56-30.69.5-42.5.16 8.66-.3 27 0 30.16-1-2.24-.93-16.76-1-22.08-1.45h7.25c-2-.74 5.82-1.78-7.74-2.06 3.83-1.38 29.8-2.88 47.08-4.07l12 .07 7.71.06c2.52.16 5 .46 7.5.68l1.87.18c.6.1 1.3 0 1.78.41 1.06.66 2.12 1.26 3.16 2 2.06 1.51 4.15 2.93 6.12 4.59l10.62 8.65c.43.16 1.33.63 1.27.35 5.46 5.8 20.74 19.16 30.12 26.68 4.38 4.23-6.49-4.77-3-1.14-.76.11 4.92 5 7.38 7.43-4.8-2.06-6.47-2.42-8.47-2.26-6.01-6.19-12.46-8.48-18.23-13.71zM1317.29 920.05c-.25.38.65-.35 1.21-.74l11.5-11.37h.58l28.54-24.12c17.78-13.89 28.38-20.14 44.06-32.13 4.57-2.57-4.51 3.78-8 7.19 1.37-.75-1.77 2.7 4.29-2.58-4.45 4.15-4.15 4.58-7.68 8l5.19-3.73c-5.92 5.29-11.09 9.43-12.61 11.75 4.68-3.38 7.14-6 11.56-9-12 9-20.07 17-32.84 26.71l2.31-1.1c-6.22 4.87-10.42 7.07-17.12 13.11l1-.36c-11.06 8.26-18.55 13.07-29.32 20.9-12.68 8.54-4.54.55-2.67-2.53zM1152.84 1001c3.15.12 4 .35 4.2.53a37.34 37.34 0 01-5.4.35H1148l-4.74-.14c-2.17-.22-.87-.41 1.74-.53l4.48-.14c1.1-.07 2.29-.07 3.36-.07zM1180.76 998.55c3.06 0 .87.23 1 .33-2.16.2-7.15 0-5.73-.29a31.63 31.63 0 014.73-.04z"/>
    <path class="cls-4" d="M1299.22 947l1.57-1.52z"/>
    <path class="cls-1" d="M1317.15 931.57c1.63-.72-3.53 3.41-6.61 5.66a79.76 79.76 0 016.61-5.66z"/>
    <path class="cls-4" d="M1394 858.83l.38-.37 3.73-2.61-.39.38-3.72 2.6z"/>
    <path class="cls-1" d="M1358.66 895.36l-6.83 4.45 5.88-4.11.95-.34zM1412.2 843.39c1.08-.75 1-.36-.75 1.16-1.59 1.11-1.09.34.75-1.16zM1413.94 844.28l6.25-4.89zM1414 846.66c-.75 1.15 3.86-3 5.3-4.13-4 4.17-8.35 6.36-14.67 12a110.08 110.08 0 019.37-7.87zM1672.44 624.89c2.69-1.94 5.5-4.12 8.34-6.38l8.65-6.74c5.68-4.48 11.06-8.74 15.34-11.63-.65.59-3.35 2.64-2.26 2.08 14.42-11.45 7.35-3.67 21.62-15.11l-5.56 4.71c1.13-.26 5-3.17 8.67-5.8-1.83 1.47-4.43 3.22-6.47 5 2.52-1.1.09 1.6-1.81 3.69a6.86 6.86 0 00-1.41.86 136.57 136.57 0 01-13.07 11.54c0 .32 2.83-1.72 4.76-3.17-4.92 3.16-12.15 8.88-19.58 14.67l-5.57 4.31-5.37 4.23c-3.49 2.69-6.78 5.08-9.6 6.86-6.83 6-8.71 6.25-13.29 9.54-5.76 4.18-6 3.85-5.73 2.91 3.83-4.62 9.56-10.72 22.34-21.57zM1263 993.8c6.3-4.84 5.6-3.79 4.67-2.68-3.13 2.68-6.18 5.11-8.79 7.1a71.12 71.12 0 01-6.44 3.9 34 34 0 014-3.12c2.23-1.51 4.71-3.76 6.56-5.2zM1482.3 785.43l4.34-3.77zM1356.11 908.35l1.06-.74-3.32 2.64a17.42 17.42 0 012.26-1.9zM1368.58 899h.17l-3.21 2.24a33.18 33.18 0 013.04-2.24zM1365.61 904l8.74-6.74c-7.09 6.42-3.88 4.18-9.4 9.5-3.73 2.6-10.17 8.26-15 11.21-1.76 1.13-1.78.31 1.09-2.33 5.02-4.11 15.02-13.18 14.57-11.64zM1718.9 587.71l-1.71 1.48.95-.88.76-.6z"/>
    <path class="cls-1" d="M1366.11 903.25l-.52.37 1.17-1.13-.65.76zM1724.43 530.38l1.17.65-.91-.45-.26-.2zM1356.8 914l2.92-2.25zM1718.59 590.23l6.77-5.27zM1734.08 577.24l-3.35 2.65 1.06-.87 2.29-1.78zM1744.24 568.92c1.39-1 .24 0-.3.53-.49.25-1.25.77.3-.53zM1725.16 589.07a9.06 9.06 0 01-2.48 1.74c1.07-.88 1.32-.81 2.48-1.74zM1720.73 594.5c-3.33 2.32-7.29 5.88-8.4 6.45 2.92-2.37 7.08-6.22 8.4-6.45zM1742.7 572.86l5-3.82zM1729.9 585.25l-2.14 2.08-1.74 1.17 2.57-2.38 1.31-.87zM1404.4 876.83c4.7-3-6.42 6.06-6.2 5.28a52.78 52.78 0 016.2-5.28zM1414.38 867.77c.71 0-6.05 5.27-5.69 4.49a59.89 59.89 0 015.69-4.49zM1410.35 873.94c.17.4-2.62 2.24-4.63 3.75a35.84 35.84 0 014.63-3.75zM1411.32 879.55c-5.81 4.89-5.33 5.71-12.51 10.94a156.72 156.72 0 0112.51-10.94zM1409.4 882.25c-.66.36-.76 1.16-2.62 2.25zM1414.4 877.71l-2.62 2.25 1.71-1.5.91-.75zM1416.96 876.24l-3.42 3.02 2.87-2.63.55-.39zM1451.72 847.67c1.36-.74-1.68 1.91-3 2.65a38.74 38.74 0 013-2.65zM1748.75 503.25l-4.4-4.21c3.61 2 13.88 10.44 16.7 13 1.36 1.96-8.05-5.43-12.3-8.79zM1749 592.81c-.13.39-3.07 2.56-5.51 4.4-3.82 2.53 4.51-4.46 5.51-4.4zM1791.7 524.31l5.62 4.76-6.24-4.96.62.2z"/>
  </g>
</svg>
